<?xml version="1.0" encoding="UTF-8"?>
<!DOCTYPE svg PUBLIC "-//W3C//DTD SVG 1.1//EN" "http://www.w3.org/Graphics/SVG/1.1/DTD/svg11.dtd">
<!-- Creator: CorelDRAW 2018 (64-Bit) -->
<svg xmlns="http://www.w3.org/2000/svg" xml:space="preserve" width="400px" height="400px" version="1.1" style="shape-rendering:geometricPrecision; text-rendering:geometricPrecision; image-rendering:optimizeQuality; fill-rule:evenodd; clip-rule:evenodd"
viewBox="0 0 400 400"
 xmlns:xlink="http://www.w3.org/1999/xlink">
 <defs>
  <style type="text/css">
   <![CDATA[
    .fil0 {fill:#2B2A29}
    .fil1 {fill:#FEFEFE;fill-rule:nonzero}
   ]]>
  </style>
 </defs>
 <g id="Слой_x0020_1">
  <metadata id="CorelCorpID_0Corel-Layer"/>
  <circle class="fil0" cx="200" cy="200" r="200"/>
  <path class="fil1" d="M128.26 130.27c5.7,0 9.83,1.33 12.39,3.98 2.55,2.66 3.83,6.67 3.83,12.04l0 2.49c0,3.58 -0.57,6.53 -1.7,8.86 -1.12,2.32 -2.91,4.04 -5.37,5.17 2.99,1.13 5.09,2.97 6.32,5.52 1.23,2.55 1.84,5.69 1.84,9.4l0 5.67c0,5.38 -1.39,9.47 -4.18,12.29 -2.78,2.82 -6.93,4.23 -12.44,4.23l-17.21 0 0 -69.65 16.52 0zm-5.57 38.31l0 21.39 6.26 0c1.86,0 3.27,-0.5 4.23,-1.49 0.97,-1 1.45,-2.79 1.45,-5.37l0 -6.07c0,-3.25 -0.55,-5.48 -1.65,-6.67 -1.09,-1.19 -2.9,-1.79 -5.42,-1.79l-4.87 0zm0 -28.36l0 18.41 4.28 0c2.05,0 3.66,-0.53 4.82,-1.59 1.16,-1.06 1.74,-2.99 1.74,-5.77l0 -3.88c0,-2.52 -0.45,-4.35 -1.34,-5.47 -0.9,-1.13 -2.31,-1.7 -4.23,-1.7l-5.27 0zm29.45 -9.95l10.94 0 0 59.7 18.01 0 0 9.95 -28.95 0 0 -69.65zm69.14 69.65l-11.04 0 -1.89 -12.64 -13.43 0 -1.89 12.64 -10.05 0 11.14 -69.65 16.02 0 11.14 69.65zm-24.97 -22.09l10.55 0 -5.28 -35.22 -5.27 35.22zm61.79 -3.88l0 9.25c0,5.64 -1.38,9.97 -4.13,12.99 -2.75,3.02 -6.82,4.53 -12.19,4.53 -5.37,0 -9.43,-1.51 -12.19,-4.53 -2.75,-3.02 -4.13,-7.35 -4.13,-12.99l0 -36.21c0,-5.64 1.38,-9.97 4.13,-12.98 2.76,-3.02 6.82,-4.53 12.19,-4.53 5.37,0 9.44,1.51 12.19,4.53 2.75,3.01 4.13,7.34 4.13,12.98l0 6.76 -10.35 0 0 -7.46c0,-2.52 -0.51,-4.29 -1.54,-5.32 -1.03,-1.03 -2.41,-1.54 -4.13,-1.54 -1.73,0 -3.1,0.51 -4.13,1.54 -1.03,1.03 -1.54,2.8 -1.54,5.32l0 37.61c0,2.52 0.51,4.28 1.54,5.27 1.03,1 2.4,1.5 4.13,1.5 1.72,0 3.1,-0.5 4.13,-1.5 1.03,-0.99 1.54,-2.75 1.54,-5.27l0 -9.95 10.35 0zm20.99 -1.79l-3.38 6.37 0 21.39 -10.95 0 0 -69.65 10.95 0 0 30.35 14.32 -30.35 10.95 0 -15.22 31.05 15.22 38.6 -11.24 0 -10.65 -27.76zm-145.91 61.69l10.95 0 0 59.69 18.01 0 0 9.95 -28.96 0 0 -69.64zm43.78 53.62c0,2.52 0.51,4.3 1.54,5.33 1.03,1.02 2.41,1.54 4.13,1.54 1.73,0 3.1,-0.52 4.13,-1.54 1.03,-1.03 1.54,-2.81 1.54,-5.33l0 -37.61c0,-2.52 -0.51,-4.29 -1.54,-5.32 -1.03,-1.03 -2.4,-1.54 -4.13,-1.54 -1.72,0 -3.1,0.51 -4.13,1.54 -1.03,1.03 -1.54,2.8 -1.54,5.32l0 37.61zm-10.94 -36.91c0,-5.64 1.42,-9.96 4.27,-12.98 2.86,-3.02 6.97,-4.53 12.34,-4.53 5.37,0 9.49,1.51 12.34,4.53 2.85,3.02 4.28,7.34 4.28,12.98l0 36.22c0,5.63 -1.43,9.96 -4.28,12.98 -2.85,3.02 -6.97,4.53 -12.34,4.53 -5.37,0 -9.48,-1.51 -12.34,-4.53 -2.85,-3.02 -4.27,-7.35 -4.27,-12.98l0 -36.22zm56.71 14.13l15.32 0 0 22.09c0,5.63 -1.38,9.96 -4.13,12.98 -2.75,3.02 -6.82,4.53 -12.19,4.53 -5.37,0 -9.43,-1.51 -12.19,-4.53 -2.75,-3.02 -4.12,-7.35 -4.12,-12.98l0 -36.22c0,-5.64 1.37,-9.96 4.12,-12.98 2.76,-3.02 6.82,-4.53 12.19,-4.53 5.37,0 9.44,1.51 12.19,4.53 2.75,3.02 4.13,7.34 4.13,12.98l0 6.77 -10.35 0 0 -7.47c0,-2.52 -0.51,-4.29 -1.54,-5.32 -1.03,-1.03 -2.4,-1.54 -4.13,-1.54 -1.72,0 -3.1,0.51 -4.13,1.54 -1.03,1.03 -1.54,2.8 -1.54,5.32l0 37.61c0,2.52 0.51,4.28 1.54,5.28 1.03,0.99 2.41,1.49 4.13,1.49 1.73,0 3.1,-0.5 4.13,-1.49 1.03,-1 1.54,-2.76 1.54,-5.28l0 -12.83 -4.97 0 0 -9.95zm32.43 22.78c0,2.52 0.52,4.3 1.54,5.33 1.03,1.02 2.41,1.54 4.13,1.54 1.73,0 3.1,-0.52 4.13,-1.54 1.03,-1.03 1.54,-2.81 1.54,-5.33l0 -37.61c0,-2.52 -0.51,-4.29 -1.54,-5.32 -1.03,-1.03 -2.4,-1.54 -4.13,-1.54 -1.72,0 -3.1,0.51 -4.13,1.54 -1.02,1.03 -1.54,2.8 -1.54,5.32l0 37.61zm-10.94 -36.91c0,-5.64 1.42,-9.96 4.28,-12.98 2.85,-3.02 6.96,-4.53 12.33,-4.53 5.38,0 9.49,1.51 12.34,4.53 2.85,3.02 4.28,7.34 4.28,12.98l0 36.22c0,5.63 -1.43,9.96 -4.28,12.98 -2.85,3.02 -6.96,4.53 -12.34,4.53 -5.37,0 -9.48,-1.51 -12.33,-4.53 -2.86,-3.02 -4.28,-7.35 -4.28,-12.98l0 -36.22z"/>
 </g>
</svg>
