<?xml version="1.0" encoding="UTF-8"?>
<!DOCTYPE svg PUBLIC "-//W3C//DTD SVG 1.1//EN" "http://www.w3.org/Graphics/SVG/1.1/DTD/svg11.dtd">
<!-- Creator: CorelDRAW 2018 (64-Bit) -->
<svg xmlns="http://www.w3.org/2000/svg" xml:space="preserve" width="400px" height="400px" version="1.1" style="shape-rendering:geometricPrecision; text-rendering:geometricPrecision; image-rendering:optimizeQuality; fill-rule:evenodd; clip-rule:evenodd"
viewBox="0 0 400 400"
 xmlns:xlink="http://www.w3.org/1999/xlink">
 <defs>
  <style type="text/css">
   <![CDATA[
    .fil0 {fill:#FEFEFE}
    .fil1 {fill:#898989;fill-rule:nonzero}
   ]]>
  </style>
 </defs>
 <g id="Слой_x0020_1">
  <metadata id="CorelCorpID_0Corel-Layer"/>
  <circle class="fil0" cx="199.56" cy="199.94" r="200"/>
  <path class="fil1" d="M137.97 162.75l-3.98 37.11 -15.02 0 -7.76 -69.64 10.64 0 5.87 54.92 5.27 -54.92 10.55 0 5.47 55.32 5.67 -55.32 9.55 0 -7.76 69.64 -14.52 0 -3.98 -37.11zm42.68 37.11l-10.94 0 0 -69.64 10.94 0 0 29.84 12.44 0 0 -29.84 11.14 0 0 69.64 -11.14 0 0 -29.85 -12.44 0 0 29.85zm31.54 -69.64l10.94 0 0 69.64 -10.94 0 0 -69.64zm15.72 0l33.83 0 0 9.95 -11.44 0 0 59.69 -10.95 0 0 -59.69 -11.44 0 0 -9.95zm49.55 29.35l15.02 0 0 9.95 -15.02 0 0 20.39 18.9 0 0 9.95 -29.85 0 0 -69.64 29.85 0 0 9.95 -18.9 0 0 19.4zm-144.71 74.22l10.94 0 0 59.69 18.01 0 0 9.95 -28.95 0 0 -69.64zm43.77 53.63c0,2.52 0.52,4.29 1.54,5.32 1.03,1.03 2.41,1.54 4.13,1.54 1.73,0 3.1,-0.51 4.13,-1.54 1.03,-1.03 1.54,-2.8 1.54,-5.32l0 -37.61c0,-2.52 -0.51,-4.3 -1.54,-5.33 -1.03,-1.02 -2.4,-1.54 -4.13,-1.54 -1.72,0 -3.1,0.52 -4.13,1.54 -1.02,1.03 -1.54,2.81 -1.54,5.33l0 37.61zm-10.94 -36.92c0,-5.63 1.42,-9.96 4.28,-12.98 2.85,-3.02 6.96,-4.53 12.33,-4.53 5.38,0 9.49,1.51 12.34,4.53 2.85,3.02 4.28,7.35 4.28,12.98l0 36.22c0,5.64 -1.43,9.96 -4.28,12.98 -2.85,3.02 -6.96,4.53 -12.34,4.53 -5.37,0 -9.48,-1.51 -12.33,-4.53 -2.86,-3.02 -4.28,-7.34 -4.28,-12.98l0 -36.22zm56.71 14.13l15.32 0 0 22.09c0,5.64 -1.38,9.96 -4.13,12.98 -2.75,3.02 -6.81,4.53 -12.19,4.53 -5.37,0 -9.43,-1.51 -12.18,-4.53 -2.76,-3.02 -4.13,-7.34 -4.13,-12.98l0 -36.22c0,-5.63 1.37,-9.96 4.13,-12.98 2.75,-3.02 6.81,-4.53 12.18,-4.53 5.38,0 9.44,1.51 12.19,4.53 2.75,3.02 4.13,7.35 4.13,12.98l0 6.77 -10.35 0 0 -7.46c0,-2.52 -0.51,-4.3 -1.54,-5.33 -1.03,-1.02 -2.4,-1.54 -4.13,-1.54 -1.72,0 -3.1,0.52 -4.13,1.54 -1.02,1.03 -1.54,2.81 -1.54,5.33l0 37.61c0,2.52 0.52,4.27 1.54,5.27 1.03,0.99 2.41,1.49 4.13,1.49 1.73,0 3.1,-0.5 4.13,-1.49 1.03,-1 1.54,-2.75 1.54,-5.27l0 -12.84 -4.97 0 0 -9.95zm32.43 22.79c0,2.52 0.52,4.29 1.55,5.32 1.02,1.03 2.4,1.54 4.12,1.54 1.73,0 3.11,-0.51 4.13,-1.54 1.03,-1.03 1.55,-2.8 1.55,-5.32l0 -37.61c0,-2.52 -0.52,-4.3 -1.55,-5.33 -1.02,-1.02 -2.4,-1.54 -4.13,-1.54 -1.72,0 -3.1,0.52 -4.12,1.54 -1.03,1.03 -1.55,2.81 -1.55,5.33l0 37.61zm-10.94 -36.92c0,-5.63 1.43,-9.96 4.28,-12.98 2.85,-3.02 6.96,-4.53 12.33,-4.53 5.38,0 9.49,1.51 12.34,4.53 2.85,3.02 4.28,7.35 4.28,12.98l0 36.22c0,5.64 -1.43,9.96 -4.28,12.98 -2.85,3.02 -6.96,4.53 -12.34,4.53 -5.37,0 -9.48,-1.51 -12.33,-4.53 -2.85,-3.02 -4.28,-7.34 -4.28,-12.98l0 -36.22z"/>
 </g>
</svg>
