<?xml version="1.0" encoding="UTF-8"?>
<!DOCTYPE svg PUBLIC "-//W3C//DTD SVG 1.1//EN" "http://www.w3.org/Graphics/SVG/1.1/DTD/svg11.dtd">
<!-- Creator: CorelDRAW 2018 (64-Bit) -->
<svg xmlns="http://www.w3.org/2000/svg" xml:space="preserve" width="400px" height="400px" version="1.1" style="shape-rendering:geometricPrecision; text-rendering:geometricPrecision; image-rendering:optimizeQuality; fill-rule:evenodd; clip-rule:evenodd"
viewBox="0 0 400 400"
 xmlns:xlink="http://www.w3.org/1999/xlink">
 <defs>
  <style type="text/css">
   <![CDATA[
    .fil0 {fill:#E31E24}
    .fil6 {fill:#FEFEFE;fill-rule:nonzero}
    .fil1 {fill:#FFF7B2;fill-rule:nonzero}
    .fil2 {fill:#DCCF73;fill-rule:nonzero}
    .fil4 {fill:#F08683;fill-rule:nonzero}
    .fil5 {fill:#D0AAD0;fill-rule:nonzero}
    .fil3 {fill:#A8D4AF;fill-rule:nonzero}
   ]]>
  </style>
 </defs>
 <g id="Слой_x0020_1">
  <metadata id="CorelCorpID_0Corel-Layer"/>
  <circle class="fil0" cx="200" cy="200" r="200"/>
  <g id="_2062018311248">
   <path class="fil1" d="M145.12 173.95l0 9.25c0,5.64 -1.37,9.97 -4.13,12.99 -2.75,3.02 -6.81,4.53 -12.18,4.53 -5.38,0 -9.44,-1.51 -12.19,-4.53 -2.75,-3.02 -4.13,-7.35 -4.13,-12.99l0 -36.21c0,-5.64 1.38,-9.97 4.13,-12.98 2.75,-3.02 6.81,-4.53 12.19,-4.53 5.37,0 9.43,1.51 12.18,4.53 2.76,3.01 4.13,7.34 4.13,12.98l0 6.76 -10.34 0 0 -7.46c0,-2.52 -0.52,-4.29 -1.55,-5.32 -1.02,-1.03 -2.4,-1.54 -4.13,-1.54 -1.72,0 -3.1,0.51 -4.12,1.54 -1.03,1.03 -1.55,2.8 -1.55,5.32l0 37.61c0,2.52 0.52,4.28 1.55,5.27 1.02,1 2.4,1.5 4.12,1.5 1.73,0 3.11,-0.5 4.13,-1.5 1.03,-0.99 1.55,-2.75 1.55,-5.27l0 -9.95 10.34 0z"/>
   <path class="fil2" d="M161.84 183.9c0,2.52 0.51,4.3 1.54,5.32 1.03,1.03 2.4,1.55 4.13,1.55 1.72,0 3.1,-0.52 4.13,-1.55 1.03,-1.02 1.54,-2.8 1.54,-5.32l0 -37.61c0,-2.52 -0.51,-4.29 -1.54,-5.32 -1.03,-1.03 -2.41,-1.54 -4.13,-1.54 -1.73,0 -3.1,0.51 -4.13,1.54 -1.03,1.03 -1.54,2.8 -1.54,5.32l0 37.61zm-10.95 -36.91c0,-5.64 1.43,-9.97 4.28,-12.98 2.85,-3.02 6.97,-4.53 12.34,-4.53 5.37,0 9.48,1.51 12.34,4.53 2.85,3.01 4.27,7.34 4.27,12.98l0 36.21c0,5.64 -1.42,9.97 -4.27,12.99 -2.86,3.02 -6.97,4.53 -12.34,4.53 -5.37,0 -9.49,-1.51 -12.34,-4.53 -2.85,-3.02 -4.28,-7.35 -4.28,-12.99l0 -36.21z"/>
   <polygon class="fil3" points="191.19,130.27 202.13,130.27 202.13,189.97 220.14,189.97 220.14,199.92 191.19,199.92 "/>
   <path class="fil4" d="M234.96 183.9c0,2.52 0.52,4.3 1.55,5.32 1.02,1.03 2.4,1.55 4.13,1.55 1.72,0 3.1,-0.52 4.12,-1.55 1.03,-1.02 1.55,-2.8 1.55,-5.32l0 -37.61c0,-2.52 -0.52,-4.29 -1.55,-5.32 -1.02,-1.03 -2.4,-1.54 -4.12,-1.54 -1.73,0 -3.11,0.51 -4.13,1.54 -1.03,1.03 -1.55,2.8 -1.55,5.32l0 37.61zm-10.94 -36.91c0,-5.64 1.43,-9.97 4.28,-12.98 2.85,-3.02 6.96,-4.53 12.34,-4.53 5.37,0 9.48,1.51 12.33,4.53 2.85,3.01 4.28,7.34 4.28,12.98l0 36.21c0,5.64 -1.43,9.97 -4.28,12.99 -2.85,3.02 -6.96,4.53 -12.33,4.53 -5.38,0 -9.49,-1.51 -12.34,-4.53 -2.85,-3.02 -4.28,-7.35 -4.28,-12.99l0 -36.21z"/>
   <path class="fil5" d="M287.2 199.92c-0.13,-0.46 -0.27,-0.9 -0.4,-1.29 -0.13,-0.4 -0.25,-0.9 -0.35,-1.5 -0.1,-0.59 -0.16,-1.36 -0.2,-2.28 -0.03,-0.93 -0.05,-2.09 -0.05,-3.49l0 -10.94c0,-3.25 -0.56,-5.54 -1.69,-6.87 -1.13,-1.32 -2.95,-1.99 -5.47,-1.99l-3.78 0 0 28.36 -10.95 0 0 -69.65 16.52 0c5.7,0 9.83,1.33 12.39,3.98 2.55,2.66 3.83,6.67 3.83,12.04l0 5.48c0,7.16 -2.39,11.87 -7.17,14.12 2.79,1.13 4.7,2.97 5.73,5.53 1.02,2.55 1.54,5.65 1.54,9.3l0 10.74c0,1.73 0.06,3.24 0.2,4.53 0.13,1.29 0.46,2.6 0.99,3.93l-11.14 0zm-11.94 -59.7l0 21.4 4.28 0c2.05,0 3.66,-0.54 4.82,-1.6 1.16,-1.06 1.74,-2.98 1.74,-5.77l0 -6.86c0,-2.52 -0.44,-4.35 -1.34,-5.47 -0.9,-1.13 -2.3,-1.7 -4.23,-1.7l-5.27 0z"/>
   <path class="fil6" d="M133.18 233.85l10.95 0 0 59.69 18.01 0 0 9.95 -28.96 0 0 -69.64zm43.78 53.62c0,2.52 0.51,4.3 1.54,5.33 1.03,1.02 2.41,1.54 4.13,1.54 1.73,0 3.1,-0.52 4.13,-1.54 1.03,-1.03 1.54,-2.81 1.54,-5.33l0 -37.61c0,-2.52 -0.51,-4.29 -1.54,-5.32 -1.03,-1.03 -2.4,-1.54 -4.13,-1.54 -1.72,0 -3.1,0.51 -4.13,1.54 -1.03,1.03 -1.54,2.8 -1.54,5.32l0 37.61zm-10.94 -36.91c0,-5.64 1.42,-9.96 4.27,-12.98 2.86,-3.02 6.97,-4.53 12.34,-4.53 5.37,0 9.49,1.51 12.34,4.53 2.85,3.02 4.28,7.34 4.28,12.98l0 36.22c0,5.63 -1.43,9.96 -4.28,12.98 -2.85,3.02 -6.97,4.53 -12.34,4.53 -5.37,0 -9.48,-1.51 -12.34,-4.53 -2.85,-3.02 -4.27,-7.35 -4.27,-12.98l0 -36.22zm56.71 14.13l15.32 0 0 22.09c0,5.63 -1.38,9.96 -4.13,12.98 -2.75,3.02 -6.82,4.53 -12.19,4.53 -5.37,0 -9.43,-1.51 -12.19,-4.53 -2.75,-3.02 -4.12,-7.35 -4.12,-12.98l0 -36.22c0,-5.64 1.37,-9.96 4.12,-12.98 2.76,-3.02 6.82,-4.53 12.19,-4.53 5.37,0 9.44,1.51 12.19,4.53 2.75,3.02 4.13,7.34 4.13,12.98l0 6.77 -10.35 0 0 -7.47c0,-2.52 -0.51,-4.29 -1.54,-5.32 -1.03,-1.03 -2.4,-1.54 -4.13,-1.54 -1.72,0 -3.1,0.51 -4.13,1.54 -1.03,1.03 -1.54,2.8 -1.54,5.32l0 37.61c0,2.52 0.51,4.28 1.54,5.28 1.03,0.99 2.41,1.49 4.13,1.49 1.73,0 3.1,-0.5 4.13,-1.49 1.03,-1 1.54,-2.76 1.54,-5.28l0 -12.83 -4.97 0 0 -9.95zm32.43 22.78c0,2.52 0.52,4.3 1.54,5.33 1.03,1.02 2.41,1.54 4.13,1.54 1.73,0 3.1,-0.52 4.13,-1.54 1.03,-1.03 1.54,-2.81 1.54,-5.33l0 -37.61c0,-2.52 -0.51,-4.29 -1.54,-5.32 -1.03,-1.03 -2.4,-1.54 -4.13,-1.54 -1.72,0 -3.1,0.51 -4.13,1.54 -1.02,1.03 -1.54,2.8 -1.54,5.32l0 37.61zm-10.94 -36.91c0,-5.64 1.42,-9.96 4.28,-12.98 2.85,-3.02 6.96,-4.53 12.33,-4.53 5.38,0 9.49,1.51 12.34,4.53 2.85,3.02 4.28,7.34 4.28,12.98l0 36.22c0,5.63 -1.43,9.96 -4.28,12.98 -2.85,3.02 -6.96,4.53 -12.34,4.53 -5.37,0 -9.48,-1.51 -12.33,-4.53 -2.86,-3.02 -4.28,-7.35 -4.28,-12.98l0 -36.22z"/>
  </g>
 </g>
</svg>
