<svg width="365" height="329" viewBox="0 0 365 329" fill="none" xmlns="http://www.w3.org/2000/svg">
<path fill-rule="evenodd" clip-rule="evenodd" d="M0.525909 243.628H364.392V328.814H0.525909V243.628Z" fill="#A2D9F7"/>
<path d="M8.36002 204.867C10.6983 204.867 12.407 205.486 13.4961 206.716C14.5753 207.955 15.1149 209.673 15.1149 211.872L11.9173 212.331V212.281C12.0572 210.962 11.7774 209.873 11.088 209.004C10.3985 208.144 9.44919 207.715 8.2401 207.715C7.46069 207.715 6.76122 207.895 6.14169 208.264C5.52215 208.634 5.03252 209.244 4.70277 210.093C4.43297 210.723 4.27309 211.792 4.22312 213.271C4.17316 214.75 4.1332 216.508 4.09323 218.527C4.1332 219.836 4.16317 221.105 4.20314 222.314C4.23312 223.533 4.33305 224.432 4.50292 225.042C4.76272 225.851 5.20239 226.491 5.81193 226.96C6.41148 227.43 7.21088 227.67 8.18015 227.67C9.39923 227.67 10.3285 227.3 10.988 226.551C11.6375 225.811 11.9473 224.672 11.9173 223.153L15.1149 223.703C15.015 228.249 12.6468 230.518 8.01027 230.518C6.99104 230.518 6.10171 230.388 5.34228 230.128C4.58286 229.878 3.93335 229.528 3.41374 229.089C2.88414 228.649 2.46446 228.159 2.1447 227.62C1.81494 227.08 1.59511 226.501 1.45521 225.891C1.35529 225.481 1.26536 224.972 1.2054 224.342C1.13545 223.713 1.09549 223.043 1.0755 222.314C1.05552 221.584 1.04552 220.845 1.02554 220.105C1.00555 219.356 0.99556 218.647 0.99556 217.967C0.99556 217.088 1.00555 216.188 1.02554 215.279C1.04552 214.36 1.08549 213.5 1.15544 212.691C1.21539 211.872 1.29533 211.142 1.37527 210.483C1.4652 209.813 1.5951 209.284 1.76498 208.874C2.20465 207.655 2.95408 206.686 4.02328 205.956C5.08248 205.227 6.53139 204.867 8.36002 204.867V204.867ZM24.9175 208.015V230.158H21.8199V208.015H16.284V205.167H30.5033V208.015H24.9175ZM39.0869 225.481C39.4566 223.863 39.8363 222.154 40.206 220.385C40.5758 218.607 40.9555 216.898 41.3252 215.279L43.7634 205.217H46.911L39.3966 234.525C39.1868 235.274 38.947 235.984 38.6572 236.663C38.3674 237.332 38.0077 237.932 37.568 238.432C37.1284 238.941 36.5788 239.351 35.9392 239.651C35.2997 239.961 34.5203 240.11 33.601 240.11H32.4319V237.422H33.2513C34.2605 237.422 35.0299 237.063 35.5296 236.353C36.0392 235.644 36.4688 234.525 36.7986 233.006L37.5181 230.208L30.8631 205.217H34.1606C34.6402 207.045 35.0799 208.874 35.4796 210.683C35.8893 212.491 36.309 214.31 36.7486 216.138C36.9185 216.848 37.1084 217.637 37.3082 218.507C37.5181 219.366 37.7179 220.225 37.9178 221.095C38.1276 221.954 38.3174 222.773 38.5073 223.553C38.6872 224.332 38.8371 224.982 38.937 225.481H39.0869V225.481ZM49.2492 236.553H46.3514V227.62L47.9302 227.36C48.3699 226.89 48.7196 226.421 48.9894 225.941C49.2592 225.471 49.489 224.902 49.6789 224.242C49.8588 223.583 49.9987 222.773 50.0886 221.824C50.1685 220.885 50.2285 219.666 50.2585 218.177L50.6182 205.167H63.9781V227.31L65.7468 227.36V236.553H62.859V230.158H49.2492V236.553V236.553ZM60.8805 208.015H53.566L53.2062 218.427C53.1363 220.545 52.9764 222.334 52.7266 223.803C52.4668 225.262 52.0571 226.441 51.4775 227.31H60.8805V208.015ZM81.0353 230.158V210.912H80.9853L71.8922 230.158H68.9044V205.217H72.0021V224.422H72.052C73.5609 221.235 75.0598 218.027 76.5387 214.799C78.0276 211.562 79.5264 208.374 81.0353 205.217H84.1329V230.158H81.0353V230.158ZM88.2998 212.431C88.2998 210.233 88.9193 208.474 90.1484 207.155C91.3775 205.826 93.376 205.167 96.1439 205.167H102.729V230.158H99.6213V219.136H96.5236C95.4744 219.136 94.6151 219.396 93.9556 219.926C93.296 220.445 92.7665 221.504 92.3967 223.103L90.718 230.158H87.5704L89.6088 222.284C89.8087 221.404 90.1084 220.595 90.5181 219.846C90.9278 219.106 91.4974 218.557 92.2468 218.227C90.8279 217.747 89.8187 217.008 89.2191 216.009C88.6096 215.019 88.2998 213.82 88.2998 212.431V212.431ZM96.5836 208.015C94.685 208.015 93.366 208.444 92.6166 209.304C91.8771 210.153 91.4974 211.262 91.4974 212.611C91.4974 213.89 91.9171 214.849 92.7465 215.489C93.5758 216.128 94.7849 216.448 96.3737 216.448H99.6213V208.015H96.5836ZM133.296 211.922L130.288 218.377C129.809 219.386 129.319 220.395 128.809 221.395C128.3 222.394 127.81 223.383 127.33 224.372H125.652L122.744 218.477C122.604 218.207 122.404 217.787 122.134 217.208C121.865 216.628 121.575 216.019 121.265 215.379C120.965 214.74 120.655 214.13 120.376 213.55C120.086 212.971 119.876 212.551 119.736 212.281L119.686 212.331V230.158H116.589V205.217H119.586C119.786 205.626 120.046 206.156 120.346 206.825C120.655 207.485 120.995 208.204 121.345 208.984C121.705 209.763 122.074 210.583 122.464 211.442C122.854 212.301 123.263 213.161 123.663 214.01C124.243 215.289 124.792 216.468 125.312 217.537C125.852 218.607 126.251 219.426 126.521 219.996H126.571L129.729 213.251L133.656 205.217H136.543V230.158H133.446V211.922H133.296V211.922ZM147.945 204.867C149.993 204.867 151.582 205.367 152.711 206.366C153.86 207.365 154.53 208.774 154.73 210.603C154.76 210.972 154.79 211.352 154.81 211.722C154.82 212.092 154.83 212.471 154.83 212.841V218.427H143.558C143.558 218.766 143.568 219.086 143.578 219.386C143.598 219.696 143.608 220.016 143.608 220.355C143.608 221.235 143.628 222.134 143.688 223.043C143.738 223.963 143.848 224.652 144.018 225.132C144.567 226.82 145.787 227.67 147.705 227.67C149.004 227.67 149.963 227.29 150.573 226.531C151.192 225.761 151.542 224.762 151.602 223.503L154.78 224.112C154.61 226.181 153.92 227.76 152.711 228.859C151.512 229.958 149.804 230.518 147.595 230.518C146.546 230.518 145.627 230.378 144.867 230.108C144.098 229.838 143.458 229.488 142.929 229.069C142.409 228.639 141.979 228.149 141.65 227.59C141.33 227.03 141.1 226.471 140.97 225.891C140.86 225.481 140.78 224.972 140.71 224.342C140.64 223.713 140.6 223.043 140.58 222.314C140.57 221.584 140.55 220.845 140.53 220.105C140.52 219.356 140.511 218.647 140.511 217.967C140.511 217.088 140.52 216.208 140.53 215.329C140.55 214.45 140.59 213.6 140.66 212.791C140.73 211.972 140.81 211.242 140.89 210.583C140.97 209.923 141.1 209.374 141.27 208.924C141.75 207.675 142.519 206.686 143.568 205.956C144.627 205.227 146.076 204.867 147.945 204.867V204.867ZM144.118 210.063C143.908 210.603 143.788 211.362 143.738 212.331C143.688 213.301 143.638 214.49 143.608 215.889H151.682V213.231C151.682 212.521 151.642 211.822 151.552 211.162C151.472 210.493 151.282 209.913 150.993 209.394C150.703 208.884 150.303 208.484 149.793 208.164C149.274 207.865 148.604 207.715 147.745 207.715C147.006 207.715 146.296 207.875 145.657 208.214C145.007 208.564 144.497 209.174 144.118 210.063ZM160.266 236.553H157.368V227.62L158.947 227.36C159.386 226.89 159.736 226.421 160.016 225.941C160.286 225.471 160.515 224.902 160.695 224.242C160.885 223.583 161.015 222.773 161.105 221.824C161.185 220.885 161.245 219.666 161.285 218.177L161.635 205.167H174.995V227.31L176.773 227.36V236.553H173.875V230.158H160.266V236.553V236.553ZM171.897 208.015H164.582L164.223 218.427C164.163 220.545 164.003 222.334 163.743 223.803C163.493 225.262 163.073 226.441 162.504 227.31H171.897V208.015V208.015ZM192.062 230.158V210.912H192.002L182.919 230.158H179.921V205.217H183.018V224.422H183.068C184.587 221.235 186.086 218.027 187.565 214.799C189.044 211.562 190.543 208.374 192.062 205.217H195.159V230.158H192.062V230.158ZM199.316 209.533C199.756 208.085 200.575 206.945 201.754 206.106C202.943 205.277 204.452 204.867 206.281 204.867C208.479 204.867 210.178 205.367 211.377 206.366C212.586 207.365 213.186 209.114 213.186 211.622V230.158H210.038V227.92H209.988C209.239 228.969 208.399 229.658 207.47 229.978C206.541 230.298 205.552 230.458 204.502 230.458C203.413 230.458 202.514 230.258 201.784 229.848C201.055 229.448 200.465 228.909 200.006 228.249C199.546 227.59 199.216 226.84 199.016 225.991C198.817 225.142 198.707 224.262 198.707 223.353C198.707 222.404 198.817 221.454 199.016 220.505C199.216 219.556 199.586 218.707 200.136 217.947C200.675 217.178 201.385 216.558 202.264 216.068C203.143 215.569 204.282 215.329 205.671 215.329H210.088V211.642C210.088 210.453 209.818 209.493 209.279 208.784C208.729 208.065 207.68 207.715 206.121 207.715C205.382 207.715 204.612 207.925 203.813 208.344C203.023 208.764 202.504 209.473 202.264 210.453L199.316 209.533V209.533ZM206.401 218.067C205.122 218.067 204.033 218.447 203.143 219.216C202.254 219.976 201.804 221.305 201.804 223.203C201.804 224.482 202.104 225.531 202.694 226.321C203.283 227.12 204.282 227.52 205.691 227.52C207.04 227.52 208.11 227.14 208.899 226.401C209.688 225.651 210.088 224.572 210.088 223.153V218.067H206.401ZM238.277 230.158V207.915H230.143V230.158H227.045V205.167H241.375V230.158H238.277V230.158ZM252.826 207.915C251.507 207.915 250.488 208.344 249.738 209.204C249.009 210.063 248.629 211.192 248.629 212.581V222.654C248.629 224.003 248.959 225.142 249.618 226.071C250.278 227 251.307 227.47 252.726 227.47C254.675 227.47 255.904 226.501 256.403 224.582C256.573 223.873 256.683 222.863 256.733 221.564C256.783 220.265 256.813 218.856 256.813 217.338C256.813 215.749 256.783 214.38 256.733 213.231C256.683 212.082 256.553 211.172 256.353 210.493C256.093 209.543 255.664 208.884 255.094 208.494C254.525 208.105 253.765 207.915 252.826 207.915V207.915ZM253.725 204.867C254.255 204.867 254.844 204.947 255.504 205.097C256.163 205.247 256.773 205.536 257.342 205.956C257.912 206.386 258.422 206.995 258.871 207.785C259.321 208.584 259.621 209.623 259.761 210.912C259.861 211.962 259.911 213.021 259.911 214.08C259.911 215.149 259.911 216.278 259.911 217.457C259.911 219.326 259.871 221.045 259.811 222.614C259.741 224.192 259.501 225.531 259.101 226.651C258.701 227.77 258.072 228.689 257.213 229.398C256.363 230.108 255.094 230.458 253.415 230.458C252.236 230.458 251.257 230.218 250.468 229.728C249.678 229.239 249.109 228.669 248.739 228.029H248.629V239.961H245.531V205.217H248.629V207.395H248.739C249.299 206.606 249.948 205.986 250.648 205.536C251.347 205.087 252.376 204.867 253.725 204.867V204.867ZM271.052 204.867C272.961 204.867 274.43 205.237 275.469 205.986C276.498 206.726 277.228 207.655 277.637 208.774C277.937 209.653 278.137 210.773 278.217 212.131C278.297 213.48 278.347 214.839 278.347 216.188V218.677C278.347 219.596 278.327 220.495 278.297 221.395C278.257 222.294 278.187 223.253 278.087 224.262C277.957 225.521 277.637 226.551 277.148 227.36C276.648 228.179 276.058 228.809 275.369 229.269C274.669 229.728 273.91 230.048 273.101 230.238C272.281 230.418 271.482 230.518 270.702 230.518C268.624 230.518 267.075 230.068 266.066 229.169C265.047 228.269 264.357 227.18 264.017 225.891C263.918 225.481 263.838 224.972 263.768 224.342C263.698 223.713 263.648 223.043 263.618 222.314C263.578 221.584 263.568 220.845 263.568 220.105C263.568 219.356 263.568 218.647 263.568 217.967C263.568 217.088 263.578 216.198 263.588 215.299C263.608 214.41 263.648 213.55 263.718 212.741C263.788 211.922 263.858 211.192 263.948 210.533C264.028 209.873 264.157 209.334 264.327 208.924C264.767 207.715 265.546 206.726 266.645 205.986C267.755 205.237 269.224 204.867 271.052 204.867V204.867ZM270.982 207.715C270.203 207.715 269.473 207.875 268.794 208.214C268.114 208.554 267.595 209.164 267.225 210.033C266.985 210.643 266.835 211.582 266.765 212.821C266.695 214.08 266.665 215.569 266.665 217.288V218.906C266.665 220.285 266.675 221.524 266.715 222.604C266.745 223.683 266.865 224.512 267.065 225.092C267.575 226.81 268.884 227.67 270.982 227.67C271.962 227.67 272.801 227.38 273.49 226.81C274.19 226.231 274.649 225.461 274.889 224.482C274.989 223.873 275.079 222.973 275.149 221.794C275.209 220.605 275.249 219.386 275.249 218.097C275.249 217.388 275.239 216.638 275.219 215.869C275.199 215.089 275.189 214.35 275.169 213.63C275.149 212.921 275.109 212.291 275.039 211.712C274.979 211.142 274.889 210.703 274.789 210.393C274.52 209.513 274.04 208.854 273.37 208.394C272.691 207.935 271.892 207.715 270.982 207.715V207.715ZM289.039 204.867C291.077 204.867 292.666 205.367 293.805 206.366C294.944 207.365 295.614 208.774 295.814 210.603C295.843 210.972 295.873 211.352 295.893 211.722C295.903 212.092 295.913 212.471 295.913 212.841V218.427H284.642C284.642 218.766 284.652 219.086 284.672 219.386C284.682 219.696 284.692 220.016 284.692 220.355C284.692 221.235 284.722 222.134 284.772 223.043C284.822 223.963 284.932 224.652 285.102 225.132C285.651 226.82 286.88 227.67 288.789 227.67C290.088 227.67 291.047 227.29 291.657 226.531C292.276 225.761 292.626 224.762 292.696 223.503L295.864 224.112C295.694 226.181 295.014 227.76 293.805 228.859C292.596 229.958 290.887 230.518 288.679 230.518C287.63 230.518 286.71 230.378 285.951 230.108C285.182 229.838 284.542 229.488 284.012 229.069C283.493 228.639 283.063 228.149 282.733 227.59C282.414 227.03 282.184 226.471 282.054 225.891C281.954 225.481 281.864 224.972 281.794 224.342C281.734 223.713 281.684 223.043 281.674 222.314C281.654 221.584 281.634 220.845 281.624 220.105C281.604 219.356 281.594 218.647 281.594 217.967C281.594 217.088 281.604 216.208 281.624 215.329C281.634 214.45 281.674 213.6 281.744 212.791C281.814 211.972 281.894 211.242 281.974 210.583C282.064 209.923 282.184 209.374 282.354 208.924C282.843 207.675 283.603 206.686 284.652 205.956C285.711 205.227 287.16 204.867 289.039 204.867V204.867ZM285.202 210.063C285.002 210.603 284.872 211.362 284.822 212.331C284.772 213.301 284.722 214.49 284.692 215.889H292.766V213.231C292.766 212.521 292.726 211.822 292.636 211.162C292.556 210.493 292.366 209.913 292.076 209.394C291.787 208.884 291.387 208.484 290.877 208.164C290.368 207.865 289.688 207.715 288.829 207.715C288.089 207.715 287.38 207.875 286.74 208.214C286.091 208.564 285.581 209.174 285.202 210.063ZM299.621 230.158V205.217H302.718V216.238H305.206C305.646 216.238 306.106 216.198 306.585 216.118C307.055 216.029 307.515 215.859 307.954 215.609C308.394 215.349 308.794 214.989 309.144 214.52C309.503 214.04 309.783 213.401 309.983 212.581L311.961 205.217H314.959L313.031 212.431C312.691 213.65 312.251 214.68 311.712 215.509C311.172 216.338 310.443 216.888 309.523 217.158C310.682 217.428 311.512 218.007 312.011 218.886C312.521 219.766 312.951 220.815 313.28 222.034L315.419 230.158H312.321L310.492 222.843C310.293 222.034 310.023 221.365 309.703 220.835C309.383 220.315 309.024 219.906 308.614 219.616C308.204 219.336 307.755 219.136 307.265 219.036C306.775 218.936 306.256 218.886 305.716 218.886H302.718V230.158H299.621V230.158ZM324.762 208.015V230.158H321.664V208.015H316.128V205.167H330.348V208.015H324.762ZM338.092 204.867C340 204.867 341.459 205.237 342.508 205.986C343.538 206.726 344.267 207.655 344.667 208.774C344.977 209.653 345.166 210.773 345.256 212.131C345.336 213.48 345.386 214.839 345.386 216.188V218.677C345.386 219.596 345.366 220.495 345.336 221.395C345.296 222.294 345.226 223.253 345.126 224.262C344.997 225.521 344.677 226.551 344.187 227.36C343.687 228.179 343.098 228.809 342.398 229.269C341.709 229.728 340.95 230.048 340.13 230.238C339.321 230.418 338.521 230.518 337.742 230.518C335.664 230.518 334.115 230.068 333.095 229.169C332.086 228.269 331.397 227.18 331.057 225.891C330.957 225.481 330.877 224.972 330.807 224.342C330.737 223.713 330.687 223.043 330.657 222.314C330.617 221.584 330.607 220.845 330.607 220.105C330.607 219.356 330.607 218.647 330.607 217.967C330.607 217.088 330.607 216.198 330.627 215.299C330.647 214.41 330.687 213.55 330.757 212.741C330.827 211.922 330.897 211.192 330.987 210.533C331.067 209.873 331.197 209.334 331.367 208.924C331.806 207.715 332.586 206.726 333.685 205.986C334.794 205.237 336.253 204.867 338.092 204.867V204.867ZM338.022 207.715C337.242 207.715 336.513 207.875 335.833 208.214C335.154 208.554 334.634 209.164 334.265 210.033C334.025 210.643 333.875 211.582 333.805 212.821C333.735 214.08 333.705 215.569 333.705 217.288V218.906C333.705 220.285 333.715 221.524 333.755 222.604C333.785 223.683 333.905 224.512 334.105 225.092C334.614 226.81 335.923 227.67 338.022 227.67C339.001 227.67 339.84 227.38 340.53 226.81C341.229 226.231 341.689 225.461 341.929 224.482C342.029 223.873 342.119 222.973 342.179 221.794C342.249 220.605 342.289 219.386 342.289 218.097C342.289 217.388 342.279 216.638 342.259 215.869C342.239 215.089 342.229 214.35 342.209 213.63C342.189 212.921 342.149 212.291 342.079 211.712C342.009 211.142 341.929 210.703 341.829 210.393C341.559 209.513 341.079 208.854 340.4 208.394C339.73 207.935 338.931 207.715 338.022 207.715V207.715ZM352.391 207.965V215.739H356.018C357.657 215.739 358.816 215.399 359.496 214.72C360.175 214.04 360.515 213.061 360.515 211.772C360.515 210.523 360.145 209.573 359.396 208.924C358.646 208.284 357.397 207.965 355.658 207.965H352.391ZM352.391 218.327V227.31H356.048C357.067 227.31 357.887 227.19 358.506 226.96C359.136 226.721 359.625 226.371 359.985 225.931C360.335 225.491 360.575 224.982 360.695 224.402C360.815 223.823 360.875 223.193 360.875 222.514C360.875 221.185 360.535 220.155 359.855 219.426C359.176 218.687 357.997 218.327 356.298 218.327H352.391V218.327ZM349.293 230.158V205.217H355.898C358.636 205.217 360.605 205.796 361.814 206.945C363.013 208.095 363.612 209.723 363.612 211.822C363.612 213.011 363.423 214.02 363.033 214.869C362.643 215.719 361.974 216.408 361.024 216.958H361.074C362.164 217.427 362.903 218.187 363.313 219.236C363.712 220.285 363.922 221.434 363.922 222.694C363.922 225.371 363.233 227.28 361.864 228.429C360.495 229.578 358.486 230.158 355.848 230.158H349.293V230.158Z" fill="#2B2A29"/>
<path fill-rule="evenodd" clip-rule="evenodd" d="M208.18 60.4057C209.708 48.4248 210.108 45.3471 224.417 48.1749L226.786 64.9823C213.595 68.2398 218.332 69.7387 208.18 60.4057V60.4057ZM213.446 21.1753C149.504 3.43864 107.635 43.7283 81.1152 96.8483L34.5703 48.9244C38.4673 61.325 48.5797 81.7197 54.1455 94.6599C66.1265 122.589 56.7136 126.716 51.9072 152.466L80.046 109.948C109.983 132.431 117.008 152.586 159.236 164.847C193.611 174.83 233.88 159.551 254.974 134.22C241.524 128.415 248.429 145.342 236.388 125.537L230.243 135.229L219.091 127.365C217.253 129.524 217.153 140.895 196.938 127.105C216.803 113.056 243.743 74.0255 249.289 48.8444C240.925 35.9441 232.781 32.3369 220.85 23.1838C240.455 -0.858125 257.343 3.78837 283.543 13.1513C257.093 -12.4894 237.318 7.37568 213.446 21.1753V21.1753Z" fill="#5B5B5B"/>
<path fill-rule="evenodd" clip-rule="evenodd" d="M301.709 27.2507L310.283 49.4739L325.541 48.9543L330.348 29.519C317.567 22.3344 313.92 27.2607 301.709 27.2507V27.2507Z" fill="#EF7F1A"/>
<path d="M217.273 70.3882C224.348 70.3882 230.083 64.6528 230.083 57.5779C230.083 50.5029 224.348 44.7675 217.273 44.7675C210.198 44.7675 204.462 50.5029 204.462 57.5779C204.462 64.6528 210.198 70.3882 217.273 70.3882Z" fill="#FEFEFE" stroke="#FEFEFE" stroke-width="0.569571" stroke-miterlimit="22.9256"/>
<path d="M25.9568 256.658C30.6033 256.658 33.9707 257.927 36.0691 260.445C38.1576 262.973 39.2068 266.271 39.2068 270.338L32.4119 271.547C32.4719 268.909 31.9922 266.81 30.993 265.261C29.9837 263.713 28.285 262.943 25.8768 262.943C24.4978 262.943 23.3787 263.253 22.5193 263.882C21.66 264.522 20.9805 265.301 20.5009 266.251C20.0112 267.2 19.6815 268.249 19.5116 269.388C19.3317 270.537 19.2518 271.627 19.2518 272.656V302.853C19.2518 303.713 19.3317 304.642 19.5116 305.641C19.6815 306.65 20.0112 307.57 20.5009 308.399C20.9805 309.228 21.64 309.928 22.4794 310.507C23.3088 311.077 24.4079 311.367 25.7869 311.367C28.0252 311.367 29.674 310.677 30.7332 309.298C31.7924 307.929 32.3519 305.751 32.4119 302.763L39.3767 303.972C39.2667 308.269 38.0976 311.627 35.8893 314.035C33.6809 316.443 30.3734 317.642 25.9568 317.642C21.4302 317.642 18.0427 316.383 15.8144 313.865C13.5761 311.337 12.4569 307.779 12.4569 303.193V273.605C12.4569 271.487 12.6368 269.408 13.0165 267.37C13.3862 265.331 14.0557 263.533 15.035 261.954C16.0142 260.375 17.3832 259.096 19.1619 258.127C20.9405 257.148 23.2088 256.658 25.9568 256.658V256.658ZM67.7053 317.042L59.2217 290.812H52.7965V317.042H46.0017V257.178H59.1218C63.9781 257.178 67.5454 258.586 69.8437 261.394C72.122 264.202 73.2611 268.469 73.2611 274.205C73.2611 277.652 72.7515 280.69 71.7223 283.328C70.7031 285.966 68.6346 287.994 65.5569 289.433L74.6401 317.042H67.7053V317.042ZM66.4663 274.205C66.4663 272.606 66.3563 271.137 66.1265 269.818C65.8967 268.499 65.457 267.37 64.7975 266.421C64.138 265.481 63.2587 264.742 62.1695 264.232C61.0803 263.713 59.6714 263.453 57.9527 263.453H52.7965V284.527H58.5622C60.111 284.527 61.4001 284.287 62.4293 283.798C63.4585 283.308 64.2779 282.608 64.8774 281.689C65.477 280.77 65.8967 279.681 66.1265 278.422C66.3563 277.163 66.4663 275.754 66.4663 274.205ZM81.6048 317.042V257.178H107.246V263.453H88.3997V283.498H104.747V289.773H88.3997V310.767H107.246V317.042H81.6048V317.042ZM134.935 317.042L132.187 303.713H118.857L116.189 317.042H109.654L122.384 257.178H128.739L141.65 317.042H134.935V317.042ZM125.302 269.478L122.814 283.408L119.966 297.427H130.978L128.06 283.238L125.652 269.478H125.302V269.478ZM157.038 263.453V317.042H150.243V263.453H140.101V257.178H167.19V263.453H157.038ZM172.267 317.042V257.178H179.061V317.042H172.267V317.042ZM204.522 317.132H197.128L185.946 257.178H192.911L197.378 282.469L200.735 303.283H200.995L204.432 282.289L208.999 257.178H215.964L204.522 317.132V317.132ZM222.499 317.042V257.178H248.129V263.453H229.294V283.498H245.631V289.773H229.294V310.767H248.129V317.042H222.499V317.042ZM274.45 285.646C277.088 286.455 278.876 288.074 279.826 290.512C280.775 292.941 281.244 295.908 281.244 299.406C281.244 305.601 279.965 310.088 277.417 312.876C274.869 315.654 270.892 317.042 265.506 317.042H253.975V257.178H266.626C271.782 257.178 275.429 258.557 277.547 261.304C279.666 264.062 280.725 267.959 280.725 273.006C280.725 276.153 280.265 278.671 279.356 280.53C278.437 282.399 276.798 283.987 274.45 285.306V285.646V285.646ZM274.709 298.726C274.709 295.449 274.09 292.931 272.861 291.152C271.622 289.373 269.264 288.484 265.766 288.484H260.77V310.937H266.106C267.994 310.937 269.503 310.607 270.622 309.948C271.742 309.288 272.601 308.399 273.201 307.28C273.8 306.161 274.21 304.872 274.41 303.413C274.61 301.944 274.709 300.385 274.709 298.726V298.726ZM274.19 272.966C274.19 269.878 273.52 267.53 272.171 265.891C270.822 264.272 268.574 263.453 265.416 263.453H260.77V282.548H265.336C268.484 282.548 270.752 281.719 272.131 280.07C273.5 278.412 274.19 276.043 274.19 272.966V272.966ZM316.598 300.955C316.598 306.291 315.549 310.407 313.46 313.305C311.362 316.193 307.795 317.642 302.748 317.642C297.812 317.642 294.305 316.293 292.206 313.605C290.118 310.907 289.069 307.35 289.069 302.933V273.435C289.069 271.317 289.258 269.248 289.628 267.24C290.008 265.231 290.687 263.443 291.697 261.864C292.696 260.285 294.085 259.026 295.863 258.077C297.642 257.138 299.97 256.658 302.838 256.658C305.816 256.658 308.214 257.078 310.013 257.907C311.821 258.736 313.21 259.906 314.19 261.394C315.159 262.883 315.808 264.632 316.118 266.64C316.438 268.649 316.598 270.857 316.598 273.265V300.955V300.955ZM309.803 272.196C309.803 271.167 309.733 270.108 309.583 269.019C309.443 267.939 309.144 266.95 308.684 266.061C308.224 265.182 307.525 264.442 306.575 263.843C305.626 263.243 304.377 262.943 302.838 262.943C301.11 262.943 299.791 263.353 298.881 264.192C297.962 265.002 297.272 265.991 296.813 267.14C296.353 268.289 296.083 269.488 295.993 270.777C295.913 272.076 295.863 273.136 295.863 273.995V302.963C295.863 303.822 295.953 304.742 296.123 305.701C296.293 306.68 296.643 307.6 297.153 308.459C297.672 309.298 298.372 310.008 299.261 310.547C300.15 311.097 301.309 311.367 302.748 311.367C304.177 311.367 305.356 311.077 306.276 310.507C307.195 309.928 307.904 309.218 308.424 308.329C308.944 307.44 309.303 306.42 309.503 305.291C309.703 304.142 309.803 302.963 309.803 301.764V272.196V272.196ZM345.666 285.646C348.304 286.455 350.093 288.074 351.042 290.512C351.991 292.941 352.461 295.908 352.461 299.406C352.461 305.601 351.192 310.088 348.634 312.876C346.086 315.654 342.109 317.042 336.723 317.042H325.201V257.178H337.842C342.998 257.178 346.645 258.557 348.764 261.304C350.882 264.062 351.951 267.959 351.951 273.006C351.951 276.153 351.492 278.671 350.572 280.53C349.653 282.399 348.014 283.987 345.666 285.306V285.646V285.646ZM345.926 298.726C345.926 295.449 345.306 292.931 344.077 291.152C342.848 289.373 340.48 288.484 336.983 288.484H331.996V310.937H337.322C339.221 310.937 340.72 310.607 341.839 309.948C342.958 309.288 343.817 308.399 344.417 307.28C345.026 306.161 345.426 304.872 345.626 303.413C345.826 301.944 345.926 300.385 345.926 298.726V298.726ZM345.406 272.966C345.406 269.878 344.737 267.53 343.388 265.891C342.039 264.272 339.79 263.453 336.633 263.453H331.996V282.548H336.553C339.701 282.548 341.969 281.719 343.348 280.07C344.727 278.412 345.406 276.043 345.406 272.966V272.966Z" fill="#2B2A29"/>
</svg>
