<svg width="232" height="107" viewBox="0 0 232 107" fill="none" xmlns="http://www.w3.org/2000/svg">
<path d="M28.08 5.8L28.08 31H20.88V18.724L15.264 28.156H14.616L9 18.724L9 31H1.8L1.8 5.8L9 5.8L14.94 16.06L20.88 5.8L28.08 5.8ZM46.2628 31L45.3988 27.76H38.1268L37.2628 31L29.5228 31L37.5508 5.8L45.9748 5.8L54.0028 31H46.2628ZM39.6748 22H43.8508L41.7628 14.26L39.6748 22ZM79.6264 16.132V19.12C79.6264 22.72 78.4624 25.696 76.1344 28.048C73.8304 30.4 70.7944 31.576 67.0264 31.576C63.0904 31.576 59.8744 30.328 57.3784 27.832C54.8824 25.312 53.6344 22.18 53.6344 18.436C53.6344 14.692 54.8824 11.56 57.3784 9.04C59.8744 6.496 62.9944 5.224 66.7384 5.224C69.0904 5.224 71.2384 5.752 73.1824 6.808C75.1504 7.864 76.6984 9.292 77.8264 11.092L71.7064 14.584C70.6984 13.048 69.0904 12.28 66.8824 12.28C65.0824 12.28 63.6184 12.856 62.4904 14.008C61.3864 15.16 60.8344 16.648 60.8344 18.472C60.8344 20.2 61.3504 21.712 62.3824 23.008C63.4144 24.28 65.0104 24.916 67.1704 24.916C69.6664 24.916 71.3344 24.028 72.1744 22.252H66.8104V16.132L79.6264 16.132ZM82.343 5.8L89.543 5.8V31H82.343V5.8ZM105.412 31.576C101.62 31.576 98.4759 30.316 95.9799 27.796C93.4839 25.276 92.2359 22.144 92.2359 18.4C92.2359 14.656 93.4839 11.524 95.9799 9.004C98.4759 6.484 101.62 5.224 105.412 5.224C107.74 5.224 109.888 5.776 111.856 6.88C113.824 7.984 115.36 9.472 116.464 11.344L110.2 14.944C109.792 14.128 109.156 13.48 108.292 13C107.428 12.52 106.468 12.28 105.412 12.28C103.636 12.28 102.196 12.856 101.092 14.008C99.9879 15.16 99.4359 16.624 99.4359 18.4C99.4359 20.176 99.9879 21.64 101.092 22.792C102.196 23.944 103.636 24.52 105.412 24.52C106.492 24.52 107.452 24.28 108.292 23.8C109.156 23.32 109.792 22.66 110.2 21.82L116.464 25.42C115.36 27.316 113.824 28.816 111.856 29.92C109.888 31.024 107.74 31.576 105.412 31.576ZM7.128 67L0 41.8H7.92L11.34 55.66L15.408 41.8H20.952L25.02 55.66L28.44 41.8H36.36L29.232 67H22.14L18.18 53.536L14.22 67H7.128ZM58.6342 63.796C56.0662 66.316 52.9102 67.576 49.1662 67.576C45.4222 67.576 42.2542 66.316 39.6622 63.796C37.0942 61.252 35.8102 58.12 35.8102 54.4C35.8102 50.68 37.0942 47.56 39.6622 45.04C42.2542 42.496 45.4222 41.224 49.1662 41.224C52.9102 41.224 56.0662 42.496 58.6342 45.04C61.2262 47.56 62.5222 50.68 62.5222 54.4C62.5222 58.12 61.2262 61.252 58.6342 63.796ZM44.7382 58.792C45.9142 59.944 47.3902 60.52 49.1662 60.52C50.9422 60.52 52.4062 59.944 53.5582 58.792C54.7342 57.616 55.3222 56.152 55.3222 54.4C55.3222 52.648 54.7342 51.196 53.5582 50.044C52.4062 48.868 50.9422 48.28 49.1662 48.28C47.3902 48.28 45.9142 48.868 44.7382 50.044C43.5862 51.196 43.0102 52.648 43.0102 54.4C43.0102 56.152 43.5862 57.616 44.7382 58.792ZM78.2179 66.964L74.2219 59.044H72.4219V66.964H65.2219L65.2219 41.764L75.3019 41.764C78.0619 41.764 80.3419 42.58 82.1419 44.212C83.9419 45.82 84.8419 47.956 84.8419 50.62C84.8419 52.108 84.4939 53.452 83.7979 54.652C83.1259 55.852 82.1779 56.824 80.9539 57.568L85.9219 66.964H78.2179ZM72.4219 48.388V53.068H75.1579C75.9259 53.092 76.5259 52.9 76.9579 52.492C77.4139 52.084 77.6419 51.508 77.6419 50.764C77.6419 50.02 77.4139 49.444 76.9579 49.036C76.5259 48.604 75.9259 48.388 75.1579 48.388H72.4219ZM94.9219 60.016H103.202V67H87.7219L87.7219 41.8H94.9219L94.9219 60.016ZM115.81 41.8C119.29 41.8 122.194 43.012 124.522 45.436C126.874 47.836 128.05 50.824 128.05 54.4C128.05 57.976 126.874 60.976 124.522 63.4C122.194 65.8 119.29 67 115.81 67H105.37L105.37 41.8L115.81 41.8ZM115.81 60.016C117.274 60.016 118.474 59.5 119.41 58.468C120.37 57.412 120.85 56.056 120.85 54.4C120.85 52.744 120.37 51.4 119.41 50.368C118.474 49.312 117.274 48.784 115.81 48.784H112.93V60.016H115.81ZM19.44 77.8V84.784H13.5L13.5 103H6.3L6.3 84.784H0.36L0.36 77.8H19.44ZM42.4271 99.796C39.8591 102.316 36.7031 103.576 32.9591 103.576C29.2151 103.576 26.0471 102.316 23.4551 99.796C20.8871 97.252 19.6031 94.12 19.6031 90.4C19.6031 86.68 20.8871 83.56 23.4551 81.04C26.0471 78.496 29.2151 77.224 32.9591 77.224C36.7031 77.224 39.8591 78.496 42.4271 81.04C45.0191 83.56 46.3151 86.68 46.3151 90.4C46.3151 94.12 45.0191 97.252 42.4271 99.796ZM28.5311 94.792C29.7071 95.944 31.1831 96.52 32.9591 96.52C34.7351 96.52 36.1991 95.944 37.3511 94.792C38.5271 93.616 39.1151 92.152 39.1151 90.4C39.1151 88.648 38.5271 87.196 37.3511 86.044C36.1991 84.868 34.7351 84.28 32.9591 84.28C31.1831 84.28 29.7071 84.868 28.5311 86.044C27.3791 87.196 26.8031 88.648 26.8031 90.4C26.8031 92.152 27.3791 93.616 28.5311 94.792ZM66.3308 101.092C64.4348 102.748 61.9628 103.576 58.9148 103.576C55.8668 103.576 53.3948 102.748 51.4988 101.092C49.6028 99.436 48.6548 97.264 48.6548 94.576V77.8H55.8548V93.784C55.8548 95.656 56.8748 96.592 58.9148 96.592C60.9548 96.592 61.9748 95.656 61.9748 93.784V77.8H69.1748V94.576C69.1748 97.264 68.2268 99.436 66.3308 101.092ZM85.4249 102.964L81.4289 95.044H79.6289V102.964H72.4289V77.764H82.5089C85.2689 77.764 87.5489 78.58 89.3489 80.212C91.1489 81.82 92.0489 83.956 92.0489 86.62C92.0489 88.108 91.7009 89.452 91.0049 90.652C90.3329 91.852 89.3849 92.824 88.1609 93.568L93.1289 102.964H85.4249ZM79.6289 84.388V89.068H82.3649C83.1329 89.092 83.7329 88.9 84.1649 88.492C84.6209 88.084 84.8489 87.508 84.8489 86.764C84.8489 86.02 84.6209 85.444 84.1649 85.036C83.7329 84.604 83.1329 84.388 82.3649 84.388H79.6289Z" fill="black"/>
<path fill-rule="evenodd" clip-rule="evenodd" d="M189.46 13.7904C182.342 15.4065 177.789 21.6886 179.097 29.109C180.342 36.2023 187.593 41.0947 194.743 39.5604C201.647 38.0826 206.301 31.3036 204.955 24.1663C203.634 17.1358 196.541 12.1868 189.46 13.7904Z" fill="#0196C2"/>
<path fill-rule="evenodd" clip-rule="evenodd" d="M153 64.9973L154.71 67.6447C158.502 65.6009 159.993 63.3371 164.734 66.148C167.797 67.9654 169.306 70.1726 173.079 71.4429C182.499 74.606 185.964 64.8966 192.636 64.9407C199.144 64.9784 202.785 74.6563 212.281 71.4932C216.041 70.2418 217.563 68.305 220.613 66.2424C225.153 63.1736 226.6 65.6324 230.134 67.651L231.97 65.0413C230.53 63.0919 225.763 60.4193 221.764 61.8468C218.211 63.1233 216.287 65.9468 213.017 67.4686C203.553 71.8768 201.094 61.5072 192.63 61.4569C184.077 61.4066 181.468 71.9963 172.318 67.3932C169.061 65.7582 167.237 62.9913 163.489 61.8468C159.961 60.7714 155.327 62.2807 153 64.9973Z" fill="#0196C2"/>
<path fill-rule="evenodd" clip-rule="evenodd" d="M153 83.9191L154.723 86.5225C158.289 84.5102 160.144 82.2778 164.59 84.9693C167.602 86.7929 169.312 89.019 172.903 90.2641C182.455 93.5718 185.756 84.0071 192.372 83.8248C199.094 83.6487 202.389 93.358 212.036 90.4591C218.154 88.6166 220.997 82.5356 225.858 83.9694C227.581 84.4788 228.882 86.0383 230.216 86.4408L231.945 83.938C229.895 81.2277 225.053 79.5235 221.745 80.7246C218.318 81.9634 216.211 84.8121 213.01 86.3842C203.949 90.8238 200.855 80.3661 192.63 80.3221C184.348 80.2844 181.009 90.9433 172.324 86.3087C169.054 84.5605 167.256 81.932 163.508 80.7309C160.251 79.6807 154.88 81.2465 153 83.9191Z" fill="#0196C2"/>
<path fill-rule="evenodd" clip-rule="evenodd" d="M153.043 74.3292C153.263 75.2348 154.1 76.417 154.785 77.0458C157.162 75.9454 159.458 72.6125 164.495 75.4674C167.526 77.1842 169.161 79.4732 172.808 80.7937C182.303 84.2272 185.844 74.5305 192.371 74.3732C199.138 74.216 202.307 83.9254 212.136 80.9824C215.89 79.8568 217.512 77.769 220.537 75.7567C225.694 72.3169 226.543 75.4863 230.24 77.0836L231.976 74.3921C222.952 66.2738 218.33 74.1657 213.261 76.8132C204.112 81.5986 200.961 70.9586 192.629 70.9146C184.391 70.8643 180.807 81.6867 172.078 76.7314C168.959 74.9581 166.997 72.3106 163.4 71.2605C159.803 70.1977 155.552 71.751 153.043 74.3292Z" fill="#0196C2"/>
<path fill-rule="evenodd" clip-rule="evenodd" d="M212.558 9.26904C210.778 9.49543 200.956 15.2934 203.037 17.5006C205.049 19.6324 211.74 10.8726 212.558 9.26904Z" fill="#0196C2"/>
<path fill-rule="evenodd" clip-rule="evenodd" d="M173.708 46.3897C175.211 45.8237 177.846 43.5033 179.16 42.4531C180.663 41.252 183.373 39.2271 182.38 36.9193C179.254 36.2842 174.676 43.8491 173.708 46.3897Z" fill="#0196C2"/>
<path fill-rule="evenodd" clip-rule="evenodd" d="M192.372 53.5713C193.013 52.5337 193.397 48.7921 193.548 47.3331C193.743 45.4278 194.403 41.6107 192.12 40.8938C189.114 40.9944 191.693 52.2696 192.372 53.5713Z" fill="#0196C2"/>
<path fill-rule="evenodd" clip-rule="evenodd" d="M206.307 26.4112L206.25 27.4551C207.848 28.87 210.262 28.499 212.312 28.2411C214.224 27.9959 217.092 27.7443 218.714 26.908C217.526 26.1659 208.546 24.2417 206.307 26.4112Z" fill="#0196C2"/>
<path fill-rule="evenodd" clip-rule="evenodd" d="M191.919 12.6712C195.969 12.6272 192.447 0.157211 192.372 0C191.705 0.974706 191.227 4.81065 191.051 6.21297C190.8 8.17496 190.196 11.3317 191.919 12.6712Z" fill="#0196C2"/>
<path fill-rule="evenodd" clip-rule="evenodd" d="M201.949 37.2273C201.924 40.535 210.124 45.5154 211.269 45.7607C210.577 44.0502 204.716 35.5671 202.565 36.6299L201.949 37.2273Z" fill="#0196C2"/>
<path fill-rule="evenodd" clip-rule="evenodd" d="M181.663 17.1991C182.933 15.256 179.537 13.0676 178.191 12.0741C176.959 11.1622 173.601 8.91099 172.28 8.55884C173.494 10.8667 178.864 18.2241 181.663 17.1991Z" fill="#0196C2"/>
<path fill-rule="evenodd" clip-rule="evenodd" d="M165.319 26.9208C168.243 27.4364 175.745 29.4047 177.927 27.1534L177.959 26.1473C176.192 24.2733 166.797 25.7323 165.319 26.9208Z" fill="#0196C2"/>
<path fill-rule="evenodd" clip-rule="evenodd" d="M211.791 34.9387C210.74 33.6307 206.697 31.4046 205.131 32.0838C204.848 34.2722 210.181 34.8318 211.791 34.9387Z" fill="#0196C2"/>
<path fill-rule="evenodd" clip-rule="evenodd" d="M184.593 46.5848C185.807 45.4529 187.894 41.4723 187.159 39.9254C185.071 39.5795 184.511 45.0001 184.593 46.5848Z" fill="#0196C2"/>
<path fill-rule="evenodd" clip-rule="evenodd" d="M186.832 13.5263C187.266 11.7404 184.958 8.11825 183.574 6.98633C183.681 8.21257 184.096 9.65891 184.474 10.8411C184.933 12.2749 185.203 13.6709 186.832 13.5263Z" fill="#0196C2"/>
<path fill-rule="evenodd" clip-rule="evenodd" d="M200.679 46.2701C200.572 45.1508 200.138 43.5535 199.773 42.4719C199.264 40.9879 199.044 39.6673 197.377 39.7302C197.107 41.6419 199.182 45.1131 200.679 46.2701Z" fill="#0196C2"/>
<path fill-rule="evenodd" clip-rule="evenodd" d="M178.808 21.8963C179.311 19.8211 173.563 19.3621 172.186 19.3809C172.551 19.9154 177.11 22.8647 178.808 21.8963Z" fill="#0196C2"/>
<path fill-rule="evenodd" clip-rule="evenodd" d="M198.377 13.8722C200.327 14.4884 201.358 9.07409 201.553 7.62146C200.308 8.44524 197.528 12.4447 198.377 13.8722Z" fill="#0196C2"/>
<path fill-rule="evenodd" clip-rule="evenodd" d="M205.647 22.1918C206.992 22.915 211.558 20.494 212.237 19.4249C210.765 19.5696 204.854 20.1732 205.647 22.1918Z" fill="#0196C2"/>
<path fill-rule="evenodd" clip-rule="evenodd" d="M172.859 35.2026C174.299 35.2404 179.707 34.1462 179.065 32.1402C177.556 31.505 173.519 34.1462 172.859 35.2026Z" fill="#0196C2"/>
</svg>
