<svg width="238" height="37" viewBox="0 0 238 37" fill="none" xmlns="http://www.w3.org/2000/svg">
<path d="M25.34 24.21C25.88 24.43 26.41 24.43 26.93 24.21C27.47 24.01 27.99 23.71 28.49 23.31C28.99 22.91 29.46 22.46 29.9 21.96C30.34 21.44 30.73 20.99 31.07 20.61C31.19 20.61 31.3 20.66 31.4 20.76C31.5 20.84 31.54 20.96 31.52 21.12C31.52 21.28 31.35 21.59 31.01 22.05C30.69 22.49 30.25 22.94 29.69 23.4C29.13 23.86 28.49 24.26 27.77 24.6C27.05 24.94 26.3 25.07 25.52 24.99C25.12 24.93 24.78 24.78 24.5 24.54C24.24 24.3 24.02 24 23.84 23.64C23.66 23.28 23.53 22.89 23.45 22.47C23.39 22.03 23.36 21.59 23.36 21.15C23.38 19.87 23.7 18.45 24.32 16.89C24.7 15.93 25.15 14.97 25.67 14.01L24.98 13.98C24.46 13.98 23.9 14 23.3 14.04C22.98 14.52 22.68 14.99 22.4 15.45C21.84 16.33 21.34 17.15 20.9 17.91C20.48 18.65 20.14 19.3 19.88 19.86C19.62 20.42 19.46 20.82 19.4 21.06L19.49 21.09C19.55 21.01 19.68 20.87 19.88 20.67C20.1 20.45 20.33 20.22 20.57 19.98C20.81 19.72 21.04 19.48 21.26 19.26C21.48 19.02 21.64 18.84 21.74 18.72C22 18.72 22.13 18.81 22.13 18.99C21.85 19.25 21.51 19.66 21.11 20.22C20.71 20.78 20.31 21.35 19.91 21.93C19.51 22.51 19.14 23.02 18.8 23.46C18.46 23.9 18.22 24.13 18.08 24.15C17.9 24.19 17.72 24.16 17.54 24.06C17.36 23.98 17.25 23.8 17.21 23.52C17.17 23.22 17.25 22.75 17.45 22.11C17.65 21.47 17.94 20.72 18.32 19.86C18.7 18.98 19.17 18.03 19.73 17.01C20.23 16.09 20.78 15.15 21.38 14.19C21.24 14.21 21.09 14.23 20.93 14.25C20.27 14.31 19.6 14.39 18.92 14.49C18.72 14.85 18.5 15.21 18.26 15.57C17.5 16.79 16.66 17.96 15.74 19.08C14.84 20.18 13.87 21.2 12.83 22.14C11.81 23.08 10.77 23.88 9.71 24.54C8.63 25.22 7.64 25.69 6.74 25.95C5.84 26.21 5.03 26.31 4.31 26.25C3.59 26.21 2.96 26.04 2.42 25.74C1.9 25.44 1.47 25.07 1.13 24.63C0.81 24.21 0.58 23.75 0.44 23.25C0.32 22.73 0.29 22.24 0.35 21.78C0.53 20.84 1 20.01 1.76 19.29C2.52 18.55 3.45 17.91 4.55 17.37C5.65 16.81 6.84 16.33 8.12 15.93C9.42 15.53 10.68 15.19 11.9 14.91C13.12 14.61 14.24 14.38 15.26 14.22C16.06 14.08 16.71 13.96 17.21 13.86C17.77 12.8 18.27 11.77 18.71 10.77C19.25 9.51 19.67 8.33 19.97 7.23C20.27 6.13 20.42 5.2 20.42 4.44C20.42 3.88 20.33 3.4 20.15 3C19.97 2.58 19.74 2.25 19.46 2.01C19.18 1.75 18.86 1.56 18.5 1.44C18.14 1.32 17.77 1.26 17.39 1.26C16.53 1.26 15.66 1.39 14.78 1.65C13.9 1.91 13.05 2.25 12.23 2.67C11.43 3.09 10.68 3.56 9.98 4.08C9.28 4.6 8.66 5.13 8.12 5.67C7.6 6.19 7.19 6.7 6.89 7.2C6.59 7.68 6.44 8.09 6.44 8.43C6.44 8.59 6.49 8.69 6.59 8.73C6.69 8.77 6.74 8.93 6.74 9.21C6.74 9.29 6.63 9.51 6.41 9.87C6.19 10.23 5.93 10.62 5.63 11.04C5.35 11.44 5.07 11.81 4.79 12.15C4.51 12.47 4.31 12.63 4.19 12.63C4.09 12.63 3.96 12.61 3.8 12.57C3.66 12.51 3.52 12.44 3.38 12.36C3.26 12.28 3.15 12.19 3.05 12.09C2.95 11.97 2.9 11.86 2.9 11.76C2.9 11.12 3.1 10.4 3.5 9.6C3.92 8.8 4.48 7.98 5.18 7.14C5.88 6.3 6.7 5.48 7.64 4.68C8.6 3.88 9.63 3.17 10.73 2.55C11.83 1.91 12.97 1.4 14.15 1.02C15.33 0.639999 16.5 0.449999 17.66 0.449999C18.2 0.449999 18.73 0.539999 19.25 0.719999C19.79 0.88 20.26 1.15 20.66 1.53C21.08 1.91 21.41 2.39 21.65 2.97C21.91 3.55 22.04 4.26 22.04 5.1C22.04 6.1 21.88 7.18 21.56 8.34C21.26 9.5 20.83 10.69 20.27 11.91C20.01 12.49 19.72 13.07 19.4 13.65C19.88 13.59 20.36 13.53 20.84 13.47C21.2 13.43 21.55 13.4 21.89 13.38L22.22 12.87C22.78 11.93 23.35 10.99 23.93 10.05C24.53 9.11 25.08 8.27 25.58 7.53C26.1 6.77 26.54 6.16 26.9 5.7C27.26 5.22 27.5 4.97 27.62 4.95C27.98 4.95 28.21 5.22 28.31 5.76C28.35 6 28.3 6.33 28.16 6.75C28.02 7.17 27.83 7.55 27.59 7.89C27.53 7.97 27.39 8.17 27.17 8.49C26.95 8.79 26.68 9.17 26.36 9.63C26.04 10.07 25.69 10.56 25.31 11.1C24.93 11.62 24.56 12.15 24.2 12.69L23.75 13.35H23.93C24.17 13.35 24.53 13.36 25.01 13.38C25.35 13.38 25.69 13.39 26.03 13.41C26.25 13.03 26.49 12.65 26.75 12.27C27.75 10.73 28.89 9.29 30.17 7.95C31.45 6.61 32.77 5.53 34.13 4.71C35.53 3.85 36.79 3.31 37.91 3.09C39.05 2.87 39.96 2.86 40.64 3.06C41.32 3.24 41.73 3.57 41.87 4.05C42.01 4.51 41.8 5 41.24 5.52C41.16 5.58 41.03 5.63 40.85 5.67C40.69 5.71 40.51 5.74 40.31 5.76C40.13 5.76 39.95 5.76 39.77 5.76H39.44C39.74 5.32 39.89 4.91 39.89 4.53C39.89 4.15 39.71 3.88 39.35 3.72C39.01 3.56 38.48 3.56 37.76 3.72C37.06 3.88 36.17 4.28 35.09 4.92C34.21 5.48 33.29 6.27 32.33 7.29C31.39 8.29 30.48 9.42 29.6 10.68C28.96 11.58 28.36 12.5 27.8 13.44C27.84 13.44 27.88 13.44 27.92 13.44C28.38 13.46 28.71 13.48 28.91 13.5L28.94 13.47C29.24 13.51 29.63 13.56 30.11 13.62C30.59 13.66 31.05 13.71 31.49 13.77C31.93 13.83 32.31 13.89 32.63 13.95C32.95 14.01 33.11 14.07 33.11 14.13C33.11 14.21 33.03 14.31 32.87 14.43C32.75 14.37 32.46 14.33 32 14.31C31.56 14.27 31.05 14.23 30.47 14.19C30.39 14.19 30.21 14.18 29.93 14.16C29.65 14.14 29.35 14.12 29.03 14.1C28.71 14.08 28.41 14.06 28.13 14.04C27.87 14.02 27.71 14.01 27.65 14.01H27.47C27.37 14.21 27.27 14.4 27.17 14.58C26.45 15.92 25.87 17.22 25.43 18.48C25.01 19.72 24.77 20.85 24.71 21.87C24.65 22.87 24.86 23.65 25.34 24.21ZM15.95 15.03C14.21 15.37 12.48 15.81 10.76 16.35C9.04 16.87 7.5 17.48 6.14 18.18C4.8 18.88 3.72 19.67 2.9 20.55C2.1 21.43 1.73 22.39 1.79 23.43C1.81 23.91 1.99 24.31 2.33 24.63C2.69 24.97 3.17 25.19 3.77 25.29C4.37 25.41 5.08 25.39 5.9 25.23C6.72 25.09 7.62 24.79 8.6 24.33C9.62 23.65 10.62 22.8 11.6 21.78C12.58 20.74 13.51 19.61 14.39 18.39C15.21 17.27 15.96 16.1 16.64 14.88C16.42 14.92 16.19 14.97 15.95 15.03ZM42.9327 22.23C42.9327 22.25 42.8527 22.34 42.6927 22.5C42.6527 22.54 42.5827 22.64 42.4827 22.8C42.3827 22.94 42.2627 23.09 42.1227 23.25C41.9827 23.39 41.8427 23.52 41.7027 23.64C41.5627 23.76 41.4327 23.82 41.3127 23.82C40.9727 23.82 40.6727 23.62 40.4127 23.22C40.1527 22.8 40.0227 22.32 40.0227 21.78C40.0227 21.2 40.0827 20.73 40.2027 20.37C40.3427 20.01 40.4527 19.76 40.5327 19.62L40.4727 19.56C40.4327 19.6 40.2827 19.75 40.0227 20.01C39.7827 20.25 39.4727 20.55 39.0927 20.91C38.7327 21.25 38.3227 21.63 37.8627 22.05C37.4227 22.45 36.9827 22.82 36.5427 23.16C36.1227 23.5 35.7227 23.78 35.3427 24C34.9627 24.22 34.6627 24.33 34.4427 24.33C34.2827 24.33 34.1027 24.29 33.9027 24.21C33.7227 24.13 33.5527 24.03 33.3927 23.91C33.2327 23.79 33.1027 23.66 33.0027 23.52C32.9027 23.36 32.8527 23.2 32.8527 23.04C32.8527 22.58 32.9727 21.97 33.2127 21.21C33.4727 20.43 33.7727 19.66 34.1127 18.9C34.3127 18.48 34.5227 18.08 34.7427 17.7C34.9627 17.32 35.1727 16.99 35.3727 16.71C35.5927 16.43 35.8027 16.21 36.0027 16.05C36.2027 15.87 36.3827 15.78 36.5427 15.78C36.6827 15.78 36.8427 15.91 37.0227 16.17C37.2027 16.41 37.2927 16.61 37.2927 16.77C37.2927 16.85 37.2827 16.9 37.2627 16.92C37.1027 17.14 36.8827 17.49 36.6027 17.97C36.3427 18.45 36.0727 18.96 35.7927 19.5C35.5327 20.04 35.3027 20.57 35.1027 21.09C34.9027 21.59 34.8027 21.98 34.8027 22.26C34.8027 22.4 34.8227 22.55 34.8627 22.71C34.9227 22.85 35.0327 22.92 35.1927 22.92C35.3127 22.92 35.4827 22.86 35.7027 22.74C35.9427 22.62 36.2027 22.46 36.4827 22.26C36.7827 22.06 37.0927 21.83 37.4127 21.57C37.7527 21.29 38.0927 20.99 38.4327 20.67C38.9527 20.17 39.4227 19.67 39.8427 19.17C40.2827 18.65 40.6427 18.24 40.9227 17.94C41.0427 17.84 41.1427 17.76 41.2227 17.7C41.3027 17.62 41.3727 17.58 41.4327 17.58C41.6927 17.58 41.9127 17.74 42.0927 18.06C42.2727 18.38 42.3627 18.7 42.3627 19.02C42.3627 19.5 42.2727 19.94 42.0927 20.34C41.9127 20.74 41.8227 21.18 41.8227 21.66C41.8227 21.9 41.9527 22.05 42.2127 22.11C42.4727 22.15 42.6727 22.17 42.8127 22.17C42.8927 22.17 42.9327 22.19 42.9327 22.23ZM63.6605 1.65C63.6605 2.23 63.4905 2.88 63.1505 3.6C62.8105 4.32 62.3505 5.08 61.7705 5.88C61.1905 6.66 60.5105 7.47 59.7305 8.31C58.9505 9.15 58.1205 9.97 57.2405 10.77C56.3205 11.61 55.3705 12.43 54.3905 13.23C53.4105 14.01 52.4605 14.73 51.5405 15.39C50.6405 16.05 49.7805 16.63 48.9605 17.13C48.1605 17.61 47.4705 17.97 46.8905 18.21C46.7705 18.39 46.5905 18.7 46.3505 19.14C46.1305 19.56 45.9105 20.02 45.6905 20.52C45.4705 21.02 45.2805 21.51 45.1205 21.99C44.9605 22.47 44.8805 22.83 44.8805 23.07C44.8805 23.35 44.9405 23.57 45.0605 23.73C45.2005 23.87 45.3805 23.94 45.6005 23.94C45.9005 23.94 46.2505 23.84 46.6505 23.64C47.0705 23.42 47.4905 23.15 47.9105 22.83C48.3505 22.51 48.7805 22.15 49.2005 21.75C49.6205 21.35 49.9905 20.96 50.3105 20.58C50.6505 20.2 50.9205 19.86 51.1205 19.56C51.3405 19.24 51.4505 19 51.4505 18.84C51.4105 18.8 51.3505 18.74 51.2705 18.66C51.2105 18.56 51.1805 18.38 51.1805 18.12C51.1805 17.78 51.2305 17.51 51.3305 17.31C51.4505 17.09 51.6505 16.98 51.9305 16.98C52.3105 16.98 52.5605 17.06 52.6805 17.22C52.8005 17.38 52.8605 17.6 52.8605 17.88C52.8605 17.92 52.8505 17.96 52.8305 18C52.8305 18.02 52.8305 18.05 52.8305 18.09C52.8905 18.25 52.9405 18.4 52.9805 18.54C53.0405 18.68 53.0905 18.77 53.1305 18.81C53.2705 18.97 53.2205 19.07 52.9805 19.11C52.9205 19.11 52.8305 19.13 52.7105 19.17C52.5905 19.19 52.4605 19.21 52.3205 19.23C52.0205 19.75 51.6205 20.33 51.1205 20.97C50.6205 21.59 50.0605 22.17 49.4405 22.71C48.8405 23.25 48.2105 23.7 47.5505 24.06C46.8905 24.42 46.2505 24.6 45.6305 24.6C44.9905 24.6 44.4505 24.43 44.0105 24.09C43.5905 23.75 43.3805 23.25 43.3805 22.59C43.3805 21.97 43.5905 21.18 44.0105 20.22C44.4505 19.26 45.0405 18.2 45.7805 17.04C46.5205 15.88 47.3705 14.66 48.3305 13.38C49.2905 12.1 50.3005 10.85 51.3605 9.63C52.4405 8.39 53.5305 7.21 54.6305 6.09C55.7505 4.97 56.8105 3.99 57.8105 3.15C58.8105 2.29 59.7305 1.61 60.5705 1.11C61.4305 0.609999 62.1305 0.359999 62.6705 0.359999C63.0105 0.359999 63.2605 0.479999 63.4205 0.719999C63.5805 0.939999 63.6605 1.25 63.6605 1.65ZM62.7605 2.46C62.7605 2.24 62.7105 2.1 62.6105 2.04C62.5305 1.96 62.4005 1.92 62.2205 1.92C61.9805 1.92 61.6305 2.08 61.1705 2.4C60.7105 2.7 60.1905 3.1 59.6105 3.6C59.0305 4.08 58.4105 4.63 57.7505 5.25C57.1105 5.87 56.4905 6.49 55.8905 7.11C55.2905 7.71 54.7305 8.29 54.2105 8.85C53.6905 9.41 53.2805 9.87 52.9805 10.23C52.1405 11.25 51.2505 12.35 50.3105 13.53C49.3705 14.71 48.4905 15.89 47.6705 17.07C48.0305 16.91 48.5305 16.61 49.1705 16.17C49.8105 15.73 50.5205 15.2 51.3005 14.58C52.1005 13.94 52.9405 13.24 53.8205 12.48C54.7205 11.72 55.6105 10.93 56.4905 10.11C57.3305 9.33 58.1205 8.56 58.8605 7.8C59.6205 7.02 60.2905 6.29 60.8705 5.61C61.4505 4.93 61.9105 4.32 62.2505 3.78C62.5905 3.24 62.7605 2.8 62.7605 2.46ZM63.587 22.23C63.587 22.25 63.507 22.34 63.347 22.5C63.307 22.54 63.237 22.64 63.137 22.8C63.037 22.94 62.917 23.09 62.777 23.25C62.637 23.39 62.497 23.52 62.357 23.64C62.217 23.76 62.087 23.82 61.967 23.82C61.627 23.82 61.327 23.62 61.067 23.22C60.807 22.8 60.677 22.32 60.677 21.78C60.677 21.2 60.737 20.73 60.857 20.37C60.997 20.01 61.107 19.76 61.187 19.62L61.127 19.56C61.087 19.6 60.937 19.75 60.677 20.01C60.437 20.25 60.127 20.55 59.747 20.91C59.387 21.25 58.977 21.63 58.517 22.05C58.077 22.45 57.637 22.82 57.197 23.16C56.777 23.5 56.377 23.78 55.997 24C55.617 24.22 55.317 24.33 55.097 24.33C54.937 24.33 54.757 24.29 54.557 24.21C54.377 24.13 54.207 24.03 54.047 23.91C53.887 23.79 53.757 23.66 53.657 23.52C53.557 23.36 53.507 23.2 53.507 23.04C53.507 22.58 53.627 21.97 53.867 21.21C54.127 20.43 54.427 19.66 54.767 18.9C54.967 18.48 55.177 18.08 55.397 17.7C55.617 17.32 55.827 16.99 56.027 16.71C56.247 16.43 56.457 16.21 56.657 16.05C56.857 15.87 57.037 15.78 57.197 15.78C57.337 15.78 57.497 15.91 57.677 16.17C57.857 16.41 57.947 16.61 57.947 16.77C57.947 16.85 57.937 16.9 57.917 16.92C57.757 17.14 57.537 17.49 57.257 17.97C56.997 18.45 56.727 18.96 56.447 19.5C56.187 20.04 55.957 20.57 55.757 21.09C55.557 21.59 55.457 21.98 55.457 22.26C55.457 22.4 55.477 22.55 55.517 22.71C55.577 22.85 55.687 22.92 55.847 22.92C55.967 22.92 56.137 22.86 56.357 22.74C56.597 22.62 56.857 22.46 57.137 22.26C57.437 22.06 57.747 21.83 58.067 21.57C58.407 21.29 58.747 20.99 59.087 20.67C59.607 20.17 60.077 19.67 60.497 19.17C60.937 18.65 61.297 18.24 61.577 17.94C61.697 17.84 61.797 17.76 61.877 17.7C61.957 17.62 62.027 17.58 62.087 17.58C62.347 17.58 62.567 17.74 62.747 18.06C62.927 18.38 63.017 18.7 63.017 19.02C63.017 19.5 62.927 19.94 62.747 20.34C62.567 20.74 62.477 21.18 62.477 21.66C62.477 21.9 62.607 22.05 62.867 22.11C63.127 22.15 63.327 22.17 63.467 22.17C63.547 22.17 63.587 22.19 63.587 22.23ZM67.8148 23.13C67.8148 23.03 67.7648 22.91 67.6648 22.77C67.5848 22.63 67.4748 22.49 67.3348 22.35C67.2148 22.21 67.0848 22.1 66.9448 22.02C66.8048 21.92 66.6848 21.87 66.5848 21.87C66.5248 21.87 66.4348 21.91 66.3148 21.99C66.2148 22.07 66.1148 22.17 66.0148 22.29C65.9148 22.41 65.8248 22.53 65.7448 22.65C65.6848 22.77 65.6548 22.86 65.6548 22.92C65.6548 23.02 65.6848 23.23 65.7448 23.55C65.8248 23.87 65.8848 24.08 65.9248 24.18C65.7848 24.52 65.6448 24.87 65.5048 25.23C65.3648 25.61 65.1848 25.95 64.9648 26.25C64.8648 26.41 64.7148 26.56 64.5148 26.7C64.3348 26.84 64.1548 26.97 63.9748 27.09C63.7948 27.21 63.6348 27.32 63.4948 27.42C63.3348 27.54 63.2448 27.63 63.2248 27.69C63.2248 27.77 63.2648 27.82 63.3448 27.84C63.4048 27.86 63.4548 27.87 63.4948 27.87C63.9148 27.87 64.3548 27.68 64.8148 27.3C65.2948 26.92 65.7348 26.48 66.1348 25.98C66.5348 25.5 66.8748 25.03 67.1548 24.57C67.4548 24.11 67.6348 23.8 67.6948 23.64C67.7148 23.54 67.7348 23.46 67.7548 23.4C67.7948 23.32 67.8148 23.23 67.8148 23.13ZM94.1907 18.27C94.1907 18.61 94.1307 19.06 94.0107 19.62C93.9107 20.16 93.7907 20.7 93.6507 21.24C93.5107 21.76 93.3807 22.22 93.2607 22.62C93.1607 23 93.1107 23.2 93.1107 23.22C93.1107 23.34 93.1407 23.4 93.2007 23.4C93.2607 23.4 93.3507 23.35 93.4707 23.25C93.6107 23.13 93.7207 23.07 93.8007 23.07C93.8607 23.07 93.9007 23.11 93.9207 23.19C93.9407 23.25 93.9507 23.31 93.9507 23.37C93.9507 23.49 93.8607 23.63 93.6807 23.79C93.5007 23.93 93.2807 24.06 93.0207 24.18C92.7807 24.32 92.5307 24.44 92.2707 24.54C92.0107 24.64 91.8107 24.69 91.6707 24.69C91.2707 24.69 91.0707 24.34 91.0707 23.64C91.0707 23.28 91.1407 22.86 91.2807 22.38C91.4207 21.9 91.5807 21.42 91.7607 20.94C91.9407 20.44 92.1007 19.95 92.2407 19.47C92.3807 18.97 92.4507 18.52 92.4507 18.12C92.4507 17.84 92.3507 17.7 92.1507 17.7C91.8507 17.7 91.3907 17.95 90.7707 18.45C90.1507 18.95 89.5007 19.55 88.8207 20.25C88.2407 20.85 87.6907 21.47 87.1707 22.11C86.6707 22.75 86.2707 23.34 85.9707 23.88C85.9107 23.98 85.8007 24.01 85.6407 23.97C85.4807 23.91 85.3207 23.82 85.1607 23.7C85.0007 23.58 84.8607 23.44 84.7407 23.28C84.6407 23.12 84.6207 22.98 84.6807 22.86C84.7607 22.66 84.9007 22.38 85.1007 22.02C85.3207 21.64 85.5507 21.23 85.7907 20.79C86.0507 20.33 86.3107 19.87 86.5707 19.41C86.8507 18.93 87.1007 18.48 87.3207 18.06C87.5407 17.64 87.7207 17.28 87.8607 16.98C88.0007 16.66 88.0707 16.44 88.0707 16.32C88.0707 16.04 87.9307 15.9 87.6507 15.9C87.2507 15.9 86.7307 16.1 86.0907 16.5C85.4707 16.9 84.8007 17.4 84.0807 18C83.3807 18.58 82.6707 19.22 81.9507 19.92C81.2307 20.6 80.5807 21.24 80.0007 21.84C79.4207 22.42 78.9407 22.91 78.5607 23.31C78.1807 23.71 77.9707 23.91 77.9307 23.91C77.8907 23.91 77.8207 23.88 77.7207 23.82C77.6007 23.76 77.4807 23.69 77.3607 23.61C77.2207 23.51 77.1007 23.41 77.0007 23.31C76.9007 23.21 76.8507 23.12 76.8507 23.04C76.8507 22.96 76.9507 22.75 77.1507 22.41C77.3307 22.05 77.5607 21.62 77.8407 21.12C78.1207 20.62 78.4307 20.1 78.7707 19.56C79.1307 19 79.4707 18.49 79.7907 18.03C80.1107 17.57 80.3907 17.19 80.6307 16.89C80.8707 16.57 81.0407 16.41 81.1407 16.41C81.3807 16.41 81.6407 16.45 81.9207 16.53C82.2007 16.61 82.3407 16.71 82.3407 16.83C82.3407 16.87 82.2707 17 82.1307 17.22C82.0107 17.42 81.8507 17.68 81.6507 18C81.4507 18.3 81.2207 18.64 80.9607 19.02C80.7207 19.38 80.4907 19.72 80.2707 20.04C80.8107 19.6 81.4107 19.1 82.0707 18.54C82.7507 17.98 83.4407 17.45 84.1407 16.95C84.8407 16.45 85.5207 16.03 86.1807 15.69C86.8607 15.35 87.4607 15.18 87.9807 15.18C88.3207 15.18 88.6507 15.29 88.9707 15.51C89.3107 15.73 89.4807 16.05 89.4807 16.47C89.4807 16.69 89.4007 17 89.2407 17.4C89.0807 17.78 88.8907 18.19 88.6707 18.63C88.4707 19.05 88.2607 19.45 88.0407 19.83C87.8207 20.21 87.6607 20.48 87.5607 20.64C87.6807 20.48 87.9307 20.19 88.3107 19.77C88.7107 19.35 89.1707 18.92 89.6907 18.48C90.2307 18.02 90.7907 17.62 91.3707 17.28C91.9507 16.94 92.4907 16.77 92.9907 16.77C93.4307 16.77 93.7407 16.89 93.9207 17.13C94.1007 17.37 94.1907 17.75 94.1907 18.27ZM114.871 1.65C114.871 2.23 114.701 2.88 114.361 3.6C114.021 4.32 113.561 5.08 112.981 5.88C112.401 6.66 111.721 7.47 110.941 8.31C110.161 9.15 109.331 9.97 108.451 10.77C107.531 11.61 106.581 12.43 105.601 13.23C104.621 14.01 103.671 14.73 102.751 15.39C101.851 16.05 100.991 16.63 100.171 17.13C99.3715 17.61 98.6815 17.97 98.1015 18.21C97.9815 18.39 97.8015 18.7 97.5615 19.14C97.3415 19.56 97.1215 20.02 96.9015 20.52C96.6815 21.02 96.4915 21.51 96.3315 21.99C96.1715 22.47 96.0915 22.83 96.0915 23.07C96.0915 23.35 96.1515 23.57 96.2715 23.73C96.4115 23.87 96.5915 23.94 96.8115 23.94C97.1115 23.94 97.4615 23.84 97.8615 23.64C98.2815 23.42 98.7015 23.15 99.1215 22.83C99.5615 22.51 99.9915 22.15 100.411 21.75C100.831 21.35 101.201 20.96 101.521 20.58C101.861 20.2 102.131 19.86 102.331 19.56C102.551 19.24 102.661 19 102.661 18.84C102.621 18.8 102.561 18.74 102.481 18.66C102.421 18.56 102.391 18.38 102.391 18.12C102.391 17.78 102.441 17.51 102.541 17.31C102.661 17.09 102.861 16.98 103.141 16.98C103.521 16.98 103.771 17.06 103.891 17.22C104.011 17.38 104.071 17.6 104.071 17.88C104.071 17.92 104.061 17.96 104.041 18C104.041 18.02 104.041 18.05 104.041 18.09C104.101 18.25 104.151 18.4 104.191 18.54C104.251 18.68 104.301 18.77 104.341 18.81C104.481 18.97 104.431 19.07 104.191 19.11C104.131 19.11 104.041 19.13 103.921 19.17C103.801 19.19 103.671 19.21 103.531 19.23C103.231 19.75 102.831 20.33 102.331 20.97C101.831 21.59 101.271 22.17 100.651 22.71C100.051 23.25 99.4215 23.7 98.7615 24.06C98.1015 24.42 97.4615 24.6 96.8415 24.6C96.2015 24.6 95.6615 24.43 95.2215 24.09C94.8015 23.75 94.5915 23.25 94.5915 22.59C94.5915 21.97 94.8015 21.18 95.2215 20.22C95.6615 19.26 96.2515 18.2 96.9915 17.04C97.7315 15.88 98.5815 14.66 99.5415 13.38C100.501 12.1 101.511 10.85 102.571 9.63C103.651 8.39 104.741 7.21 105.841 6.09C106.961 4.97 108.021 3.99 109.021 3.15C110.021 2.29 110.941 1.61 111.781 1.11C112.641 0.609999 113.341 0.359999 113.881 0.359999C114.221 0.359999 114.471 0.479999 114.631 0.719999C114.791 0.939999 114.871 1.25 114.871 1.65ZM113.971 2.46C113.971 2.24 113.921 2.1 113.821 2.04C113.741 1.96 113.611 1.92 113.431 1.92C113.191 1.92 112.841 2.08 112.381 2.4C111.921 2.7 111.401 3.1 110.821 3.6C110.241 4.08 109.621 4.63 108.961 5.25C108.321 5.87 107.701 6.49 107.101 7.11C106.501 7.71 105.941 8.29 105.421 8.85C104.901 9.41 104.491 9.87 104.191 10.23C103.351 11.25 102.461 12.35 101.521 13.53C100.581 14.71 99.7015 15.89 98.8815 17.07C99.2415 16.91 99.7415 16.61 100.381 16.17C101.021 15.73 101.731 15.2 102.511 14.58C103.311 13.94 104.151 13.24 105.031 12.48C105.931 11.72 106.821 10.93 107.701 10.11C108.541 9.33 109.331 8.56 110.071 7.8C110.831 7.02 111.501 6.29 112.081 5.61C112.661 4.93 113.121 4.32 113.461 3.78C113.801 3.24 113.971 2.8 113.971 2.46ZM113.988 17.76C114.128 17.94 114.078 18.03 113.838 18.03C113.778 18.03 113.688 18.05 113.568 18.09C113.448 18.11 113.318 18.13 113.178 18.15C112.878 18.67 112.478 19.25 111.978 19.89C111.478 20.51 110.918 21.09 110.298 21.63C109.698 22.17 109.068 22.63 108.408 23.01C107.748 23.37 107.108 23.55 106.488 23.55C105.848 23.55 105.308 23.39 104.868 23.07C104.448 22.73 104.238 22.23 104.238 21.57C104.238 21.19 104.338 20.75 104.538 20.25C104.738 19.75 105.008 19.24 105.348 18.72C105.688 18.2 106.058 17.69 106.458 17.19C106.878 16.69 107.298 16.24 107.718 15.84C108.138 15.44 108.538 15.12 108.918 14.88C109.298 14.64 109.628 14.52 109.908 14.52C110.008 14.52 110.088 14.56 110.148 14.64C110.208 14.7 110.268 14.78 110.328 14.88C110.388 14.96 110.438 15.04 110.478 15.12C110.538 15.18 110.598 15.21 110.658 15.21C110.798 15.21 111.028 15.17 111.348 15.09C111.668 15.01 111.958 14.97 112.218 14.97C112.598 14.97 112.938 15.12 113.238 15.42C113.538 15.7 113.688 16.17 113.688 16.83V17.01C113.748 17.17 113.798 17.33 113.838 17.49C113.898 17.63 113.948 17.72 113.988 17.76ZM112.608 15.9C112.608 15.82 112.508 15.78 112.308 15.78C111.888 15.78 111.428 15.89 110.928 16.11C110.428 16.33 109.928 16.62 109.428 16.98C108.948 17.32 108.478 17.72 108.018 18.18C107.558 18.62 107.148 19.07 106.788 19.53C106.428 19.99 106.138 20.44 105.918 20.88C105.718 21.32 105.618 21.7 105.618 22.02C105.618 22.58 105.898 22.86 106.458 22.86C106.738 22.86 107.068 22.76 107.448 22.56C107.848 22.34 108.258 22.07 108.678 21.75C109.118 21.43 109.548 21.07 109.968 20.67C110.408 20.27 110.798 19.88 111.138 19.5C111.498 19.12 111.778 18.78 111.978 18.48C112.198 18.16 112.308 17.92 112.308 17.76C112.268 17.72 112.208 17.66 112.128 17.58C112.068 17.5 112.038 17.33 112.038 17.07C112.038 16.73 112.128 16.46 112.308 16.26C112.508 16.06 112.608 15.94 112.608 15.9ZM123.551 17.79C123.551 18.19 123.441 18.64 123.221 19.14C123.001 19.64 122.741 20.12 122.441 20.58C122.161 21.04 121.881 21.44 121.601 21.78C121.321 22.1 121.131 22.29 121.031 22.35L121.091 22.53C121.171 22.49 121.301 22.43 121.481 22.35C121.661 22.27 121.851 22.19 122.051 22.11C122.251 22.03 122.441 21.96 122.621 21.9C122.801 21.82 122.941 21.75 123.041 21.69C123.121 21.63 123.191 21.6 123.251 21.6C123.351 21.6 123.401 21.66 123.401 21.78C123.401 21.9 123.321 22.02 123.161 22.14C123.081 22.22 122.811 22.41 122.351 22.71C121.911 22.99 121.381 23.29 120.761 23.61C120.141 23.91 119.471 24.18 118.751 24.42C118.051 24.68 117.401 24.81 116.801 24.81C116.561 24.81 116.281 24.81 115.961 24.81C115.641 24.81 115.351 24.79 115.091 24.75C114.291 25.97 113.441 27.26 112.541 28.62C111.621 30 110.761 31.27 109.961 32.43C109.141 33.59 108.441 34.55 107.861 35.31C107.261 36.07 106.881 36.45 106.721 36.45C106.521 36.45 106.331 36.29 106.151 35.97C105.971 35.65 105.881 35.27 105.881 34.83C105.881 34.07 106.081 33.13 106.481 32.01C106.861 30.89 107.391 29.69 108.071 28.41C108.731 27.15 109.501 25.86 110.381 24.54C111.261 23.22 112.191 21.99 113.171 20.85C114.151 19.69 115.151 18.67 116.171 17.79C117.211 16.91 118.211 16.27 119.171 15.87C119.711 15.07 120.171 14.41 120.551 13.89C120.931 13.35 121.171 13.01 121.271 12.87C121.431 12.67 121.601 12.49 121.781 12.33C121.961 12.15 122.151 12.06 122.351 12.06C122.491 12.06 122.561 12.12 122.561 12.24C122.561 12.36 122.411 12.71 122.111 13.29C121.811 13.85 121.401 14.57 120.881 15.45C120.921 15.45 120.951 15.45 120.971 15.45C120.991 15.43 121.021 15.42 121.061 15.42C122.721 15.42 123.551 16.21 123.551 17.79ZM122.411 17.58C122.411 17.06 122.261 16.68 121.961 16.44C121.681 16.18 121.321 16.05 120.881 16.05C120.721 16.05 120.601 16.06 120.521 16.08C119.881 17.14 119.171 18.3 118.391 19.56C117.611 20.82 116.821 22.07 116.021 23.31C115.961 23.41 115.901 23.5 115.841 23.58C115.801 23.64 115.751 23.72 115.691 23.82C115.931 23.78 116.211 23.73 116.531 23.67C116.871 23.61 117.201 23.54 117.521 23.46C117.841 23.38 118.141 23.3 118.421 23.22C118.701 23.12 118.911 23.03 119.051 22.95C119.251 22.83 119.531 22.61 119.891 22.29C120.271 21.97 120.641 21.57 121.001 21.09C121.381 20.61 121.711 20.07 121.991 19.47C122.271 18.87 122.411 18.24 122.411 17.58ZM118.511 16.83C117.651 17.33 116.751 18.04 115.811 18.96C114.891 19.88 113.991 20.9 113.111 22.02C112.231 23.14 111.401 24.31 110.621 25.53C109.841 26.77 109.151 27.95 108.551 29.07C107.951 30.21 107.481 31.24 107.141 32.16C106.801 33.08 106.631 33.8 106.631 34.32C106.631 34.5 106.641 34.66 106.661 34.8C106.661 34.94 106.711 35.01 106.811 35.01C106.831 35.01 106.961 34.84 107.201 34.5C107.421 34.16 107.721 33.7 108.101 33.12C108.461 32.56 108.881 31.9 109.361 31.14C109.841 30.4 110.341 29.61 110.861 28.77C111.381 27.93 111.921 27.07 112.481 26.19C113.021 25.33 113.541 24.5 114.041 23.7C114.781 22.52 115.541 21.34 116.321 20.16C117.101 18.96 117.831 17.85 118.511 16.83ZM134.573 22.23C134.573 22.25 134.493 22.34 134.333 22.5C134.293 22.54 134.223 22.64 134.123 22.8C134.023 22.94 133.903 23.09 133.763 23.25C133.623 23.39 133.483 23.52 133.343 23.64C133.203 23.76 133.073 23.82 132.953 23.82C132.613 23.82 132.313 23.62 132.053 23.22C131.793 22.8 131.663 22.32 131.663 21.78C131.663 21.2 131.723 20.73 131.843 20.37C131.983 20.01 132.093 19.76 132.173 19.62L132.113 19.56C132.073 19.6 131.923 19.75 131.663 20.01C131.423 20.25 131.113 20.55 130.733 20.91C130.373 21.25 129.963 21.63 129.503 22.05C129.063 22.45 128.623 22.82 128.183 23.16C127.763 23.5 127.363 23.78 126.983 24C126.603 24.22 126.303 24.33 126.083 24.33C125.923 24.33 125.743 24.29 125.543 24.21C125.363 24.13 125.193 24.03 125.033 23.91C124.873 23.79 124.743 23.66 124.643 23.52C124.543 23.36 124.493 23.2 124.493 23.04C124.493 22.58 124.613 21.97 124.853 21.21C125.113 20.43 125.413 19.66 125.753 18.9C125.953 18.48 126.163 18.08 126.383 17.7C126.603 17.32 126.813 16.99 127.013 16.71C127.233 16.43 127.443 16.21 127.643 16.05C127.843 15.87 128.023 15.78 128.183 15.78C128.323 15.78 128.483 15.91 128.663 16.17C128.843 16.41 128.933 16.61 128.933 16.77C128.933 16.85 128.923 16.9 128.903 16.92C128.743 17.14 128.523 17.49 128.243 17.97C127.983 18.45 127.713 18.96 127.433 19.5C127.173 20.04 126.943 20.57 126.743 21.09C126.543 21.59 126.443 21.98 126.443 22.26C126.443 22.4 126.463 22.55 126.503 22.71C126.563 22.85 126.673 22.92 126.833 22.92C126.953 22.92 127.123 22.86 127.343 22.74C127.583 22.62 127.843 22.46 128.123 22.26C128.423 22.06 128.733 21.83 129.053 21.57C129.393 21.29 129.733 20.99 130.073 20.67C130.593 20.17 131.063 19.67 131.483 19.17C131.923 18.65 132.283 18.24 132.563 17.94C132.683 17.84 132.783 17.76 132.863 17.7C132.943 17.62 133.013 17.58 133.073 17.58C133.333 17.58 133.553 17.74 133.733 18.06C133.913 18.38 134.003 18.7 134.003 19.02C134.003 19.5 133.913 19.94 133.733 20.34C133.553 20.74 133.463 21.18 133.463 21.66C133.463 21.9 133.593 22.05 133.853 22.11C134.113 22.15 134.313 22.17 134.453 22.17C134.533 22.17 134.573 22.19 134.573 22.23ZM138.801 23.13C138.801 23.03 138.751 22.91 138.651 22.77C138.571 22.63 138.461 22.49 138.321 22.35C138.201 22.21 138.071 22.1 137.931 22.02C137.791 21.92 137.671 21.87 137.571 21.87C137.511 21.87 137.421 21.91 137.301 21.99C137.201 22.07 137.101 22.17 137.001 22.29C136.901 22.41 136.811 22.53 136.731 22.65C136.671 22.77 136.641 22.86 136.641 22.92C136.641 23.02 136.671 23.23 136.731 23.55C136.811 23.87 136.871 24.08 136.911 24.18C136.771 24.52 136.631 24.87 136.491 25.23C136.351 25.61 136.171 25.95 135.951 26.25C135.851 26.41 135.701 26.56 135.501 26.7C135.321 26.84 135.141 26.97 134.961 27.09C134.781 27.21 134.621 27.32 134.481 27.42C134.321 27.54 134.231 27.63 134.211 27.69C134.211 27.77 134.251 27.82 134.331 27.84C134.391 27.86 134.441 27.87 134.481 27.87C134.901 27.87 135.341 27.68 135.801 27.3C136.281 26.92 136.721 26.48 137.121 25.98C137.521 25.5 137.861 25.03 138.141 24.57C138.441 24.11 138.621 23.8 138.681 23.64C138.701 23.54 138.721 23.46 138.741 23.4C138.781 23.32 138.801 23.23 138.801 23.13ZM157.377 15.12C157.117 15.52 156.947 16.05 156.867 16.71C156.787 17.37 156.727 18.06 156.687 18.78C156.647 19.5 156.587 20.19 156.507 20.85L156.477 21.06C157.377 20.14 158.117 19.3 158.697 18.54C159.397 17.62 159.977 16.85 160.437 16.23C160.897 15.59 161.297 15.11 161.637 14.79C161.997 14.47 162.407 14.33 162.867 14.37C163.067 14.39 163.247 14.45 163.407 14.55C163.567 14.63 163.587 14.81 163.467 15.09C163.327 15.45 163.057 15.91 162.657 16.47C162.257 17.03 161.827 17.64 161.367 18.3C160.927 18.96 160.517 19.65 160.137 20.37C159.757 21.09 159.527 21.8 159.447 22.5C159.387 22.6 159.397 22.69 159.477 22.77C159.557 22.83 159.657 22.86 159.777 22.86C159.997 22.78 160.307 22.59 160.707 22.29C161.107 21.97 161.507 21.63 161.907 21.27C162.327 20.89 162.717 20.53 163.077 20.19C163.457 19.85 163.727 19.6 163.887 19.44C163.947 19.42 164.007 19.43 164.067 19.47C164.147 19.51 164.157 19.62 164.097 19.8C163.797 20.1 163.447 20.46 163.047 20.88C162.647 21.28 162.227 21.69 161.787 22.11C161.347 22.51 160.897 22.88 160.437 23.22C159.977 23.56 159.537 23.8 159.117 23.94C158.777 24.04 158.507 24.04 158.307 23.94C158.127 23.82 158.057 23.51 158.097 23.01C158.097 22.67 158.157 22.29 158.277 21.87C158.417 21.43 158.577 20.99 158.757 20.55C158.937 20.09 159.127 19.66 159.327 19.26C159.547 18.84 159.737 18.48 159.897 18.18C159.997 17.98 160.077 17.81 160.137 17.67C159.877 18.05 159.577 18.44 159.237 18.84C158.797 19.36 158.357 19.86 157.917 20.34C157.477 20.82 157.067 21.26 156.687 21.66C156.507 21.86 156.347 22.03 156.207 22.17L156.057 22.44C155.917 22.76 155.767 22.88 155.607 22.8C155.467 22.72 155.447 22.57 155.547 22.35C155.647 21.61 155.667 20.92 155.607 20.28C155.547 19.76 155.487 19.27 155.427 18.81C155.387 18.87 155.347 18.94 155.307 19.02C155.027 19.56 154.697 20.12 154.317 20.7C153.937 21.28 153.527 21.82 153.087 22.32C152.647 22.8 152.167 23.21 151.647 23.55C151.127 23.89 150.577 24.09 149.997 24.15C149.477 24.23 149.097 24.12 148.857 23.82C148.637 23.5 148.527 23.14 148.527 22.74C148.527 22.32 148.627 21.93 148.827 21.57C149.027 21.21 149.307 21.02 149.667 21C149.807 20.98 149.927 20.99 150.027 21.03C150.147 21.05 150.237 21.17 150.297 21.39V21.51C150.217 21.79 150.187 22.03 150.207 22.23C150.227 22.41 150.277 22.56 150.357 22.68C150.437 22.8 150.527 22.89 150.627 22.95C150.747 22.99 150.857 23 150.957 22.98C151.417 22.92 151.847 22.72 152.247 22.38C152.667 22.02 153.087 21.55 153.507 20.97C153.927 20.37 154.357 19.66 154.797 18.84C154.957 18.56 155.117 18.26 155.277 17.94C155.217 17.6 155.167 17.27 155.127 16.95C155.047 16.45 155.047 15.99 155.127 15.57C155.287 14.93 155.457 14.51 155.637 14.31C155.837 14.09 156.157 13.99 156.597 14.01C156.697 14.01 156.807 14.04 156.927 14.1C157.067 14.16 157.177 14.25 157.257 14.37C157.357 14.47 157.417 14.59 157.437 14.73C157.477 14.85 157.457 14.98 157.377 15.12ZM175.352 17.49C175.112 17.77 174.722 18.22 174.182 18.84C173.642 19.44 172.922 20.14 172.022 20.94C171.562 21.34 171.092 21.73 170.612 22.11C170.132 22.49 169.652 22.83 169.172 23.13C168.692 23.41 168.212 23.64 167.732 23.82C167.272 23.98 166.832 24.06 166.412 24.06C165.692 24.06 165.102 23.85 164.642 23.43C164.182 22.99 163.952 22.36 163.952 21.54C163.952 20.62 164.182 19.7 164.642 18.78C165.102 17.86 165.652 17.04 166.292 16.32C166.932 15.58 167.572 14.99 168.212 14.55C168.872 14.09 169.402 13.86 169.802 13.86C170.082 13.86 170.312 13.96 170.492 14.16C170.692 14.34 170.882 14.49 171.062 14.61C171.242 14.73 171.462 14.86 171.722 15C171.982 15.14 172.112 15.37 172.112 15.69C172.112 16.05 171.892 16.43 171.452 16.83C171.012 17.21 170.482 17.58 169.862 17.94C169.262 18.3 168.622 18.62 167.942 18.9C167.282 19.18 166.722 19.38 166.262 19.5C166.042 19.92 165.862 20.34 165.722 20.76C165.582 21.18 165.512 21.57 165.512 21.93C165.512 22.33 165.602 22.65 165.782 22.89C165.982 23.11 166.242 23.22 166.562 23.22C166.882 23.22 167.232 23.15 167.612 23.01C168.012 22.87 168.422 22.68 168.842 22.44C169.262 22.18 169.682 21.89 170.102 21.57C170.542 21.25 170.972 20.91 171.392 20.55C172.172 19.87 172.892 19.18 173.552 18.48C174.232 17.78 174.742 17.2 175.082 16.74C175.262 16.74 175.372 16.83 175.412 17.01C175.472 17.17 175.452 17.33 175.352 17.49ZM171.002 15.87C171.002 15.73 170.952 15.61 170.852 15.51C170.772 15.41 170.572 15.36 170.252 15.36C170.072 15.36 169.852 15.44 169.592 15.6C169.332 15.74 169.052 15.94 168.752 16.2C168.472 16.44 168.182 16.73 167.882 17.07C167.602 17.41 167.332 17.77 167.072 18.15C167.452 18.07 167.872 17.93 168.332 17.73C168.792 17.51 169.212 17.28 169.592 17.04C169.992 16.8 170.322 16.57 170.582 16.35C170.862 16.13 171.002 15.97 171.002 15.87ZM182.14 19.71C182.08 19.81 181.83 20.11 181.39 20.61C180.95 21.09 180.36 21.64 179.62 22.26C179.06 22.74 178.47 23.16 177.85 23.52C177.23 23.86 176.65 24.03 176.11 24.03C175.77 24.03 175.45 23.92 175.15 23.7C174.87 23.46 174.73 23.11 174.73 22.65C174.73 22.27 174.89 21.83 175.21 21.33C175.55 20.83 175.91 20.34 176.29 19.86C176.69 19.36 177.05 18.91 177.37 18.51C177.71 18.09 177.88 17.78 177.88 17.58C177.88 17.44 177.72 17.37 177.4 17.37C177.14 17.37 176.84 17.39 176.5 17.43C176.18 17.47 175.82 17.49 175.42 17.49C174.98 17.49 174.62 17.4 174.34 17.22C174.06 17.04 173.92 16.78 173.92 16.44C173.92 16.22 174.04 15.92 174.28 15.54C174.54 15.14 174.85 14.76 175.21 14.4C175.57 14.02 175.95 13.69 176.35 13.41C176.75 13.13 177.11 12.99 177.43 12.99C178.05 12.99 178.36 13.16 178.36 13.5C178.36 13.6 178.25 13.81 178.03 14.13C177.83 14.45 177.57 14.78 177.25 15.12C176.97 15.44 176.72 15.73 176.5 15.99C176.28 16.25 176.17 16.4 176.17 16.44C176.17 16.54 176.28 16.6 176.5 16.62C176.74 16.64 177.03 16.65 177.37 16.65C177.93 16.65 178.4 16.77 178.78 17.01C179.16 17.23 179.35 17.61 179.35 18.15C179.35 18.45 179.18 18.83 178.84 19.29C178.52 19.75 178.16 20.21 177.76 20.67C177.38 21.13 177.02 21.56 176.68 21.96C176.36 22.34 176.2 22.62 176.2 22.8C176.2 23.08 176.32 23.22 176.56 23.22C176.8 23.22 177.16 23.1 177.64 22.86C178.14 22.62 178.68 22.27 179.26 21.81C179.56 21.57 179.86 21.31 180.16 21.03C180.48 20.73 180.77 20.46 181.03 20.22C181.31 19.96 181.54 19.74 181.72 19.56C181.92 19.36 182.05 19.23 182.11 19.17C182.21 19.17 182.25 19.24 182.23 19.38C182.23 19.5 182.2 19.61 182.14 19.71ZM196.73 18.27C196.73 18.61 196.67 19.06 196.55 19.62C196.45 20.16 196.33 20.7 196.19 21.24C196.05 21.76 195.92 22.22 195.8 22.62C195.7 23 195.65 23.2 195.65 23.22C195.65 23.34 195.68 23.4 195.74 23.4C195.8 23.4 195.89 23.35 196.01 23.25C196.15 23.13 196.26 23.07 196.34 23.07C196.4 23.07 196.44 23.11 196.46 23.19C196.48 23.25 196.49 23.31 196.49 23.37C196.49 23.49 196.4 23.63 196.22 23.79C196.04 23.93 195.82 24.06 195.56 24.18C195.32 24.32 195.07 24.44 194.81 24.54C194.55 24.64 194.35 24.69 194.21 24.69C193.81 24.69 193.61 24.34 193.61 23.64C193.61 23.28 193.68 22.86 193.82 22.38C193.96 21.9 194.12 21.42 194.3 20.94C194.48 20.44 194.64 19.95 194.78 19.47C194.92 18.97 194.99 18.52 194.99 18.12C194.99 17.84 194.89 17.7 194.69 17.7C194.39 17.7 193.93 17.95 193.31 18.45C192.69 18.95 192.04 19.55 191.36 20.25C190.78 20.85 190.23 21.47 189.71 22.11C189.21 22.75 188.81 23.34 188.51 23.88C188.45 23.98 188.34 24.01 188.18 23.97C188.02 23.91 187.86 23.82 187.7 23.7C187.54 23.58 187.4 23.44 187.28 23.28C187.18 23.12 187.16 22.98 187.22 22.86C187.3 22.66 187.44 22.38 187.64 22.02C187.86 21.64 188.09 21.23 188.33 20.79C188.59 20.33 188.85 19.87 189.11 19.41C189.39 18.93 189.64 18.48 189.86 18.06C190.08 17.64 190.26 17.28 190.4 16.98C190.54 16.66 190.61 16.44 190.61 16.32C190.61 16.04 190.47 15.9 190.19 15.9C189.79 15.9 189.27 16.1 188.63 16.5C188.01 16.9 187.34 17.4 186.62 18C185.92 18.58 185.21 19.22 184.49 19.92C183.77 20.6 183.12 21.24 182.54 21.84C181.96 22.42 181.48 22.91 181.1 23.31C180.72 23.71 180.51 23.91 180.47 23.91C180.43 23.91 180.36 23.88 180.26 23.82C180.14 23.76 180.02 23.69 179.9 23.61C179.76 23.51 179.64 23.41 179.54 23.31C179.44 23.21 179.39 23.12 179.39 23.04C179.39 22.96 179.49 22.75 179.69 22.41C179.87 22.05 180.1 21.62 180.38 21.12C180.66 20.62 180.97 20.1 181.31 19.56C181.67 19 182.01 18.49 182.33 18.03C182.65 17.57 182.93 17.19 183.17 16.89C183.41 16.57 183.58 16.41 183.68 16.41C183.92 16.41 184.18 16.45 184.46 16.53C184.74 16.61 184.88 16.71 184.88 16.83C184.88 16.87 184.81 17 184.67 17.22C184.55 17.42 184.39 17.68 184.19 18C183.99 18.3 183.76 18.64 183.5 19.02C183.26 19.38 183.03 19.72 182.81 20.04C183.35 19.6 183.95 19.1 184.61 18.54C185.29 17.98 185.98 17.45 186.68 16.95C187.38 16.45 188.06 16.03 188.72 15.69C189.4 15.35 190 15.18 190.52 15.18C190.86 15.18 191.19 15.29 191.51 15.51C191.85 15.73 192.02 16.05 192.02 16.47C192.02 16.69 191.94 17 191.78 17.4C191.62 17.78 191.43 18.19 191.21 18.63C191.01 19.05 190.8 19.45 190.58 19.83C190.36 20.21 190.2 20.48 190.1 20.64C190.22 20.48 190.47 20.19 190.85 19.77C191.25 19.35 191.71 18.92 192.23 18.48C192.77 18.02 193.33 17.62 193.91 17.28C194.49 16.94 195.03 16.77 195.53 16.77C195.97 16.77 196.28 16.89 196.46 17.13C196.64 17.37 196.73 17.75 196.73 18.27ZM211.441 17.55C211.401 17.61 211.271 17.77 211.051 18.03C210.831 18.27 210.571 18.55 210.271 18.87C209.991 19.17 209.701 19.48 209.401 19.8C209.101 20.1 208.851 20.34 208.651 20.52C208.431 20.7 208.171 20.92 207.871 21.18C207.591 21.44 207.291 21.69 206.971 21.93C206.671 22.17 206.361 22.38 206.041 22.56C205.721 22.72 205.441 22.8 205.201 22.8C204.841 22.8 204.581 22.62 204.421 22.26C204.261 21.9 204.181 21.46 204.181 20.94C204.181 20.68 204.211 20.36 204.271 19.98C204.351 19.6 204.411 19.37 204.451 19.29C204.471 19.23 204.461 19.18 204.421 19.14C204.401 19.1 204.371 19.08 204.331 19.08C204.311 19.08 204.201 19.16 204.001 19.32C203.821 19.48 203.591 19.68 203.311 19.92C203.051 20.14 202.761 20.39 202.441 20.67C202.141 20.93 201.861 21.18 201.601 21.42C201.341 21.66 201.021 21.95 200.641 22.29C200.281 22.61 199.921 22.92 199.561 23.22C199.201 23.5 198.871 23.75 198.571 23.97C198.271 24.17 198.051 24.27 197.911 24.27C197.711 24.27 197.541 24.15 197.401 23.91C197.281 23.67 197.221 23.4 197.221 23.1C197.221 22.6 197.341 22.02 197.581 21.36C197.821 20.7 198.131 20.02 198.511 19.32C198.911 18.62 199.361 17.94 199.861 17.28C200.381 16.6 200.911 16 201.451 15.48C202.011 14.94 202.571 14.51 203.131 14.19C203.691 13.85 204.211 13.68 204.691 13.68C205.091 13.68 205.421 13.79 205.681 14.01C205.961 14.23 206.101 14.57 206.101 15.03C206.101 15.15 206.061 15.32 205.981 15.54C205.921 15.74 205.831 15.97 205.711 16.23C205.611 16.47 205.491 16.72 205.351 16.98C205.211 17.24 205.081 17.47 204.961 17.67C205.161 17.57 205.311 17.52 205.411 17.52C205.651 17.52 205.841 17.58 205.981 17.7C206.141 17.82 206.221 18.02 206.221 18.3C206.221 18.48 206.181 18.7 206.101 18.96C206.021 19.2 205.931 19.46 205.831 19.74C205.731 20 205.641 20.26 205.561 20.52C205.481 20.78 205.441 21.01 205.441 21.21C205.441 21.37 205.461 21.51 205.501 21.63C205.561 21.75 205.671 21.81 205.831 21.81C206.051 21.81 206.411 21.61 206.911 21.21C207.411 20.81 207.941 20.35 208.501 19.83C208.801 19.53 209.101 19.23 209.401 18.93C209.701 18.61 209.981 18.32 210.241 18.06C210.501 17.8 210.721 17.57 210.901 17.37C211.081 17.17 211.211 17.02 211.291 16.92C211.351 16.92 211.411 16.97 211.471 17.07C211.551 17.17 211.541 17.33 211.441 17.55ZM205.471 15C205.471 14.82 205.381 14.73 205.201 14.73C205.001 14.73 204.701 14.87 204.301 15.15C203.901 15.43 203.451 15.8 202.951 16.26C202.451 16.7 201.941 17.21 201.421 17.79C200.901 18.37 200.421 18.95 199.981 19.53C199.401 20.29 198.951 20.97 198.631 21.57C198.311 22.17 198.151 22.63 198.151 22.95C198.151 23.15 198.181 23.25 198.241 23.25C198.301 23.25 198.471 23.15 198.751 22.95C199.051 22.73 199.391 22.47 199.771 22.17C200.171 21.85 200.581 21.51 201.001 21.15C201.421 20.77 201.801 20.43 202.141 20.13C202.501 19.81 202.851 19.49 203.191 19.17C203.531 18.85 203.851 18.56 204.151 18.3C204.011 18.26 203.891 18.21 203.791 18.15C203.691 18.09 203.641 18.04 203.641 18C203.641 17.96 203.681 17.91 203.761 17.85C203.841 17.77 203.921 17.68 204.001 17.58C204.041 17.54 204.141 17.4 204.301 17.16C204.461 16.9 204.621 16.63 204.781 16.35C204.961 16.05 205.121 15.77 205.261 15.51C205.401 15.25 205.471 15.08 205.471 15ZM218.773 22.23C218.773 22.25 218.693 22.34 218.533 22.5C218.493 22.54 218.423 22.64 218.323 22.8C218.223 22.94 218.103 23.09 217.963 23.25C217.823 23.39 217.683 23.52 217.543 23.64C217.403 23.76 217.273 23.82 217.153 23.82C216.813 23.82 216.513 23.62 216.253 23.22C215.993 22.8 215.863 22.32 215.863 21.78C215.863 21.2 215.923 20.73 216.043 20.37C216.183 20.01 216.293 19.76 216.373 19.62L216.313 19.56C216.273 19.6 216.123 19.75 215.863 20.01C215.623 20.25 215.313 20.55 214.933 20.91C214.573 21.25 214.163 21.63 213.703 22.05C213.263 22.45 212.823 22.82 212.383 23.16C211.963 23.5 211.563 23.78 211.183 24C210.803 24.22 210.503 24.33 210.283 24.33C210.123 24.33 209.943 24.29 209.743 24.21C209.563 24.13 209.393 24.03 209.233 23.91C209.073 23.79 208.943 23.66 208.843 23.52C208.743 23.36 208.693 23.2 208.693 23.04C208.693 22.58 208.813 21.97 209.052 21.21C209.313 20.43 209.613 19.66 209.953 18.9C210.153 18.48 210.363 18.08 210.583 17.7C210.803 17.32 211.013 16.99 211.213 16.71C211.433 16.43 211.643 16.21 211.843 16.05C212.043 15.87 212.223 15.78 212.383 15.78C212.523 15.78 212.683 15.91 212.863 16.17C213.043 16.41 213.133 16.61 213.133 16.77C213.133 16.85 213.123 16.9 213.103 16.92C212.943 17.14 212.723 17.49 212.443 17.97C212.183 18.45 211.913 18.96 211.633 19.5C211.373 20.04 211.143 20.57 210.943 21.09C210.743 21.59 210.643 21.98 210.643 22.26C210.643 22.4 210.663 22.55 210.703 22.71C210.763 22.85 210.873 22.92 211.033 22.92C211.153 22.92 211.323 22.86 211.543 22.74C211.783 22.62 212.043 22.46 212.323 22.26C212.623 22.06 212.933 21.83 213.253 21.57C213.593 21.29 213.933 20.99 214.273 20.67C214.793 20.17 215.263 19.67 215.683 19.17C216.123 18.65 216.483 18.24 216.763 17.94C216.883 17.84 216.983 17.76 217.063 17.7C217.143 17.62 217.213 17.58 217.273 17.58C217.533 17.58 217.753 17.74 217.933 18.06C218.113 18.38 218.203 18.7 218.203 19.02C218.203 19.5 218.113 19.94 217.933 20.34C217.753 20.74 217.663 21.18 217.663 21.66C217.663 21.9 217.793 22.05 218.053 22.11C218.313 22.15 218.513 22.17 218.653 22.17C218.733 22.17 218.773 22.19 218.773 22.23ZM215.772 10.98C215.793 10.92 215.843 10.82 215.923 10.68C216.023 10.52 216.133 10.46 216.253 10.5C216.393 10.56 216.453 10.63 216.433 10.71C216.433 10.81 216.413 10.9 216.373 10.98C216.333 11.04 216.303 11.12 216.283 11.22C216.243 11.58 216.273 11.93 216.373 12.27C216.493 12.61 216.663 12.95 216.882 13.29C217.063 13.25 217.343 13.21 217.723 13.17C218.103 13.13 218.483 13.08 218.863 13.02C219.243 12.96 219.603 12.88 219.943 12.78C220.283 12.68 220.483 12.57 220.543 12.45H220.903L221.023 12.6C220.923 12.84 220.703 13.05 220.363 13.23C220.023 13.41 219.643 13.57 219.223 13.71C218.803 13.83 218.403 13.95 218.023 14.07C217.663 14.17 217.383 14.25 217.183 14.31C216.963 14.41 216.773 14.5 216.613 14.58C216.473 14.66 216.243 14.63 215.923 14.49C215.703 14.41 215.553 14.2 215.473 13.86C215.413 13.52 215.393 13.17 215.413 12.81C215.453 12.43 215.503 12.07 215.562 11.73C215.643 11.37 215.713 11.12 215.772 10.98ZM237.97 1.59C237.97 1.57 237.94 1.52 237.88 1.44C237.84 1.36 237.77 1.28 237.67 1.2C237.57 1.1 237.45 1.02 237.31 0.96C237.19 0.88 237.06 0.84 236.92 0.84C236.8 0.84 236.54 1.09 236.14 1.59C235.76 2.09 235.29 2.73 234.73 3.51C234.19 4.27 233.61 5.11 232.99 6.03C232.37 6.95 231.78 7.83 231.22 8.67C230.68 9.49 230.2 10.22 229.78 10.86C229.36 11.5 229.09 11.92 228.97 12.12C228.85 12.3 228.65 12.61 228.37 13.05C228.11 13.47 227.81 13.96 227.47 14.52C227.15 15.06 226.81 15.64 226.45 16.26C226.09 16.88 225.76 17.47 225.46 18.03C225.16 18.57 224.91 19.05 224.71 19.47C224.53 19.89 224.44 20.18 224.44 20.34C224.44 20.5 224.46 20.65 224.5 20.79C224.56 20.93 224.68 21 224.86 21C224.96 21 225.04 20.99 225.1 20.97C225.36 20.19 225.72 19.37 226.18 18.51C226.66 17.63 227.17 16.76 227.71 15.9C228.27 15.02 228.83 14.17 229.39 13.35C229.95 12.53 230.46 11.77 230.92 11.07C231.72 9.85 232.54 8.68 233.38 7.56C234.22 6.44 234.98 5.46 235.66 4.62C236.34 3.76 236.89 3.08 237.31 2.58C237.75 2.06 237.97 1.8 237.97 1.8V1.59ZM225.01 23.13C225.01 23.01 224.96 22.88 224.86 22.74C224.76 22.58 224.64 22.44 224.5 22.32C224.36 22.2 224.22 22.1 224.08 22.02C223.94 21.92 223.83 21.87 223.75 21.87C223.67 21.87 223.58 21.92 223.48 22.02C223.38 22.1 223.28 22.2 223.18 22.32C223.1 22.42 223.02 22.53 222.94 22.65C222.88 22.77 222.85 22.86 222.85 22.92C222.85 23.02 222.87 23.21 222.91 23.49C222.97 23.77 223.02 23.97 223.06 24.09C223.08 24.19 223.16 24.28 223.3 24.36C223.46 24.44 223.65 24.48 223.87 24.48C224.01 24.48 224.15 24.43 224.29 24.33C224.43 24.23 224.55 24.12 224.65 24C224.75 23.86 224.83 23.71 224.89 23.55C224.97 23.39 225.01 23.25 225.01 23.13Z" fill="white"/>
</svg>
