<svg width="14" height="20" viewBox="0 0 14 20" fill="none" xmlns="http://www.w3.org/2000/svg">
<path d="M13 7C13 9.67085 11.4133 12.7015 9.68077 15.1765C8.83157 16.3897 7.98043 17.4234 7.34117 18.154C7.21902 18.2936 7.10479 18.4219 7 18.5381C6.89521 18.4219 6.78098 18.2936 6.65883 18.154C6.01957 17.4234 5.16843 16.3897 4.31923 15.1765C2.58668 12.7015 1 9.67085 1 7C1 4.7997 1.86555 3.33388 3.00824 2.39896C4.18213 1.4385 5.70007 1 7 1C8.29993 1 9.81787 1.4385 10.9918 2.39896C12.1344 3.33388 13 4.7997 13 7Z" fill="white" stroke="#898989" stroke-width="2"/>
</svg>
