<svg width="51" height="33" viewBox="0 0 51 33" fill="none" xmlns="http://www.w3.org/2000/svg">
<path d="M21.6064 26.9146C21.3896 27.2036 20.9199 27.5649 20.1973 27.9985C19.4746 28.396 18.6074 28.8115 17.5957 29.2451C16.6201 29.6787 15.5542 30.1123 14.3979 30.5459C13.2778 30.9434 12.1938 31.3047 11.146 31.6299C10.0981 31.9551 9.14062 32.208 8.27344 32.3887C7.44238 32.5693 6.81006 32.6416 6.37646 32.6055C4.53369 31.2324 3.16064 29.6606 2.25732 27.8901C1.39014 26.1196 0.956543 24.042 0.956543 21.6572C0.956543 19.6699 1.2998 17.6646 1.98633 15.6411C2.70898 13.5815 3.6665 11.6123 4.85889 9.7334C6.05127 7.85449 7.44238 6.12012 9.03223 4.53027C10.6221 2.9043 12.2842 1.53125 14.0186 0.411133L17.5415 3.12109C16.2407 4.85547 15.1567 6.84277 14.2896 9.08301C13.4224 11.2871 12.9888 13.5815 12.9888 15.9663C12.9888 17.9536 13.6572 19.5796 14.9941 20.8442C16.3311 22.1089 18.2461 22.7773 20.7393 22.8496L21.6064 26.9146ZM50.332 11.522C50.332 13.5093 49.9707 15.5327 49.248 17.5923C48.5615 19.6157 47.6221 21.5669 46.4297 23.4458C45.2373 25.3247 43.8462 27.0771 42.2563 28.7031C40.7026 30.293 39.0586 31.6479 37.3242 32.7681L33.7471 30.0581C35.0479 28.3237 36.1318 26.3364 36.999 24.0962C37.8662 21.856 38.2998 19.5615 38.2998 17.2129C38.2998 15.2256 37.6313 13.5996 36.2944 12.335C34.9575 11.0703 33.0425 10.4019 30.5493 10.3296L29.6821 6.26465C29.8989 5.97559 30.3687 5.63232 31.0913 5.23486C31.814 4.80127 32.6631 4.36768 33.6387 3.93408C34.6504 3.50049 35.7163 3.08496 36.8364 2.6875C37.9927 2.25391 39.0947 1.87451 40.1426 1.54932C41.1904 1.22412 42.1299 0.971191 42.9609 0.790527C43.8281 0.609863 44.4785 0.537598 44.9121 0.57373C46.7549 1.94678 48.1099 3.51855 48.9771 5.28906C49.8804 7.05957 50.332 9.13721 50.332 11.522Z" fill="#C54100"/>
</svg>
