<?xml version="1.0" encoding="UTF-8"?>
<!DOCTYPE svg PUBLIC "-//W3C//DTD SVG 1.1//EN" "http://www.w3.org/Graphics/SVG/1.1/DTD/svg11.dtd">
<!-- Creator: CorelDRAW 2018 (64-Bit) -->
<svg xmlns="http://www.w3.org/2000/svg" xml:space="preserve" width="16px" height="16px" version="1.1" style="shape-rendering:geometricPrecision; text-rendering:geometricPrecision; image-rendering:optimizeQuality; fill-rule:evenodd; clip-rule:evenodd"
viewBox="0 0 16 16"
 xmlns:xlink="http://www.w3.org/1999/xlink">
 <defs>
  <style type="text/css">
   <![CDATA[
    .fil0 {fill:#666666}
    .fil1 {fill:#666666}
    .fil2 {fill:#cccccc}
   ]]>
  </style>
 </defs>
 <g id="Слой_x0020_1">
  <metadata id="CorelCorpID_0Corel-Layer"/>
  <path class="fil0" d="M0 16l2 0 12 0 2 0 0 -2 0 -12 0 -2 -2 0 -12 0 0 0 -2 0 0 0 0 2 0 12 0 2zm2 -14l12 0 0 12 -12 0 0 -12z"/>
  <rect class="fil1" x="4" y="7" width="1" height="1"/>
  <rect class="fil1" x="5" y="8" width="1" height="1"/>
  <rect class="fil1" x="6" y="9" width="1" height="1"/>
  <rect class="fil1" x="7" y="10" width="1" height="1"/>
  <rect class="fil1" x="8" y="9" width="1" height="1"/>
  <rect class="fil1" x="9" y="8" width="1" height="1"/>
  <rect class="fil1" x="10" y="7" width="1" height="1"/>
  <rect class="fil1" x="11" y="6" width="1" height="1"/>
  <rect class="fil2" x="5" y="7" width="1" height="1"/>
  <rect class="fil2" x="6" y="8" width="1" height="1"/>
  <rect class="fil2" x="7" y="9" width="1" height="1"/>
  <rect class="fil2" x="8" y="8" width="1" height="1"/>
  <rect class="fil2" x="9" y="7" width="1" height="1"/>
  <rect class="fil2" x="10" y="6" width="1" height="1"/>
  <rect class="fil2" x="11" y="5" width="1" height="1"/>
  <rect class="fil1" x="4" y="8" width="1" height="1"/>
  <rect class="fil1" x="5" y="9" width="1" height="1"/>
  <rect class="fil1" x="6" y="10" width="1" height="1"/>
  <rect class="fil1" x="7" y="11" width="1" height="1"/>
  <rect class="fil1" x="8" y="10" width="1" height="1"/>
  <rect class="fil1" x="9" y="9" width="1" height="1"/>
  <rect class="fil1" x="10" y="8" width="1" height="1"/>
  <rect class="fil1" x="11" y="7" width="1" height="1"/>
 </g>
</svg>
