<svg id="Capa_1" enable-background="new 0 0 512 512" height="512" viewBox="0 0 512 512" width="512" xmlns="http://www.w3.org/2000/svg"><g><path d="m106 181c-8.284 0-15 6.716-15 15v301c0 8.284 6.716 15 15 15h300c8.284 0 15-6.716 15-15v-301c0-8.284-6.716-15-15-15h-153.837l-33.515-74.329c13.62-11.008 22.352-27.835 22.352-46.671 0-33.084-26.916-60-60-60s-60 26.916-60 60 26.916 60 60 60c3.527 0 6.978-.323 10.339-.91l27.916 61.91zm45-121c0-16.542 13.458-30 30-30s30 13.458 30 30-13.458 30-30 30-30-13.458-30-30zm240 151v271h-270v-271h111.782l9.544 21.166c3.388 7.514 12.253 10.93 19.84 7.508 7.552-3.405 10.913-12.288 7.508-19.84l-3.984-8.834z"/><path d="m241 286c0 8.284 6.716 15 15 15h60c8.284 0 15-6.716 15-15s-6.716-15-15-15h-60c-8.284 0-15 6.716-15 15z"/><path d="m316 331h-60c-8.284 0-15 6.716-15 15s6.716 15 15 15h60c8.284 0 15-6.716 15-15s-6.716-15-15-15z"/><path d="m316 391h-60c-8.284 0-15 6.716-15 15s6.716 15 15 15h60c8.284 0 15-6.716 15-15s-6.716-15-15-15z"/><circle cx="196" cy="286" r="15"/><circle cx="196" cy="346" r="15"/><circle cx="196" cy="406" r="15"/></g></svg>