<?xml version="1.0" encoding="iso-8859-1"?>
<!-- Generator: Adobe Illustrator 21.0.0, SVG Export Plug-In . SVG Version: 6.00 Build 0)  -->
<svg xmlns="http://www.w3.org/2000/svg" xmlns:xlink="http://www.w3.org/1999/xlink" version="1.1" id="Capa_1" x="0px" y="0px" viewBox="0 0 512 512" style="enable-background:new 0 0 512 512;" xml:space="preserve" width="512" height="512">
<g>
	<path d="M507.606,4.394c-5.855-5.855-15.351-5.862-21.213,0l-36.147,36.147c10.932,1.683,19.53,10.281,21.213,21.213l36.147-36.147   C513.468,19.745,513.461,10.249,507.606,4.394z"/>
	<path d="M385.361,181.086c-15.04,15.04-39.414,15.033-54.447,0c-15.033-15.033-15.04-39.407,0-54.447   c11.271-11.271,27.796-14.093,41.698-8.464l77.633-77.633c-0.693-0.113-1.407-0.191-2.121-0.24L303.21,30.189   c-9.977-0.7-19.764,2.963-26.835,10.034L15.396,301.202c-20.527,20.527-20.527,53.818,0,74.345l121.057,121.057   c20.527,20.527,53.818,20.527,74.345,0l260.979-260.979c7.071-7.071,10.734-16.858,10.034-26.835L471.699,63.876   c-0.049-0.714-0.127-1.428-0.24-2.121l-77.633,77.633C399.454,153.29,396.633,169.815,385.361,181.086z M91.713,344.555   c-5.858-5.858-5.858-15.355,0-21.213l120.878-120.877c5.858-5.858,15.355-5.858,21.213,0c5.858,5.858,5.858,15.355,0,21.213   L112.927,344.555C107.069,350.413,97.571,350.413,91.713,344.555z M262.624,346.322l-73.965,73.965   c-5.858,5.858-15.355,5.858-21.213,0c-5.858-5.858-5.858-15.355,0-21.213l73.965-73.965c5.858-5.858,15.355-5.858,21.213,0   C268.482,330.966,268.482,340.464,262.624,346.322z M150.792,382.421c-5.858,5.858-15.355,5.858-21.213,0   c-5.858-5.858-5.858-15.355,0-21.213L250.457,240.33c5.858-5.858,15.355-5.858,21.213,0c5.858,5.858,5.858,15.355,0,21.213   L150.792,382.421z M309.536,299.41l-9.507,9.507c-5.858,5.858-15.355,5.858-21.213,0c-5.858-5.858-5.858-15.355,0-21.213   l9.507-9.507c5.858-5.858,15.355-5.858,21.213,0C315.394,284.054,315.394,293.552,309.536,299.41z"/>
</g>















</svg>
