<?xml version="1.0" encoding="UTF-8"?>
<!DOCTYPE svg PUBLIC "-//W3C//DTD SVG 1.1//EN" "http://www.w3.org/Graphics/SVG/1.1/DTD/svg11.dtd">
<!-- Creator: CorelDRAW X7 -->
<svg xmlns="http://www.w3.org/2000/svg" xml:space="preserve" width="16px" height="16px" version="1.1" style="shape-rendering:geometricPrecision; text-rendering:geometricPrecision; image-rendering:optimizeQuality; fill-rule:evenodd; clip-rule:evenodd"
viewBox="0 0 1600 1600"
 xmlns:xlink="http://www.w3.org/1999/xlink">
 <defs>
  <style type="text/css">
   <![CDATA[
    .fil0 {fill:black}
   ]]>
  </style>
 </defs>
 <g id="Слой_x0020_1">
  <metadata id="CorelCorpID_0Corel-Layer"/>
  <g id="key-bold.svg">
   <path class="fil0" d="M1050 164c-204,0 -371,166 -371,370 0,70 20,135 53,191l-563 564c-17,17 -17,44 0,61 8,9 19,13 31,13 11,0 22,-4 30,-13l79 -78 143 144c9,8 20,12 31,12 11,0 22,-4 31,-12 17,-17 17,-45 0,-62l-144 -144 48 -47 100 100c8,9 19,13 30,13 12,0 23,-4 31,-13 17,-17 17,-45 0,-62l-100 -100 48 -47 143 144c9,8 20,12 31,12 11,0 22,-4 31,-12 17,-17 17,-45 0,-62l-144 -144 198 -198c67,69 161,111 264,111 204,0 371,-166 371,-371 0,-204 -167,-370 -371,-370zm0 654c-156,0 -284,-127 -284,-284 0,-156 128,-283 284,-283 156,0 283,127 283,283 0,157 -127,284 -283,284z"/>
   <g>
   </g>
   <g>
   </g>
   <g>
   </g>
   <g>
   </g>
   <g>
   </g>
   <g>
   </g>
   <g>
   </g>
   <g>
   </g>
   <g>
   </g>
   <g>
   </g>
   <g>
   </g>
   <g>
   </g>
   <g>
   </g>
   <g>
   </g>
   <g>
   </g>
  </g>
 </g>
</svg>
