<?xml version="1.0" encoding="UTF-8"?>
<!DOCTYPE svg PUBLIC "-//W3C//DTD SVG 1.1//EN" "http://www.w3.org/Graphics/SVG/1.1/DTD/svg11.dtd">
<!-- Creator: CorelDRAW X7 -->
<svg xmlns="http://www.w3.org/2000/svg" xml:space="preserve" width="150mm" height="116.193mm" version="1.1" style="shape-rendering:geometricPrecision; text-rendering:geometricPrecision; image-rendering:optimizeQuality; fill-rule:evenodd; clip-rule:evenodd"
viewBox="0 0 15023 11637"
 xmlns:xlink="http://www.w3.org/1999/xlink">
 <defs>
  <style type="text/css">
   <![CDATA[
    .fil2 {fill:none}
    .fil0 {fill:#434242}
    .fil1 {fill:red}
   ]]>
  </style>
 </defs>
 <g id="Слой_x0020_1">
  <metadata id="CorelCorpID_0Corel-Layer"/>
  <path class="fil0" d="M3206 8826l0 -2013 232 0 814 1232 818 -1232 227 0 0 2013 -246 0 0 -1572 -799 1191 -799 -1191 0 1572 -247 0zm3027 -777l887 0 -445 -891 -442 891zm-649 777l987 -2013 208 0 997 2013 -272 0 -273 -542 -1112 0 -266 542 -269 0zm2737 -1117l889 0c126,0 222,-28 287,-84 65,-55 97,-137 97,-245 0,-106 -32,-188 -97,-247 -65,-59 -157,-88 -275,-88l-901 0 0 664zm-250 1117l0 -2013 1155 0c195,0 349,49 461,146 113,97 169,230 169,399 0,175 -54,317 -163,424 -109,109 -254,163 -434,163l-938 0 0 881 -250 0zm3805 -642l202 149c-92,175 -219,310 -380,404 -160,94 -342,141 -547,141 -301,0 -550,-99 -747,-298 -196,-198 -294,-450 -294,-756 0,-306 98,-559 295,-758 197,-198 445,-298 745,-298 187,0 356,41 510,122 153,82 277,198 373,349l-210 149c-63,-120 -154,-214 -273,-282 -119,-68 -252,-102 -399,-102 -226,0 -413,77 -561,232 -148,155 -223,351 -223,588 0,237 75,433 223,587 148,155 335,232 561,232 158,0 298,-39 421,-117 122,-78 224,-192 304,-342z"/>
  <path class="fil0" d="M3569 9539c0,20 -3,37 -11,54 -7,17 -17,31 -31,43 -13,13 -29,22 -47,29 -19,7 -38,11 -60,11l-208 0 0 -478 195 0c23,0 44,3 62,9 18,6 33,14 46,24 12,10 21,23 27,37 6,14 9,29 9,46 0,30 -7,55 -23,75 -15,20 -37,33 -66,39 36,4 63,16 81,36 18,19 26,44 26,75zm-78 -216c0,-11 -2,-20 -5,-29 -3,-9 -9,-17 -16,-23 -7,-6 -17,-11 -28,-15 -12,-3 -25,-5 -42,-5l-128 0 0 154 118 0c19,0 34,-2 47,-6 12,-4 23,-10 31,-17 8,-8 14,-16 18,-26 3,-10 5,-21 5,-33zm18 216c0,-12 -2,-23 -6,-33 -4,-10 -11,-19 -20,-26 -9,-8 -21,-13 -35,-17 -14,-4 -31,-6 -52,-6l-124 0 0 166 138 0c33,0 58,-7 74,-22 17,-15 25,-35 25,-62zm405 148c-35,0 -67,-6 -95,-17 -28,-12 -52,-29 -72,-51 -20,-21 -35,-47 -45,-77 -11,-31 -16,-64 -16,-101 0,-40 5,-75 16,-107 12,-31 28,-58 48,-80 21,-22 46,-38 75,-50 29,-11 62,-17 98,-17 34,0 65,6 93,17 28,11 51,28 70,49 20,22 34,48 45,79 10,30 15,65 15,105 0,37 -5,71 -16,102 -11,30 -26,57 -46,79 -20,22 -44,39 -73,51 -28,12 -60,18 -97,18zm5 -449c-26,0 -50,5 -71,14 -21,9 -39,22 -54,39 -15,18 -27,39 -35,64 -8,25 -12,53 -12,85 0,30 4,57 12,81 8,24 20,44 34,62 15,17 33,30 54,39 21,9 45,14 71,14 27,0 51,-5 71,-14 21,-8 38,-21 52,-38 15,-17 26,-38 33,-63 7,-24 11,-52 11,-84 0,-64 -14,-113 -43,-147 -29,-35 -70,-52 -123,-52zm435 361l0 296 -60 0 0 -697 60 0 0 92 2 0c17,-34 41,-59 71,-77 29,-17 63,-26 100,-26 30,0 57,5 81,16 24,12 45,27 61,47 17,21 29,45 38,74 9,29 14,62 14,98 0,39 -5,75 -15,108 -10,32 -24,60 -43,84 -19,23 -41,41 -68,54 -26,13 -56,19 -89,19 -67,0 -117,-29 -150,-88l-2 0zm0 -122c0,22 3,42 11,61 7,20 17,36 30,51 13,14 29,26 47,34 19,9 39,13 62,13 23,0 45,-5 64,-15 19,-11 36,-25 49,-44 14,-18 24,-41 31,-67 8,-27 11,-56 11,-89 0,-28 -3,-53 -10,-76 -7,-23 -16,-42 -29,-58 -12,-15 -28,-28 -45,-36 -18,-8 -38,-13 -60,-13 -25,0 -47,5 -67,14 -20,9 -37,22 -51,38 -14,16 -25,34 -32,56 -8,21 -11,43 -11,68l0 63zm708 210c-35,0 -67,-6 -95,-17 -28,-12 -52,-29 -72,-51 -20,-21 -35,-47 -46,-77 -10,-31 -16,-64 -16,-101 0,-40 6,-75 17,-107 11,-31 27,-58 48,-80 20,-22 45,-38 75,-50 29,-11 61,-17 97,-17 35,0 66,6 94,17 27,11 51,28 70,49 19,22 34,48 44,79 10,30 16,65 16,105 0,37 -6,71 -16,102 -11,30 -26,57 -46,79 -20,22 -44,39 -73,51 -29,12 -61,18 -97,18zm5 -449c-26,0 -50,5 -71,14 -21,9 -40,22 -55,39 -15,18 -26,39 -34,64 -9,25 -13,53 -13,85 0,30 4,57 13,81 8,24 19,44 34,62 15,17 33,30 54,39 21,9 45,14 71,14 27,0 50,-5 71,-14 20,-8 38,-21 52,-38 14,-17 25,-38 32,-63 8,-24 11,-52 11,-84 0,-64 -14,-113 -43,-147 -28,-35 -69,-52 -122,-52zm496 13l0 425 -60 0 0 -425 -143 0 0 -53 346 0 0 53 -143 0zm581 425l0 -223 -262 0 0 223 -60 0 0 -478 60 0 0 204 262 0 0 -204 60 0 0 478 -60 0zm515 0l0 -85 -2 0c-15,30 -36,54 -63,71 -27,17 -58,25 -92,25 -23,0 -43,-3 -62,-10 -18,-6 -34,-15 -47,-27 -13,-12 -23,-27 -30,-44 -7,-16 -10,-35 -10,-55 0,-44 13,-78 40,-104 27,-26 67,-42 121,-50l145 -21c0,-92 -35,-138 -107,-138 -56,0 -108,21 -155,62l0 -66c10,-7 21,-13 34,-19 12,-6 26,-11 40,-15 14,-4 28,-7 43,-10 15,-2 29,-3 43,-3 54,0 94,15 121,45 28,30 41,74 41,133l0 311 -60 0zm-123 -232c-22,3 -40,7 -55,12 -16,4 -28,11 -38,18 -10,8 -18,18 -22,30 -5,12 -7,26 -7,43 0,13 2,25 7,36 4,10 11,20 19,28 9,8 19,14 32,18 12,4 26,7 41,7 22,0 41,-4 59,-12 18,-9 33,-20 46,-34 13,-14 23,-31 30,-51 8,-20 11,-42 11,-65l0 -47 -123 17zm609 232l0 -203 -72 0c-8,0 -16,2 -24,5 -9,2 -17,7 -25,13 -8,6 -16,14 -24,25 -8,10 -15,22 -22,37l-58 123 -70 0 69 -140c10,-19 20,-34 33,-47 12,-13 26,-23 42,-30 -38,-4 -67,-18 -86,-40 -19,-23 -29,-51 -29,-85 0,-19 4,-37 10,-53 7,-16 17,-30 31,-43 14,-12 31,-22 52,-29 21,-7 46,-11 74,-11l159 0 0 478 -60 0zm0 -426l-97 0c-35,0 -62,7 -79,22 -18,14 -27,35 -27,62 0,31 9,53 28,67 18,14 43,21 75,21l100 0 0 -172zm1016 426l-216 -232 -2 0 0 232 -60 0 0 -478 60 0 0 224 2 0 210 -224 77 0 -225 232 238 246 -84 0zm368 11c-35,0 -67,-6 -95,-17 -28,-12 -52,-29 -72,-51 -20,-21 -35,-47 -46,-77 -11,-31 -16,-64 -16,-101 0,-40 6,-75 17,-107 11,-31 27,-58 48,-80 20,-22 45,-38 74,-50 30,-11 62,-17 98,-17 35,0 66,6 93,17 28,11 52,28 71,49 19,22 34,48 44,79 10,30 16,65 16,105 0,37 -6,71 -17,102 -10,30 -26,57 -45,79 -20,22 -44,39 -73,51 -29,12 -61,18 -97,18zm5 -449c-27,0 -50,5 -71,14 -21,9 -40,22 -55,39 -15,18 -26,39 -35,64 -8,25 -12,53 -12,85 0,30 4,57 12,81 9,24 20,44 35,62 15,17 33,30 54,39 21,9 44,14 71,14 26,0 50,-5 71,-14 20,-8 38,-21 52,-38 14,-17 25,-38 32,-63 8,-24 11,-52 11,-84 0,-64 -14,-113 -43,-147 -28,-35 -69,-52 -122,-52zm799 438l0 -403c-1,2 -2,7 -5,13 -2,7 -4,14 -7,22 -4,8 -7,17 -10,26 -4,9 -7,18 -10,27l-124 315 -52 0 -131 -315c-2,-6 -5,-12 -8,-20 -2,-8 -5,-16 -9,-24 -3,-9 -6,-17 -8,-24 -3,-8 -5,-15 -7,-20l0 403 -54 0 0 -478 74 0 136 322c3,6 6,14 9,22 3,8 6,17 10,25 3,9 6,17 9,25 2,8 4,14 6,19 2,-4 4,-9 6,-16 3,-8 6,-15 9,-24 3,-8 7,-17 10,-25 3,-9 6,-17 9,-25l129 -323 77 0 0 478 -59 0zm562 0l0 -425 -262 0 0 425 -60 0 0 -478 382 0 0 478 -60 0zm515 0l0 -85 -2 0c-16,30 -37,54 -64,71 -27,17 -57,25 -91,25 -23,0 -44,-3 -62,-10 -19,-6 -35,-15 -47,-27 -14,-12 -23,-27 -30,-44 -7,-16 -11,-35 -11,-55 0,-44 13,-78 40,-104 27,-26 67,-42 121,-50l146 -21c0,-92 -36,-138 -107,-138 -56,0 -108,21 -156,62l0 -66c10,-7 21,-13 34,-19 13,-6 26,-11 40,-15 14,-4 29,-7 43,-10 15,-2 30,-3 44,-3 53,0 94,15 121,45 27,30 41,74 41,133l0 311 -60 0zm-124 -232c-21,3 -40,7 -55,12 -15,4 -28,11 -38,18 -10,8 -17,18 -22,30 -4,12 -7,26 -7,43 0,13 2,25 7,36 5,10 11,20 20,28 8,8 19,14 31,18 12,4 26,7 42,7 21,0 40,-4 58,-12 18,-9 33,-20 46,-34 13,-14 23,-31 31,-51 7,-20 11,-42 11,-65l0 -47 -124 17zm675 232l0 -223 -262 0 0 223 -60 0 0 -478 60 0 0 204 262 0 0 -204 60 0 0 478 -60 0zm571 0l0 -390c-3,3 -5,7 -7,11 -2,4 -4,7 -6,10l-263 369 -55 0 0 -478 56 0 0 386c2,-4 4,-9 7,-14 3,-6 7,-11 11,-18l256 -354 57 0 0 478 -56 0zm492 0l0 -203 -72 0c-8,0 -16,2 -24,5 -9,2 -17,7 -25,13 -8,6 -16,14 -24,25 -8,10 -15,22 -22,37l-58 123 -70 0 69 -140c10,-19 20,-34 33,-47 12,-13 26,-23 42,-30 -38,-4 -67,-18 -86,-40 -19,-23 -29,-51 -29,-85 0,-19 4,-37 10,-53 7,-16 17,-30 31,-43 14,-12 31,-22 52,-29 21,-7 46,-11 74,-11l159 0 0 478 -60 0zm0 -426l-97 0c-35,0 -62,7 -79,22 -18,14 -27,35 -27,62 0,31 9,53 28,67 18,14 43,21 75,21l100 0 0 -172z"/>
  <path class="fil1" d="M6166 2308l55 -54c499,-427 1216,-580 1852,-396 999,289 1600,1286 1409,2301 -64,344 -246,707 -433,909l-111 125c-12,13 -25,22 -39,36 -126,127 -362,285 -517,357 -297,138 -682,234 -1060,186l332 -102c114,-32 233,-69 346,-104 130,-41 590,-185 692,-208l-28 -99c-33,3 -401,118 -465,138 -154,47 -309,96 -465,140l-581 175c-60,19 -60,27 -125,10l-172 -52c-10,-3 -18,-6 -28,-9 -35,-12 -24,-11 -31,-19l1570 -472 -27 -98c-84,10 -1649,504 -1692,508 -28,2 -174,-94 -206,-108 18,-17 63,-25 98,-36 37,-11 69,-21 105,-32l1032 -311c61,-18 387,-110 413,-128l-27 -95 -1737 522 -150 -127c24,-18 742,-226 836,-256 50,-16 818,-242 839,-256l-27 -96 -1743 524c-35,-52 -104,-112 -117,-141l1681 -506 -28 -98 -1722 516c-23,-24 -80,-111 -95,-143 15,-11 25,-11 45,-17 392,-124 810,-245 1204,-363 65,-20 382,-111 415,-128l-28 -96 -1694 509c-17,-50 -56,-105 -68,-157l1634 -491 -27 -99 -1648 495 -49 -158c25,-18 704,-217 793,-242 87,-25 774,-229 798,-245l-26 -95 -1589 477 -30 -168 1537 -462 -30 -99 -1517 456c-1,-49 -12,-134 -2,-173l1459 -442 -27 -99 -1426 428c-5,-37 7,-151 20,-179l1365 -414 -26 -99 -1318 395c8,-49 34,-150 53,-189l1246 -378 -28 -99 -1171 351c10,-43 45,-109 65,-149 25,-51 21,-52 45,-60l408 -123c91,-28 620,-179 656,-202l-26 -95 -970 291c16,-37 128,-189 157,-215 39,-37 745,-218 840,-264l-28 -96 -646 193zm1489 -631l-275 0c-22,10 -183,23 -225,30 -377,66 -778,253 -1045,510 -23,22 -46,38 -70,61 -188,189 -346,411 -469,698 -291,682 -173,1531 286,2101 57,70 192,223 250,268l72 60c49,40 94,76 148,114 100,69 208,129 332,186 241,110 555,182 852,182 412,0 866,-132 1188,-364 148,-106 165,-117 284,-235 40,-39 84,-85 127,-129 98,-100 249,-350 308,-471 119,-242 191,-532 203,-833 20,-528 -166,-1051 -503,-1438 -10,-12 -16,-24 -27,-36 -319,-348 -731,-588 -1205,-673 -40,-7 -215,-24 -231,-31z"/>
  <rect class="fil2" width="15023" height="11637"/>
 </g>
</svg>
