<?xml version="1.0" encoding="UTF-8"?>
<!DOCTYPE svg PUBLIC "-//W3C//DTD SVG 1.1//EN" "http://www.w3.org/Graphics/SVG/1.1/DTD/svg11.dtd">
<!-- Creator: CorelDRAW 2017 -->
<svg xmlns="http://www.w3.org/2000/svg" xml:space="preserve" width="600px" height="571px" version="1.1" style="shape-rendering:geometricPrecision; text-rendering:geometricPrecision; image-rendering:optimizeQuality; fill-rule:evenodd; clip-rule:evenodd"
viewBox="0 0 600 571.43"
 xmlns:xlink="http://www.w3.org/1999/xlink">
 <defs>
  <style type="text/css">
   <![CDATA[
    .str0 {stroke:#FEFEFE;stroke-width:0.57;stroke-miterlimit:22.9256}
    .fil4 {fill:#FEFEFE}
    .fil2 {fill:#5B5B5B}
    .fil3 {fill:#EF7F1A}
    .fil0 {fill:#A2D9F7}
    .fil1 {fill:#2B2A29;fill-rule:nonzero}
   ]]>
  </style>
 </defs>
 <g id="Слой_x0020_1">
  <metadata id="CorelCorpID_0Corel-Layer"/>
  <polygon class="fil0" points="119.39,414.94 483.53,414.94 483.53,500.19 119.39,500.19 "/>
  <path class="fil1" d="M127.23 376.15c2.34,0 4.05,0.62 5.14,1.85 1.08,1.24 1.62,2.96 1.62,5.16l-3.2 0.46 0 -0.05c0.14,-1.32 -0.14,-2.41 -0.83,-3.28 -0.69,-0.86 -1.64,-1.29 -2.85,-1.29 -0.78,0 -1.48,0.18 -2.1,0.55 -0.62,0.37 -1.11,0.98 -1.44,1.83 -0.27,0.63 -0.43,1.7 -0.48,3.18 -0.05,1.48 -0.09,3.24 -0.13,5.26 0.04,1.31 0.07,2.58 0.11,3.79 0.03,1.22 0.13,2.12 0.3,2.73 0.26,0.81 0.7,1.45 1.31,1.92 0.6,0.47 1.4,0.71 2.37,0.71 1.22,0 2.15,-0.37 2.81,-1.12 0.65,-0.74 0.96,-1.88 0.93,-3.4l3.2 0.55c-0.1,4.55 -2.47,6.82 -7.11,6.82 -1.02,0 -1.91,-0.13 -2.67,-0.39 -0.76,-0.25 -1.41,-0.6 -1.93,-1.04 -0.53,-0.44 -0.95,-0.93 -1.27,-1.47 -0.33,-0.54 -0.55,-1.12 -0.69,-1.73 -0.1,-0.41 -0.19,-0.92 -0.25,-1.55 -0.07,-0.63 -0.11,-1.3 -0.13,-2.03 -0.02,-0.73 -0.03,-1.47 -0.05,-2.21 -0.02,-0.75 -0.03,-1.46 -0.03,-2.14 0,-0.88 0.01,-1.78 0.03,-2.69 0.02,-0.92 0.06,-1.78 0.13,-2.59 0.06,-0.82 0.14,-1.55 0.22,-2.21 0.09,-0.67 0.22,-1.2 0.39,-1.61 0.44,-1.22 1.19,-2.19 2.26,-2.92 1.06,-0.73 2.51,-1.09 4.34,-1.09zm16.57 3.15l0 22.16 -3.1 0 0 -22.16 -5.54 0 0 -2.85 14.23 0 0 2.85 -5.59 0zm14.18 17.48c0.37,-1.62 0.75,-3.33 1.12,-5.1 0.37,-1.78 0.75,-3.49 1.12,-5.11l2.44 -10.07 3.15 0 -7.52 29.33c-0.21,0.75 -0.45,1.46 -0.74,2.14 -0.29,0.67 -0.65,1.27 -1.09,1.77 -0.44,0.51 -0.99,0.92 -1.63,1.22 -0.64,0.31 -1.42,0.46 -2.34,0.46l-1.17 0 0 -2.69 0.82 0c1.01,0 1.78,-0.36 2.28,-1.07 0.51,-0.71 0.94,-1.83 1.27,-3.35l0.72 -2.8 -6.66 -25.01 3.3 0c0.48,1.83 0.92,3.66 1.32,5.47 0.41,1.81 0.83,3.63 1.27,5.46 0.17,0.71 0.36,1.5 0.56,2.37 0.21,0.86 0.41,1.72 0.61,2.59 0.21,0.86 0.4,1.68 0.59,2.46 0.18,0.78 0.33,1.43 0.43,1.93l0.15 0zm10.17 11.08l-2.9 0 0 -8.94 1.58 -0.26c0.44,-0.47 0.79,-0.94 1.06,-1.42 0.27,-0.47 0.5,-1.04 0.69,-1.7 0.18,-0.66 0.32,-1.47 0.41,-2.42 0.08,-0.94 0.14,-2.16 0.17,-3.65l0.36 -13.02 13.37 0 0 22.16 1.77 0.05 0 9.2 -2.89 0 0 -6.4 -13.62 0 0 6.4zm11.64 -28.56l-7.32 0 -0.36 10.42c-0.07,2.12 -0.23,3.91 -0.48,5.38 -0.26,1.46 -0.67,2.64 -1.25,3.51l9.41 0 0 -19.31zm20.17 22.16l0 -19.26 -0.05 0 -9.1 19.26 -2.99 0 0 -24.96 3.1 0 0 19.22 0.05 0c1.51,-3.19 3.01,-6.4 4.49,-9.63 1.49,-3.24 2.99,-6.43 4.5,-9.59l3.1 0 0 24.96 -3.1 0zm7.27 -17.74c0,-2.2 0.62,-3.96 1.85,-5.28 1.23,-1.33 3.23,-1.99 6,-1.99l6.59 0 0 25.01 -3.11 0 0 -11.03 -3.1 0c-1.05,0 -1.91,0.26 -2.57,0.79 -0.66,0.52 -1.19,1.58 -1.56,3.18l-1.68 7.06 -3.15 0 2.04 -7.88c0.2,-0.88 0.5,-1.69 0.91,-2.44 0.41,-0.74 0.98,-1.29 1.73,-1.62 -1.42,-0.48 -2.43,-1.22 -3.03,-2.22 -0.61,-0.99 -0.92,-2.19 -0.92,-3.58zm8.29 -4.42c-1.9,0 -3.22,0.43 -3.97,1.29 -0.74,0.85 -1.12,1.96 -1.12,3.31 0,1.28 0.42,2.24 1.25,2.88 0.83,0.64 2.04,0.96 3.63,0.96l3.25 0 0 -8.44 -3.04 0zm36.74 3.91l-3.01 6.46c-0.48,1.01 -0.97,2.02 -1.48,3.02 -0.51,1 -1,1.99 -1.48,2.98l-1.68 0 -2.91 -5.9c-0.14,-0.27 -0.34,-0.69 -0.61,-1.27 -0.27,-0.58 -0.56,-1.19 -0.87,-1.83 -0.3,-0.64 -0.61,-1.25 -0.89,-1.83 -0.29,-0.58 -0.5,-1 -0.64,-1.27l-0.05 0.05 0 17.84 -3.1 0 0 -24.96 3 0c0.2,0.41 0.46,0.94 0.76,1.61 0.31,0.66 0.65,1.38 1,2.16 0.36,0.78 0.73,1.6 1.12,2.46 0.39,0.86 0.8,1.72 1.2,2.57 0.58,1.28 1.13,2.46 1.65,3.53 0.54,1.07 0.94,1.89 1.21,2.46l0.05 0 3.16 -6.75 3.93 -8.04 2.89 0 0 24.96 -3.1 0 0 -18.25 -0.15 0zm14.66 -7.06c2.05,0 3.64,0.5 4.77,1.5 1.15,1 1.82,2.41 2.02,4.24 0.03,0.37 0.06,0.75 0.08,1.12 0.01,0.37 0.02,0.75 0.02,1.12l0 5.59 -11.28 0c0,0.34 0.01,0.66 0.02,0.96 0.02,0.31 0.03,0.63 0.03,0.97 0,0.88 0.02,1.78 0.08,2.69 0.05,0.92 0.16,1.61 0.33,2.09 0.55,1.69 1.77,2.54 3.69,2.54 1.3,0 2.26,-0.38 2.87,-1.14 0.62,-0.77 0.97,-1.77 1.03,-3.03l3.18 0.61c-0.17,2.07 -0.86,3.65 -2.07,4.75 -1.2,1.1 -2.91,1.66 -5.12,1.66 -1.05,0 -1.97,-0.14 -2.73,-0.41 -0.77,-0.27 -1.41,-0.62 -1.94,-1.04 -0.52,-0.43 -0.95,-0.92 -1.28,-1.48 -0.32,-0.56 -0.55,-1.12 -0.68,-1.7 -0.11,-0.41 -0.19,-0.92 -0.26,-1.55 -0.07,-0.63 -0.11,-1.3 -0.13,-2.03 -0.01,-0.73 -0.03,-1.47 -0.05,-2.21 -0.01,-0.75 -0.02,-1.46 -0.02,-2.14 0,-0.88 0.01,-1.76 0.02,-2.64 0.02,-0.88 0.06,-1.73 0.13,-2.54 0.07,-0.82 0.15,-1.55 0.23,-2.21 0.08,-0.66 0.21,-1.21 0.38,-1.66 0.48,-1.25 1.25,-2.24 2.3,-2.97 1.06,-0.73 2.51,-1.09 4.38,-1.09zm-3.83 5.2c-0.21,0.54 -0.33,1.3 -0.38,2.27 -0.05,0.97 -0.1,2.16 -0.13,3.56l8.08 0 0 -2.66c0,-0.71 -0.04,-1.41 -0.13,-2.07 -0.08,-0.67 -0.27,-1.25 -0.56,-1.77 -0.29,-0.51 -0.69,-0.91 -1.2,-1.23 -0.52,-0.3 -1.19,-0.45 -2.05,-0.45 -0.74,0 -1.45,0.16 -2.09,0.5 -0.65,0.35 -1.16,0.96 -1.54,1.85zm16.16 26.51l-2.9 0 0 -8.94 1.58 -0.26c0.44,-0.47 0.79,-0.94 1.07,-1.42 0.27,-0.47 0.5,-1.04 0.68,-1.7 0.19,-0.66 0.32,-1.47 0.41,-2.42 0.08,-0.94 0.14,-2.16 0.18,-3.65l0.35 -13.02 13.37 0 0 22.16 1.78 0.05 0 9.2 -2.9 0 0 -6.4 -13.62 0 0 6.4zm11.64 -28.56l-7.32 0 -0.36 10.42c-0.06,2.12 -0.22,3.91 -0.48,5.38 -0.25,1.46 -0.67,2.64 -1.24,3.51l9.4 0 0 -19.31zm20.18 22.16l0 -19.26 -0.06 0 -9.09 19.26 -3 0 0 -24.96 3.1 0 0 19.22 0.05 0c1.52,-3.19 3.02,-6.4 4.5,-9.63 1.48,-3.24 2.98,-6.43 4.5,-9.59l3.1 0 0 24.96 -3.1 0zm7.26 -20.64c0.44,-1.45 1.26,-2.59 2.44,-3.43 1.19,-0.83 2.7,-1.24 4.53,-1.24 2.2,0 3.9,0.5 5.1,1.5 1.21,1 1.81,2.75 1.81,5.26l0 18.55 -3.15 0 0 -2.24 -0.05 0c-0.75,1.05 -1.59,1.74 -2.52,2.06 -0.93,0.32 -1.92,0.48 -2.97,0.48 -1.09,0 -1.99,-0.2 -2.72,-0.61 -0.73,-0.4 -1.32,-0.94 -1.78,-1.6 -0.46,-0.66 -0.79,-1.41 -0.99,-2.26 -0.2,-0.85 -0.31,-1.73 -0.31,-2.64 0,-0.95 0.11,-1.9 0.31,-2.85 0.2,-0.95 0.57,-1.8 1.12,-2.56 0.54,-0.77 1.25,-1.39 2.13,-1.88 0.88,-0.5 2.02,-0.74 3.41,-0.74l4.42 0 0 -3.69c0,-1.19 -0.27,-2.15 -0.81,-2.86 -0.55,-0.72 -1.6,-1.07 -3.16,-1.07 -0.74,0 -1.51,0.21 -2.31,0.63 -0.79,0.42 -1.31,1.13 -1.55,2.11l-2.95 -0.92zm7.09 8.54c-1.28,0 -2.37,0.38 -3.26,1.15 -0.89,0.76 -1.34,2.09 -1.34,3.99 0,1.28 0.3,2.33 0.89,3.12 0.59,0.8 1.59,1.2 3,1.2 1.35,0 2.42,-0.38 3.21,-1.12 0.79,-0.75 1.19,-1.83 1.19,-3.25l0 -5.09 -3.69 0zm31.9 12.1l0 -22.26 -8.14 0 0 22.26 -3.1 0 0 -25.01 14.34 0 0 25.01 -3.1 0zm14.56 -22.26c-1.32,0 -2.34,0.43 -3.09,1.29 -0.73,0.86 -1.11,1.99 -1.11,3.38l0 10.08c0,1.35 0.33,2.49 0.99,3.42 0.66,0.93 1.69,1.4 3.11,1.4 1.95,0 3.18,-0.97 3.68,-2.89 0.17,-0.71 0.28,-1.72 0.33,-3.02 0.05,-1.3 0.08,-2.71 0.08,-4.23 0,-1.59 -0.03,-2.96 -0.08,-4.11 -0.05,-1.15 -0.18,-2.06 -0.38,-2.74 -0.26,-0.95 -0.69,-1.61 -1.26,-2 -0.57,-0.39 -1.33,-0.58 -2.27,-0.58zm0.9 -3.05c0.53,0 1.12,0.08 1.78,0.23 0.66,0.15 1.27,0.44 1.84,0.86 0.57,0.43 1.08,1.04 1.53,1.83 0.45,0.8 0.75,1.84 0.89,3.13 0.1,1.05 0.15,2.11 0.15,3.17 0,1.07 0,2.2 0,3.38 0,1.87 -0.04,3.59 -0.1,5.16 -0.07,1.58 -0.31,2.92 -0.71,4.04 -0.4,1.12 -1.03,2.04 -1.89,2.75 -0.85,0.71 -2.12,1.06 -3.8,1.06 -1.18,0 -2.16,-0.24 -2.95,-0.73 -0.79,-0.49 -1.36,-1.06 -1.73,-1.7l-0.11 0 0 11.94 -3.1 0 0 -34.77 3.1 0 0 2.18 0.11 0c0.56,-0.79 1.21,-1.41 1.91,-1.86 0.7,-0.45 1.73,-0.67 3.08,-0.67zm17.34 0c1.91,0 3.38,0.37 4.42,1.12 1.03,0.74 1.76,1.67 2.17,2.79 0.3,0.88 0.5,2 0.58,3.36 0.08,1.35 0.13,2.71 0.13,4.06l0 2.49c0,0.92 -0.02,1.82 -0.05,2.72 -0.04,0.9 -0.11,1.86 -0.21,2.87 -0.13,1.26 -0.45,2.29 -0.94,3.1 -0.5,0.82 -1.09,1.45 -1.78,1.91 -0.7,0.46 -1.46,0.78 -2.27,0.97 -0.82,0.18 -1.62,0.28 -2.4,0.28 -2.08,0 -3.63,-0.45 -4.64,-1.35 -1.02,-0.9 -1.71,-1.99 -2.05,-3.28 -0.1,-0.41 -0.18,-0.92 -0.25,-1.55 -0.07,-0.63 -0.12,-1.3 -0.15,-2.03 -0.04,-0.73 -0.05,-1.47 -0.05,-2.21 0,-0.75 0,-1.46 0,-2.14 0,-0.88 0.01,-1.77 0.02,-2.67 0.02,-0.89 0.06,-1.75 0.13,-2.56 0.07,-0.82 0.14,-1.55 0.23,-2.21 0.08,-0.66 0.21,-1.2 0.38,-1.61 0.44,-1.21 1.22,-2.2 2.32,-2.94 1.11,-0.75 2.58,-1.12 4.41,-1.12zm-0.07 2.85c-0.78,0 -1.51,0.16 -2.19,0.5 -0.68,0.34 -1.2,0.95 -1.57,1.82 -0.24,0.61 -0.39,1.55 -0.46,2.79 -0.07,1.26 -0.1,2.75 -0.1,4.47l0 1.62c0,1.38 0.01,2.62 0.05,3.7 0.03,1.08 0.15,1.91 0.35,2.49 0.51,1.72 1.82,2.58 3.92,2.58 0.98,0 1.82,-0.29 2.51,-0.86 0.7,-0.58 1.16,-1.35 1.4,-2.33 0.1,-0.61 0.19,-1.51 0.26,-2.69 0.06,-1.19 0.1,-2.41 0.1,-3.7 0,-0.71 -0.01,-1.46 -0.03,-2.23 -0.02,-0.78 -0.03,-1.52 -0.05,-2.24 -0.02,-0.71 -0.06,-1.34 -0.13,-1.92 -0.06,-0.57 -0.15,-1.01 -0.25,-1.32 -0.27,-0.88 -0.75,-1.54 -1.42,-2 -0.68,-0.46 -1.48,-0.68 -2.39,-0.68zm18.07 -2.85c2.04,0 3.63,0.5 4.77,1.5 1.14,1 1.81,2.41 2.01,4.24 0.03,0.37 0.06,0.75 0.08,1.12 0.01,0.37 0.02,0.75 0.02,1.12l0 5.59 -11.28 0c0,0.34 0.01,0.66 0.03,0.96 0.01,0.31 0.02,0.63 0.02,0.97 0,0.88 0.03,1.78 0.08,2.69 0.05,0.92 0.16,1.61 0.33,2.09 0.55,1.69 1.78,2.54 3.69,2.54 1.3,0 2.26,-0.38 2.87,-1.14 0.62,-0.77 0.97,-1.77 1.04,-3.03l3.17 0.61c-0.17,2.07 -0.85,3.65 -2.06,4.75 -1.21,1.1 -2.92,1.66 -5.13,1.66 -1.05,0 -1.97,-0.14 -2.73,-0.41 -0.77,-0.27 -1.41,-0.62 -1.94,-1.04 -0.52,-0.43 -0.95,-0.92 -1.28,-1.48 -0.32,-0.56 -0.55,-1.12 -0.68,-1.7 -0.1,-0.41 -0.19,-0.92 -0.26,-1.55 -0.06,-0.63 -0.11,-1.3 -0.12,-2.03 -0.02,-0.73 -0.04,-1.47 -0.05,-2.21 -0.02,-0.75 -0.03,-1.46 -0.03,-2.14 0,-0.88 0.01,-1.76 0.03,-2.64 0.01,-0.88 0.05,-1.73 0.12,-2.54 0.07,-0.82 0.15,-1.55 0.23,-2.21 0.09,-0.66 0.21,-1.21 0.38,-1.66 0.49,-1.25 1.25,-2.24 2.3,-2.97 1.06,-0.73 2.51,-1.09 4.39,-1.09zm-3.84 5.2c-0.2,0.54 -0.33,1.3 -0.38,2.27 -0.05,0.97 -0.1,2.16 -0.13,3.56l8.08 0 0 -2.66c0,-0.71 -0.04,-1.41 -0.13,-2.07 -0.08,-0.67 -0.27,-1.25 -0.56,-1.77 -0.29,-0.51 -0.69,-0.91 -1.2,-1.23 -0.51,-0.3 -1.19,-0.45 -2.05,-0.45 -0.74,0 -1.45,0.16 -2.09,0.5 -0.65,0.35 -1.16,0.96 -1.54,1.85zm14.43 20.11l0 -24.96 3.1 0 0 11.03 2.49 0c0.44,0 0.9,-0.04 1.38,-0.12 0.47,-0.09 0.93,-0.26 1.37,-0.51 0.44,-0.26 0.84,-0.62 1.19,-1.09 0.36,-0.48 0.64,-1.12 0.84,-1.94l1.98 -7.37 3 0 -1.93 7.22c-0.34,1.22 -0.78,2.25 -1.32,3.08 -0.54,0.83 -1.27,1.38 -2.19,1.65 1.16,0.27 1.99,0.85 2.49,1.73 0.51,0.88 0.94,1.93 1.27,3.15l2.14 8.13 -3.1 0 -1.83 -7.32c-0.2,-0.81 -0.47,-1.48 -0.79,-2.01 -0.32,-0.52 -0.68,-0.93 -1.09,-1.22 -0.41,-0.28 -0.86,-0.48 -1.35,-0.58 -0.49,-0.1 -1.01,-0.15 -1.55,-0.15l-3 0 0 11.28 -3.1 0zm25.16 -22.16l0 22.16 -3.1 0 0 -22.16 -5.54 0 0 -2.85 14.23 0 0 2.85 -5.59 0zm13.34 -3.15c1.91,0 3.37,0.37 4.42,1.12 1.03,0.74 1.76,1.67 2.16,2.79 0.31,0.88 0.5,2 0.59,3.36 0.08,1.35 0.13,2.71 0.13,4.06l0 2.49c0,0.92 -0.02,1.82 -0.05,2.72 -0.04,0.9 -0.11,1.86 -0.21,2.87 -0.13,1.26 -0.45,2.29 -0.94,3.1 -0.5,0.82 -1.09,1.45 -1.79,1.91 -0.69,0.46 -1.45,0.78 -2.27,0.97 -0.81,0.18 -1.61,0.28 -2.39,0.28 -2.08,0 -3.63,-0.45 -4.65,-1.35 -1.01,-0.9 -1.7,-1.99 -2.04,-3.28 -0.1,-0.41 -0.18,-0.92 -0.25,-1.55 -0.07,-0.63 -0.12,-1.3 -0.15,-2.03 -0.04,-0.73 -0.05,-1.47 -0.05,-2.21 0,-0.75 0,-1.46 0,-2.14 0,-0.88 0,-1.77 0.02,-2.67 0.02,-0.89 0.06,-1.75 0.13,-2.56 0.07,-0.82 0.14,-1.55 0.23,-2.21 0.08,-0.66 0.21,-1.2 0.38,-1.61 0.44,-1.21 1.22,-2.2 2.32,-2.94 1.11,-0.75 2.57,-1.12 4.41,-1.12zm-0.07 2.85c-0.78,0 -1.51,0.16 -2.19,0.5 -0.68,0.34 -1.2,0.95 -1.57,1.82 -0.24,0.61 -0.39,1.55 -0.46,2.79 -0.07,1.26 -0.1,2.75 -0.1,4.47l0 1.62c0,1.38 0.01,2.62 0.05,3.7 0.03,1.08 0.15,1.91 0.35,2.49 0.51,1.72 1.82,2.58 3.92,2.58 0.98,0 1.82,-0.29 2.51,-0.86 0.7,-0.58 1.16,-1.35 1.4,-2.33 0.1,-0.61 0.19,-1.51 0.25,-2.69 0.07,-1.19 0.11,-2.41 0.11,-3.7 0,-0.71 -0.01,-1.46 -0.03,-2.23 -0.02,-0.78 -0.03,-1.52 -0.05,-2.24 -0.02,-0.71 -0.06,-1.34 -0.13,-1.92 -0.07,-0.57 -0.15,-1.01 -0.25,-1.32 -0.27,-0.88 -0.75,-1.54 -1.43,-2 -0.67,-0.46 -1.47,-0.68 -2.38,-0.68zm14.38 0.25l0 7.78 3.63 0c1.64,0 2.8,-0.34 3.48,-1.02 0.68,-0.68 1.02,-1.66 1.02,-2.95 0,-1.25 -0.37,-2.2 -1.12,-2.85 -0.75,-0.64 -2,-0.96 -3.74,-0.96l-3.27 0zm0 10.37l0 8.99 3.66 0c1.02,0 1.84,-0.12 2.46,-0.35 0.63,-0.24 1.12,-0.59 1.48,-1.03 0.35,-0.44 0.59,-0.95 0.71,-1.53 0.12,-0.58 0.18,-1.21 0.18,-1.89 0,-1.33 -0.34,-2.36 -1.02,-3.09 -0.68,-0.74 -1.86,-1.1 -3.56,-1.1l-3.91 0zm-3.1 11.84l0 -24.96 6.61 0c2.74,0 4.71,0.58 5.92,1.73 1.2,1.15 1.8,2.78 1.8,4.88 0,1.19 -0.19,2.2 -0.58,3.05 -0.39,0.85 -1.06,1.54 -2.01,2.09l0.05 0c1.09,0.47 1.83,1.23 2.24,2.28 0.4,1.05 0.61,2.2 0.61,3.46 0,2.68 -0.69,4.59 -2.06,5.74 -1.37,1.15 -3.38,1.73 -6.02,1.73l-6.56 0z"/>
  <g id="_1741938701296">
   <path class="fil2" d="M327.2 231.58c1.53,-11.99 1.93,-15.07 16.25,-12.24l2.37 16.82c-13.2,3.26 -8.46,4.76 -18.62,-4.58zm5.27 -39.26c-63.99,-17.75 -105.89,22.57 -132.43,75.73l-46.58 -47.96c3.9,12.41 14.02,32.82 19.59,45.77 11.99,27.95 2.57,32.08 -2.24,57.85l28.16 -42.55c29.96,22.5 36.99,42.67 79.25,54.94 34.4,9.99 74.7,-5.3 95.81,-30.65 -13.46,-5.81 -6.55,11.13 -18.6,-8.69l-6.15 9.7 -11.16 -7.87c-1.84,2.16 -1.94,13.54 -22.17,-0.26 19.88,-14.06 46.84,-53.12 52.39,-78.32 -8.37,-12.91 -16.52,-16.52 -28.46,-25.68 19.62,-24.06 36.52,-19.41 62.74,-10.04 -26.47,-25.66 -46.26,-5.78 -70.15,8.03z"/>
   <path class="fil3" d="M420.8 198.4l8.58 22.24 15.27 -0.52 4.81 -19.45c-12.79,-7.19 -16.44,-2.26 -28.66,-2.27z"/>
   <circle class="fil4 str0" cx="336.3" cy="228.75" r="12.82"/>
  </g>
  <path class="fil1" d="M144.84 427.98c4.65,0 8.02,1.27 10.12,3.79 2.09,2.53 3.14,5.83 3.14,9.9l-6.8 1.21c0.06,-2.64 -0.42,-4.74 -1.42,-6.29 -1.01,-1.55 -2.71,-2.32 -5.12,-2.32 -1.38,0 -2.5,0.31 -3.36,0.94 -0.86,0.64 -1.54,1.42 -2.02,2.37 -0.49,0.95 -0.82,2 -0.99,3.14 -0.18,1.15 -0.26,2.24 -0.26,3.27l0 30.22c0,0.86 0.08,1.79 0.26,2.79 0.17,1.01 0.5,1.93 0.99,2.76 0.48,0.83 1.14,1.53 1.98,2.11 0.83,0.57 1.93,0.86 3.31,0.86 2.24,0 3.89,-0.69 4.95,-2.07 1.06,-1.37 1.62,-3.55 1.68,-6.54l6.97 1.21c-0.11,4.3 -1.28,7.66 -3.49,10.07 -2.21,2.41 -5.52,3.61 -9.94,3.61 -4.53,0 -7.92,-1.26 -10.15,-3.78 -2.24,-2.53 -3.36,-6.09 -3.36,-10.68l0 -29.61c0,-2.12 0.18,-4.2 0.56,-6.24 0.37,-2.04 1.04,-3.84 2.02,-5.42 0.98,-1.58 2.35,-2.86 4.13,-3.83 1.78,-0.98 4.05,-1.47 6.8,-1.47zm41.78 60.43l-8.49 -26.25 -6.43 0 0 26.25 -6.8 0 0 -59.91 13.13 0c4.86,0 8.43,1.41 10.73,4.22 2.28,2.81 3.42,7.08 3.42,12.82 0,3.45 -0.51,6.49 -1.54,9.13 -1.02,2.64 -3.09,4.67 -6.17,6.11l9.09 27.63 -6.94 0zm-1.24 -42.87c0,-1.6 -0.11,-3.07 -0.34,-4.39 -0.23,-1.32 -0.67,-2.45 -1.33,-3.4 -0.66,-0.94 -1.54,-1.68 -2.63,-2.19 -1.09,-0.52 -2.5,-0.78 -4.22,-0.78l-5.16 0 0 21.09 5.77 0c1.55,0 2.84,-0.24 3.87,-0.73 1.03,-0.49 1.85,-1.19 2.45,-2.11 0.6,-0.92 1.02,-2.01 1.25,-3.27 0.23,-1.26 0.34,-2.67 0.34,-4.22zm15.15 42.87l0 -59.91 25.66 0 0 6.28 -18.86 0 0 20.06 16.36 0 0 6.28 -16.36 0 0 21.01 18.86 0 0 6.28 -25.66 0zm53.37 0l-2.75 -13.34 -13.34 0 -2.67 13.34 -6.54 0 12.74 -59.91 6.36 0 12.92 59.91 -6.72 0zm-9.64 -47.6l-2.49 13.94 -2.85 14.03 11.02 0 -2.92 -14.2 -2.41 -13.77 -0.35 0zm31.76 -6.03l0 53.63 -6.8 0 0 -53.63 -10.15 0 0 -6.28 27.11 0 0 6.28 -10.16 0zm15.24 53.63l0 -59.91 6.8 0 0 59.91 -6.8 0zm32.28 0.09l-7.4 0 -11.19 -60 6.97 0 4.47 25.31 3.36 20.83 0.26 0 3.44 -21.01 4.57 -25.13 6.97 0 -11.45 60zm17.99 -0.09l0 -59.91 25.65 0 0 6.28 -18.85 0 0 20.06 16.35 0 0 6.28 -16.35 0 0 21.01 18.85 0 0 6.28 -25.65 0zm51.99 -31.42c2.64,0.81 4.43,2.43 5.38,4.87 0.95,2.43 1.42,5.4 1.42,8.9 0,6.2 -1.28,10.69 -3.83,13.48 -2.55,2.78 -6.53,4.17 -11.92,4.17l-11.54 0 0 -59.91 12.66 0c5.16,0 8.81,1.38 10.93,4.13 2.12,2.76 3.18,6.66 3.18,11.71 0,3.15 -0.46,5.67 -1.37,7.53 -0.92,1.87 -2.56,3.46 -4.91,4.78l0 0.34zm0.26 13.09c0,-3.28 -0.62,-5.8 -1.85,-7.58 -1.24,-1.78 -3.6,-2.67 -7.1,-2.67l-5 0 0 22.47 5.34 0c1.89,0 3.4,-0.33 4.52,-0.99 1.12,-0.66 1.98,-1.55 2.58,-2.67 0.6,-1.12 1.01,-2.41 1.21,-3.87 0.2,-1.47 0.3,-3.03 0.3,-4.69zm-0.52 -25.78c0,-3.09 -0.67,-5.44 -2.02,-7.08 -1.35,-1.62 -3.6,-2.44 -6.76,-2.44l-4.65 0 0 19.11 4.57 0c3.15,0 5.42,-0.83 6.8,-2.48 1.37,-1.66 2.06,-4.03 2.06,-7.11zm42.44 28.01c0,5.34 -1.05,9.46 -3.14,12.36 -2.1,2.89 -5.67,4.34 -10.72,4.34 -4.94,0 -8.45,-1.35 -10.55,-4.04 -2.09,-2.7 -3.14,-6.26 -3.14,-10.68l0 -29.52c0,-2.12 0.19,-4.19 0.56,-6.2 0.38,-2.01 1.06,-3.8 2.07,-5.38 1,-1.58 2.39,-2.84 4.17,-3.79 1.78,-0.94 4.11,-1.42 6.98,-1.42 2.98,0 5.38,0.42 7.18,1.25 1.81,0.83 3.2,2 4.18,3.49 0.97,1.49 1.62,3.24 1.93,5.25 0.32,2.01 0.48,4.22 0.48,6.63l0 27.71zm-6.8 -28.78c0,-1.03 -0.07,-2.09 -0.22,-3.18 -0.14,-1.08 -0.44,-2.07 -0.9,-2.96 -0.46,-0.88 -1.16,-1.62 -2.11,-2.22 -0.95,-0.6 -2.2,-0.9 -3.74,-0.9 -1.73,0 -3.05,0.41 -3.96,1.25 -0.92,0.81 -1.61,1.8 -2.07,2.95 -0.46,1.15 -0.73,2.35 -0.82,3.64 -0.08,1.3 -0.13,2.36 -0.13,3.22l0 28.99c0,0.86 0.09,1.78 0.26,2.74 0.17,0.98 0.52,1.9 1.03,2.76 0.52,0.84 1.22,1.55 2.11,2.09 0.89,0.55 2.05,0.82 3.49,0.82 1.43,0 2.61,-0.29 3.53,-0.86 0.92,-0.58 1.63,-1.29 2.15,-2.18 0.52,-0.89 0.88,-1.91 1.08,-3.04 0.2,-1.15 0.3,-2.33 0.3,-3.53l0 -29.59zm35.89 13.46c2.64,0.81 4.43,2.43 5.38,4.87 0.95,2.43 1.42,5.4 1.42,8.9 0,6.2 -1.27,10.69 -3.83,13.48 -2.55,2.78 -6.53,4.17 -11.92,4.17l-11.53 0 0 -59.91 12.65 0c5.16,0 8.81,1.38 10.93,4.13 2.12,2.76 3.19,6.66 3.19,11.71 0,3.15 -0.46,5.67 -1.38,7.53 -0.92,1.87 -2.56,3.46 -4.91,4.78l0 0.34zm0.26 13.09c0,-3.28 -0.62,-5.8 -1.85,-7.58 -1.23,-1.78 -3.6,-2.67 -7.1,-2.67l-4.99 0 0 22.47 5.33 0c1.9,0 3.4,-0.33 4.52,-0.99 1.12,-0.66 1.98,-1.55 2.58,-2.67 0.61,-1.12 1.01,-2.41 1.21,-3.87 0.2,-1.47 0.3,-3.03 0.3,-4.69zm-0.52 -25.78c0,-3.09 -0.67,-5.44 -2.02,-7.08 -1.35,-1.62 -3.6,-2.44 -6.76,-2.44l-4.64 0 0 19.11 4.56 0c3.15,0 5.42,-0.83 6.8,-2.48 1.38,-1.66 2.06,-4.03 2.06,-7.11z"/>
 </g>
</svg>
