<?xml version="1.0" encoding="UTF-8"?>
<!DOCTYPE svg PUBLIC "-//W3C//DTD SVG 1.1//EN" "http://www.w3.org/Graphics/SVG/1.1/DTD/svg11.dtd">
<!-- Creator: CorelDRAW 2018 (64-Bit) -->
<svg xmlns="http://www.w3.org/2000/svg" xml:space="preserve" width="32px" height="32px" version="1.1" style="shape-rendering:geometricPrecision; text-rendering:geometricPrecision; image-rendering:optimizeQuality; fill-rule:evenodd; clip-rule:evenodd"
viewBox="0 0 32 32"
 xmlns:xlink="http://www.w3.org/1999/xlink">
 <defs>
  <style type="text/css">
   <![CDATA[
    .fil0 {fill:white}
   ]]>
  </style>
 </defs>
 <g id="Слой_x0020_1">
  <metadata id="CorelCorpID_0Corel-Layer"/>
  <path class="fil0" d="M16 0c8.84,0 16,7.16 16,16 0,8.84 -7.16,16 -16,16 -8.84,0 -16,-7.16 -16,-16 0,-8.84 7.16,-16 16,-16zm-4.59 6.77l-1.21 0 1.44 4.35 0 2.86 1.2 0 0 -2.99 1.4 -4.22 -1.23 0 -0.74 2.88 -0.07 0 -0.79 -2.88zm5.6 2.14c-0.29,-0.26 -0.65,-0.39 -1.09,-0.39 -0.49,0 -0.88,0.13 -1.16,0.37 -0.29,0.24 -0.43,0.57 -0.43,0.98l0 2.76c0,0.45 0.14,0.81 0.42,1.08 0.28,0.26 0.65,0.4 1.12,0.4 0.48,0 0.86,-0.13 1.14,-0.39 0.28,-0.26 0.42,-0.62 0.42,-1.07l0 -2.74c0,-0.41 -0.14,-0.74 -0.42,-1zm-0.67 3.82c0,0.14 -0.04,0.25 -0.13,0.34 -0.09,0.08 -0.2,0.12 -0.34,0.12 -0.15,0 -0.26,-0.04 -0.33,-0.12 -0.08,-0.08 -0.12,-0.19 -0.12,-0.34l0 -2.9c0,-0.11 0.05,-0.21 0.13,-0.28 0.08,-0.07 0.18,-0.11 0.31,-0.11 0.14,0 0.26,0.04 0.35,0.11 0.08,0.07 0.13,0.17 0.13,0.28l0 2.9 0 0zm5 1.25l-1.07 0 0 -0.59c-0.19,0.22 -0.4,0.38 -0.61,0.49 -0.21,0.12 -0.42,0.17 -0.62,0.17 -0.25,0 -0.43,-0.08 -0.56,-0.24 -0.12,-0.15 -0.19,-0.39 -0.19,-0.71l0 -4.44 1.07 0 0 4.07c0,0.13 0.02,0.22 0.07,0.28 0.04,0.05 0.12,0.08 0.22,0.08 0.07,0 0.17,-0.03 0.29,-0.11 0.12,-0.07 0.23,-0.17 0.33,-0.29l0 -4.03 1.07 0 0 5.32 0 0zm0.01 6.57c-0.15,0 -0.26,0.04 -0.33,0.13 -0.07,0.09 -0.1,0.23 -0.1,0.43l0 0.49 0.84 0 0 -0.49c0,-0.2 -0.03,-0.34 -0.1,-0.43 -0.06,-0.09 -0.17,-0.13 -0.31,-0.13zm-3.27 -0.02c-0.07,0 -0.14,0.01 -0.21,0.05 -0.06,0.03 -0.13,0.08 -0.19,0.14l0 3.01c0.08,0.08 0.15,0.14 0.22,0.17 0.08,0.04 0.15,0.05 0.23,0.05 0.12,0 0.2,-0.03 0.26,-0.1 0.05,-0.07 0.08,-0.17 0.08,-0.33l0 -2.49c0,-0.17 -0.03,-0.29 -0.1,-0.37 -0.07,-0.09 -0.17,-0.13 -0.29,-0.13zm5.27 -3.74c-0.78,-0.78 -7.35,-0.79 -7.35,-0.79 0,0 -6.57,0.01 -7.35,0.79 -0.78,0.78 -0.78,4.63 -0.78,4.65 0,0.03 0,3.87 0.78,4.65 0.78,0.78 7.35,0.8 7.35,0.8 0,0 6.57,-0.02 7.35,-0.8 0.78,-0.78 0.79,-4.65 0.79,-4.65 0,-0.02 -0.01,-3.87 -0.79,-4.65zm-10.47 2.27l-1.11 0 0 5.59 -1.07 0 0 -5.59 -1.11 0 0 -0.95 3.29 0 0 0.95zm3.12 5.59l-0.94 0 0 -0.53c-0.18,0.2 -0.36,0.35 -0.55,0.45 -0.19,0.1 -0.38,0.15 -0.55,0.15 -0.22,0 -0.39,-0.07 -0.5,-0.22 -0.11,-0.14 -0.17,-0.35 -0.17,-0.64l0 -4.04 0.95 0 0 3.71c0,0.11 0.02,0.19 0.06,0.24 0.04,0.06 0.11,0.08 0.2,0.08 0.06,0 0.15,-0.03 0.26,-0.1 0.11,-0.07 0.2,-0.16 0.3,-0.26l0 -3.67 0.94 0 0 4.83zm3.45 -1c0,0.34 -0.08,0.61 -0.23,0.79 -0.14,0.18 -0.36,0.27 -0.64,0.27 -0.19,0 -0.35,-0.03 -0.5,-0.1 -0.14,-0.07 -0.28,-0.18 -0.4,-0.33l0 0.37 -0.96 0 0 -6.54 0.96 0 0 2.1c0.13,-0.14 0.26,-0.26 0.4,-0.33 0.15,-0.08 0.3,-0.12 0.44,-0.12 0.3,0 0.53,0.1 0.69,0.31 0.16,0.21 0.24,0.51 0.24,0.9l0 2.68 0 0zm3.29 -1.3l-1.82 0 0 0.91c0,0.26 0.03,0.43 0.1,0.53 0.06,0.1 0.17,0.15 0.32,0.15 0.16,0 0.27,-0.04 0.33,-0.13 0.06,-0.08 0.09,-0.26 0.09,-0.55l0 -0.22 0.98 0 0 0.25c0,0.49 -0.12,0.87 -0.36,1.12 -0.23,0.25 -0.59,0.37 -1.06,0.37 -0.43,0 -0.76,-0.13 -1.01,-0.39 -0.24,-0.27 -0.36,-0.63 -0.36,-1.1l0 -2.17c0,-0.41 0.13,-0.76 0.4,-1.02 0.27,-0.26 0.61,-0.39 1.04,-0.39 0.43,0 0.77,0.12 1,0.36 0.23,0.25 0.35,0.6 0.35,1.05l0 1.23 0 0z"/>
 </g>
</svg>
