<?xml version="1.0" encoding="UTF-8"?>
<!DOCTYPE svg PUBLIC "-//W3C//DTD SVG 1.1//EN" "http://www.w3.org/Graphics/SVG/1.1/DTD/svg11.dtd">
<!-- Creator: CorelDRAW X7 -->
<svg xmlns="http://www.w3.org/2000/svg" xml:space="preserve" width="16px" height="16px" version="1.1" style="shape-rendering:geometricPrecision; text-rendering:geometricPrecision; image-rendering:optimizeQuality; fill-rule:evenodd; clip-rule:evenodd"
viewBox="0 0 1600 1600"
 xmlns:xlink="http://www.w3.org/1999/xlink">
 <defs>
  <style type="text/css">
   <![CDATA[
    .fil0 {fill:black}
   ]]>
  </style>
 </defs>
 <g id="Слой_x0020_1">
  <metadata id="CorelCorpID_0Corel-Layer"/>
  <g id="id-card.svg">
   <g>
    <path class="fil0" d="M1293 244l-310 0c-26,-81 -102,-139 -191,-139 -89,0 -164,58 -190,139l-308 0c-64,0 -117,52 -117,117l0 993c0,65 53,117 117,117l999 0c64,0 117,-52 117,-117l0 -993c0,-65 -53,-117 -117,-117zm-501 -9c39,0 70,32 70,70 0,39 -31,70 -70,70 -38,0 -70,-31 -70,-70 0,-38 32,-70 70,-70zm348 1006c0,21 -18,39 -39,39l-262 0 -91 0 -261 0c-22,0 -39,-18 -39,-39l0 -18c0,-48 22,-93 60,-122 77,-56 151,-94 168,-102 2,-1 3,-3 3,-5l0 -68c-10,-18 -17,-36 -20,-54 -7,0 -17,-11 -28,-48 -14,-52 1,-59 14,-58 -2,-8 -4,-15 -5,-21l0 0c-5,-24 -6,-47 -1,-69 7,-28 23,-51 40,-69 11,-12 23,-22 37,-30 11,-8 22,-14 35,-19l0 0c10,-3 21,-5 33,-6 35,-3 62,6 81,17 29,16 40,37 40,37 0,0 66,5 43,139 -1,6 -3,14 -5,21 13,-1 28,6 14,58 -11,37 -21,48 -29,48 -2,18 -9,36 -19,54l0 68c0,2 1,4 3,5 17,8 91,46 168,102 38,29 60,74 60,122l0 18 0 0z"/>
   </g>
   <g>
   </g>
   <g>
   </g>
   <g>
   </g>
   <g>
   </g>
   <g>
   </g>
   <g>
   </g>
   <g>
   </g>
   <g>
   </g>
   <g>
   </g>
   <g>
   </g>
   <g>
   </g>
   <g>
   </g>
   <g>
   </g>
   <g>
   </g>
   <g>
   </g>
  </g>
 </g>
</svg>
