<?xml version="1.0" encoding="UTF-8"?>
<!DOCTYPE svg PUBLIC "-//W3C//DTD SVG 1.1//EN" "http://www.w3.org/Graphics/SVG/1.1/DTD/svg11.dtd">
<!-- Creator: CorelDRAW 2017 -->
<svg xmlns="http://www.w3.org/2000/svg" xml:space="preserve" width="25px" height="25px" version="1.1" style="shape-rendering:geometricPrecision; text-rendering:geometricPrecision; image-rendering:optimizeQuality; fill-rule:evenodd; clip-rule:evenodd"
viewBox="0 0 2500 2500"
 xmlns:xlink="http://www.w3.org/1999/xlink">
 <defs>
  <style type="text/css">
   <![CDATA[
    .fil0 {fill:#FEFEFE}
   ]]>
  </style>
 </defs>
 <g id="Слой_x0020_1">
  <metadata id="CorelCorpID_0Corel-Layer"/>
  <path class="fil0" d="M1756 1471c88,-137 139,-301 139,-476 0,-491 -397,-889 -887,-889 -491,0 -888,398 -888,889 0,490 397,888 887,888 178,0 344,-53 482,-142l41 -28 633 633 197 -200 -633 -633 29 -42zm-251 -973c132,133 205,309 205,496 0,187 -73,363 -205,496 -133,132 -309,205 -496,205 -187,0 -363,-73 -496,-205 -132,-133 -205,-309 -205,-496 0,-187 73,-363 205,-496 133,-132 309,-205 496,-205 187,0 363,73 496,205z"/>
 </g>
</svg>
