<?xml version="1.0" encoding="UTF-8"?>
<!DOCTYPE svg PUBLIC "-//W3C//DTD SVG 1.1//EN" "http://www.w3.org/Graphics/SVG/1.1/DTD/svg11.dtd">
<!-- Creator: CorelDRAW 2018 (64-Bit) -->
<svg xmlns="http://www.w3.org/2000/svg" xml:space="preserve" width="32px" height="32px" version="1.1" style="shape-rendering:geometricPrecision; text-rendering:geometricPrecision; image-rendering:optimizeQuality; fill-rule:evenodd; clip-rule:evenodd"
viewBox="0 0 32 32"
 xmlns:xlink="http://www.w3.org/1999/xlink">
 <defs>
  <style type="text/css">
   <![CDATA[
    .fil0 {fill:black}
   ]]>
  </style>
 </defs>
 <g id="Слой_x0020_1">
  <metadata id="CorelCorpID_0Corel-Layer"/>
  <path class="fil0" d="M16 0c8.84,0 16,7.16 16,16 0,8.84 -7.16,16 -16,16 -8.84,0 -16,-7.16 -16,-16 0,-8.84 7.16,-16 16,-16zm6.46 7.39l-12.92 0c-1.21,0 -2.15,0.94 -2.15,2.15l0 12.92c0,1.21 0.94,2.15 2.15,2.15l12.92 0c1.21,0 2.15,-0.94 2.15,-2.16l0 -12.91c0,-1.21 -0.94,-2.15 -2.15,-2.15zm-6.45 5.23c1.91,0 3.46,1.5 3.46,3.35 0,1.85 -1.55,3.35 -3.46,3.35 -1.91,0 -3.45,-1.5 -3.45,-3.35 0,-1.85 1.55,-3.35 3.45,-3.35zm6.45 9.3c0,0.37 -0.17,0.54 -0.54,0.54l-11.84 0c-0.37,0 -0.54,-0.17 -0.54,-0.54l0 -7.53 1.35 0.29c-0.15,0.47 -0.23,0.96 -0.23,1.47 0,2.87 2.4,5.19 5.35,5.19 2.96,0 5.35,-2.32 5.35,-5.19 0,-0.51 -0.08,-1 -0.22,-1.47l1.32 -0.29 0 7.53zm0 -9.68c0,0.29 -0.25,0.53 -0.54,0.53l-2.16 0c-0.29,0 -0.53,-0.24 -0.53,-0.53l0 -2.16c0,-0.29 0.24,-0.54 0.53,-0.54l2.16 0c0.29,0 0.54,0.25 0.54,0.54l0 2.16z"/>
 </g>
</svg>
