<?xml version="1.0" encoding="UTF-8"?>
<!DOCTYPE svg PUBLIC "-//W3C//DTD SVG 1.1//EN" "http://www.w3.org/Graphics/SVG/1.1/DTD/svg11.dtd">
<!-- Creator: CorelDRAW 2018 (64-Bit) -->
<svg xmlns="http://www.w3.org/2000/svg" xml:space="preserve" width="32px" height="32px" version="1.1" style="shape-rendering:geometricPrecision; text-rendering:geometricPrecision; image-rendering:optimizeQuality; fill-rule:evenodd; clip-rule:evenodd"
viewBox="0 0 32 32"
 xmlns:xlink="http://www.w3.org/1999/xlink"
 enable-background="new 0 0 32 32">
 <defs>
  <style type="text/css">
   <![CDATA[
    .fil0 {fill:white}
   ]]>
  </style>
 </defs>
 <g id="Слой_x0020_1">
  <metadata id="CorelCorpID_0Corel-Layer"/>
  <path class="fil0" d="M16 0c8.84,0 16,7.16 16,16 0,8.84 -7.16,16 -16,16 -8.84,0 -16,-7.16 -16,-16 0,-8.84 7.16,-16 16,-16zm-0.7 23.2l1.27 0c0,0 0.38,-0.04 0.58,-0.25 0.18,-0.2 0.17,-0.56 0.17,-0.56 0,0 -0.02,-1.71 0.77,-1.96 0.78,-0.24 1.78,1.65 2.84,2.38 0.81,0.55 1.42,0.43 1.42,0.43l2.84 -0.04c0,0 1.48,-0.09 0.78,-1.26 -0.06,-0.09 -0.41,-0.86 -2.11,-2.44 -1.78,-1.65 -1.54,-1.39 0.6,-4.24 1.31,-1.75 1.83,-2.81 1.67,-3.26 -0.16,-0.44 -1.12,-0.32 -1.12,-0.32l-3.2 0.02c0,0 -0.23,-0.04 -0.41,0.07 -0.17,0.1 -0.28,0.34 -0.28,0.34 0,0 -0.51,1.35 -1.18,2.5 -1.43,2.41 -2,2.54 -2.23,2.39 -0.54,-0.35 -0.41,-1.4 -0.41,-2.15 0,-2.35 0.36,-3.32 -0.69,-3.58 -0.35,-0.08 -0.6,-0.14 -1.49,-0.15 -1.14,-0.01 -2.11,0.01 -2.65,0.28 -0.37,0.17 -0.65,0.57 -0.48,0.59 0.21,0.03 0.69,0.13 0.95,0.48 0.32,0.44 0.31,1.44 0.31,1.44 0,0 0.19,2.76 -0.44,3.11 -0.43,0.23 -1.02,-0.25 -2.29,-2.44 -0.65,-1.13 -1.14,-2.37 -1.14,-2.37 0,0 -0.09,-0.23 -0.26,-0.35 -0.21,-0.15 -0.5,-0.2 -0.5,-0.2l-3.03 0.02c0,0 -0.46,0.01 -0.63,0.21 -0.15,0.17 -0.01,0.54 -0.01,0.54 0,0 2.38,5.57 5.07,8.37 2.47,2.57 5.28,2.4 5.28,2.4l0 0z"/>
 </g>
</svg>
